ISO-10303-21;
HEADER;
/* Generated by software containing ST-Developer
 * from STEP Tools, Inc. (www.steptools.com) 
 */

FILE_DESCRIPTION(
/* description */ ('',
'CAx-IF Rec.Pracs.---Representation and Presentation of Product Manufa
cturing Information (PMI)---4.0---2014-10-13'),
/* implementation_level */ '2;1');

FILE_NAME(
/* name */ 'booster7mm v5.step',
/* time_stamp */ '2025-03-27T14:09:30-07:00',
/* author */ (''),
/* organization */ (''),
/* preprocessor_version */ 'ST-DEVELOPER v20',
/* originating_system */ 'Autodesk Translation Framework v13.20.0.188',

/* authorisation */ '');

FILE_SCHEMA (('AP242_MANAGED_MODEL_BASED_3D_ENGINEERING_MIM_LF { 1 0 10303 442 1 1 4 }'));
ENDSEC;

DATA;
#10=MECHANICAL_DESIGN_GEOMETRIC_PRESENTATION_REPRESENTATION('',(#13),#475);
#11=SHAPE_REPRESENTATION_RELATIONSHIP('SRR','None',#482,#12);
#12=ADVANCED_BREP_SHAPE_REPRESENTATION('',(#14),#474);
#13=STYLED_ITEM('',(#491),#14);
#14=MANIFOLD_SOLID_BREP('Body2',#287);
#15=CYLINDRICAL_SURFACE('',#318,1.5);
#16=CYLINDRICAL_SURFACE('',#319,1.5);
#17=CYLINDRICAL_SURFACE('',#320,1.5);
#18=CYLINDRICAL_SURFACE('',#321,1.5);
#19=FACE_BOUND('',#53,.T.);
#20=FACE_BOUND('',#54,.T.);
#21=FACE_BOUND('',#55,.T.);
#22=FACE_BOUND('',#56,.T.);
#23=FACE_BOUND('',#57,.T.);
#24=FACE_BOUND('',#61,.T.);
#25=FACE_BOUND('',#62,.T.);
#26=FACE_BOUND('',#63,.T.);
#27=FACE_BOUND('',#64,.T.);
#28=FACE_BOUND('',#65,.T.);
#29=CIRCLE('',#303,1.5);
#30=CIRCLE('',#304,1.5);
#31=CIRCLE('',#305,1.5);
#32=CIRCLE('',#306,1.5);
#33=CIRCLE('',#310,1.5);
#34=CIRCLE('',#311,1.5);
#35=CIRCLE('',#312,1.5);
#36=CIRCLE('',#313,1.5);
#37=FACE_OUTER_BOUND('',#51,.T.);
#38=FACE_OUTER_BOUND('',#52,.T.);
#39=FACE_OUTER_BOUND('',#58,.T.);
#40=FACE_OUTER_BOUND('',#59,.T.);
#41=FACE_OUTER_BOUND('',#60,.T.);
#42=FACE_OUTER_BOUND('',#66,.T.);
#43=FACE_OUTER_BOUND('',#67,.T.);
#44=FACE_OUTER_BOUND('',#68,.T.);
#45=FACE_OUTER_BOUND('',#69,.T.);
#46=FACE_OUTER_BOUND('',#70,.T.);
#47=FACE_OUTER_BOUND('',#71,.T.);
#48=FACE_OUTER_BOUND('',#72,.T.);
#49=FACE_OUTER_BOUND('',#73,.T.);
#50=FACE_OUTER_BOUND('',#74,.T.);
#51=EDGE_LOOP('',(#191,#192,#193,#194));
#52=EDGE_LOOP('',(#195,#196,#197,#198));
#53=EDGE_LOOP('',(#199));
#54=EDGE_LOOP('',(#200));
#55=EDGE_LOOP('',(#201));
#56=EDGE_LOOP('',(#202));
#57=EDGE_LOOP('',(#203,#204,#205,#206));
#58=EDGE_LOOP('',(#207,#208,#209,#210));
#59=EDGE_LOOP('',(#211,#212,#213,#214));
#60=EDGE_LOOP('',(#215,#216,#217,#218));
#61=EDGE_LOOP('',(#219));
#62=EDGE_LOOP('',(#220));
#63=EDGE_LOOP('',(#221));
#64=EDGE_LOOP('',(#222));
#65=EDGE_LOOP('',(#223,#224,#225,#226));
#66=EDGE_LOOP('',(#227,#228,#229,#230));
#67=EDGE_LOOP('',(#231,#232,#233,#234));
#68=EDGE_LOOP('',(#235,#236,#237,#238));
#69=EDGE_LOOP('',(#239,#240,#241,#242));
#70=EDGE_LOOP('',(#243,#244,#245,#246));
#71=EDGE_LOOP('',(#247,#248,#249,#250));
#72=EDGE_LOOP('',(#251,#252,#253,#254));
#73=EDGE_LOOP('',(#255,#256,#257,#258));
#74=EDGE_LOOP('',(#259,#260,#261,#262));
#75=LINE('',#401,#103);
#76=LINE('',#403,#104);
#77=LINE('',#405,#105);
#78=LINE('',#406,#106);
#79=LINE('',#409,#107);
#80=LINE('',#411,#108);
#81=LINE('',#412,#109);
#82=LINE('',#423,#110);
#83=LINE('',#425,#111);
#84=LINE('',#427,#112);
#85=LINE('',#428,#113);
#86=LINE('',#431,#114);
#87=LINE('',#432,#115);
#88=LINE('',#435,#116);
#89=LINE('',#436,#117);
#90=LINE('',#438,#118);
#91=LINE('',#449,#119);
#92=LINE('',#451,#120);
#93=LINE('',#453,#121);
#94=LINE('',#454,#122);
#95=LINE('',#456,#123);
#96=LINE('',#457,#124);
#97=LINE('',#459,#125);
#98=LINE('',#461,#126);
#99=LINE('',#464,#127);
#100=LINE('',#466,#128);
#101=LINE('',#468,#129);
#102=LINE('',#470,#130);
#103=VECTOR('',#327,10.);
#104=VECTOR('',#328,10.);
#105=VECTOR('',#329,10.);
#106=VECTOR('',#330,10.);
#107=VECTOR('',#333,10.);
#108=VECTOR('',#334,10.);
#109=VECTOR('',#335,10.);
#110=VECTOR('',#344,10.);
#111=VECTOR('',#345,10.);
#112=VECTOR('',#346,10.);
#113=VECTOR('',#347,10.);
#114=VECTOR('',#350,10.);
#115=VECTOR('',#351,10.);
#116=VECTOR('',#354,10.);
#117=VECTOR('',#355,10.);
#118=VECTOR('',#358,10.);
#119=VECTOR('',#367,10.);
#120=VECTOR('',#368,10.);
#121=VECTOR('',#369,10.);
#122=VECTOR('',#370,10.);
#123=VECTOR('',#373,10.);
#124=VECTOR('',#374,10.);
#125=VECTOR('',#377,10.);
#126=VECTOR('',#380,10.);
#127=VECTOR('',#385,1.5);
#128=VECTOR('',#388,1.5);
#129=VECTOR('',#391,1.5);
#130=VECTOR('',#394,1.5);
#131=VERTEX_POINT('',#399);
#132=VERTEX_POINT('',#400);
#133=VERTEX_POINT('',#402);
#134=VERTEX_POINT('',#404);
#135=VERTEX_POINT('',#408);
#136=VERTEX_POINT('',#410);
#137=VERTEX_POINT('',#413);
#138=VERTEX_POINT('',#415);
#139=VERTEX_POINT('',#417);
#140=VERTEX_POINT('',#419);
#141=VERTEX_POINT('',#421);
#142=VERTEX_POINT('',#422);
#143=VERTEX_POINT('',#424);
#144=VERTEX_POINT('',#426);
#145=VERTEX_POINT('',#430);
#146=VERTEX_POINT('',#434);
#147=VERTEX_POINT('',#439);
#148=VERTEX_POINT('',#441);
#149=VERTEX_POINT('',#443);
#150=VERTEX_POINT('',#445);
#151=VERTEX_POINT('',#447);
#152=VERTEX_POINT('',#448);
#153=VERTEX_POINT('',#450);
#154=VERTEX_POINT('',#452);
#155=EDGE_CURVE('',#131,#132,#75,.T.);
#156=EDGE_CURVE('',#133,#131,#76,.T.);
#157=EDGE_CURVE('',#134,#133,#77,.T.);
#158=EDGE_CURVE('',#132,#134,#78,.T.);
#159=EDGE_CURVE('',#135,#132,#79,.T.);
#160=EDGE_CURVE('',#135,#136,#80,.T.);
#161=EDGE_CURVE('',#131,#136,#81,.T.);
#162=EDGE_CURVE('',#137,#137,#29,.T.);
#163=EDGE_CURVE('',#138,#138,#30,.T.);
#164=EDGE_CURVE('',#139,#139,#31,.T.);
#165=EDGE_CURVE('',#140,#140,#32,.T.);
#166=EDGE_CURVE('',#141,#142,#82,.T.);
#167=EDGE_CURVE('',#142,#143,#83,.T.);
#168=EDGE_CURVE('',#143,#144,#84,.T.);
#169=EDGE_CURVE('',#144,#141,#85,.T.);
#170=EDGE_CURVE('',#145,#134,#86,.T.);
#171=EDGE_CURVE('',#145,#135,#87,.T.);
#172=EDGE_CURVE('',#146,#145,#88,.T.);
#173=EDGE_CURVE('',#136,#146,#89,.T.);
#174=EDGE_CURVE('',#133,#146,#90,.T.);
#175=EDGE_CURVE('',#147,#147,#33,.T.);
#176=EDGE_CURVE('',#148,#148,#34,.T.);
#177=EDGE_CURVE('',#149,#149,#35,.T.);
#178=EDGE_CURVE('',#150,#150,#36,.T.);
#179=EDGE_CURVE('',#151,#152,#91,.T.);
#180=EDGE_CURVE('',#152,#153,#92,.T.);
#181=EDGE_CURVE('',#153,#154,#93,.T.);
#182=EDGE_CURVE('',#154,#151,#94,.T.);
#183=EDGE_CURVE('',#144,#153,#95,.T.);
#184=EDGE_CURVE('',#143,#154,#96,.T.);
#185=EDGE_CURVE('',#142,#151,#97,.T.);
#186=EDGE_CURVE('',#141,#152,#98,.T.);
#187=EDGE_CURVE('',#147,#137,#99,.T.);
#188=EDGE_CURVE('',#148,#138,#100,.T.);
#189=EDGE_CURVE('',#149,#139,#101,.T.);
#190=EDGE_CURVE('',#150,#140,#102,.T.);
#191=ORIENTED_EDGE('',*,*,#155,.F.);
#192=ORIENTED_EDGE('',*,*,#156,.F.);
#193=ORIENTED_EDGE('',*,*,#157,.F.);
#194=ORIENTED_EDGE('',*,*,#158,.F.);
#195=ORIENTED_EDGE('',*,*,#155,.T.);
#196=ORIENTED_EDGE('',*,*,#159,.F.);
#197=ORIENTED_EDGE('',*,*,#160,.T.);
#198=ORIENTED_EDGE('',*,*,#161,.F.);
#199=ORIENTED_EDGE('',*,*,#162,.F.);
#200=ORIENTED_EDGE('',*,*,#163,.F.);
#201=ORIENTED_EDGE('',*,*,#164,.F.);
#202=ORIENTED_EDGE('',*,*,#165,.F.);
#203=ORIENTED_EDGE('',*,*,#166,.T.);
#204=ORIENTED_EDGE('',*,*,#167,.T.);
#205=ORIENTED_EDGE('',*,*,#168,.T.);
#206=ORIENTED_EDGE('',*,*,#169,.T.);
#207=ORIENTED_EDGE('',*,*,#158,.T.);
#208=ORIENTED_EDGE('',*,*,#170,.F.);
#209=ORIENTED_EDGE('',*,*,#171,.T.);
#210=ORIENTED_EDGE('',*,*,#159,.T.);
#211=ORIENTED_EDGE('',*,*,#160,.F.);
#212=ORIENTED_EDGE('',*,*,#171,.F.);
#213=ORIENTED_EDGE('',*,*,#172,.F.);
#214=ORIENTED_EDGE('',*,*,#173,.F.);
#215=ORIENTED_EDGE('',*,*,#157,.T.);
#216=ORIENTED_EDGE('',*,*,#174,.T.);
#217=ORIENTED_EDGE('',*,*,#172,.T.);
#218=ORIENTED_EDGE('',*,*,#170,.T.);
#219=ORIENTED_EDGE('',*,*,#175,.T.);
#220=ORIENTED_EDGE('',*,*,#176,.T.);
#221=ORIENTED_EDGE('',*,*,#177,.T.);
#222=ORIENTED_EDGE('',*,*,#178,.T.);
#223=ORIENTED_EDGE('',*,*,#179,.T.);
#224=ORIENTED_EDGE('',*,*,#180,.T.);
#225=ORIENTED_EDGE('',*,*,#181,.T.);
#226=ORIENTED_EDGE('',*,*,#182,.T.);
#227=ORIENTED_EDGE('',*,*,#181,.F.);
#228=ORIENTED_EDGE('',*,*,#183,.F.);
#229=ORIENTED_EDGE('',*,*,#168,.F.);
#230=ORIENTED_EDGE('',*,*,#184,.T.);
#231=ORIENTED_EDGE('',*,*,#182,.F.);
#232=ORIENTED_EDGE('',*,*,#184,.F.);
#233=ORIENTED_EDGE('',*,*,#167,.F.);
#234=ORIENTED_EDGE('',*,*,#185,.T.);
#235=ORIENTED_EDGE('',*,*,#179,.F.);
#236=ORIENTED_EDGE('',*,*,#185,.F.);
#237=ORIENTED_EDGE('',*,*,#166,.F.);
#238=ORIENTED_EDGE('',*,*,#186,.T.);
#239=ORIENTED_EDGE('',*,*,#180,.F.);
#240=ORIENTED_EDGE('',*,*,#186,.F.);
#241=ORIENTED_EDGE('',*,*,#169,.F.);
#242=ORIENTED_EDGE('',*,*,#183,.T.);
#243=ORIENTED_EDGE('',*,*,#175,.F.);
#244=ORIENTED_EDGE('',*,*,#187,.T.);
#245=ORIENTED_EDGE('',*,*,#162,.T.);
#246=ORIENTED_EDGE('',*,*,#187,.F.);
#247=ORIENTED_EDGE('',*,*,#176,.F.);
#248=ORIENTED_EDGE('',*,*,#188,.T.);
#249=ORIENTED_EDGE('',*,*,#163,.T.);
#250=ORIENTED_EDGE('',*,*,#188,.F.);
#251=ORIENTED_EDGE('',*,*,#177,.F.);
#252=ORIENTED_EDGE('',*,*,#189,.T.);
#253=ORIENTED_EDGE('',*,*,#164,.T.);
#254=ORIENTED_EDGE('',*,*,#189,.F.);
#255=ORIENTED_EDGE('',*,*,#178,.F.);
#256=ORIENTED_EDGE('',*,*,#190,.T.);
#257=ORIENTED_EDGE('',*,*,#165,.T.);
#258=ORIENTED_EDGE('',*,*,#190,.F.);
#259=ORIENTED_EDGE('',*,*,#156,.T.);
#260=ORIENTED_EDGE('',*,*,#161,.T.);
#261=ORIENTED_EDGE('',*,*,#173,.T.);
#262=ORIENTED_EDGE('',*,*,#174,.F.);
#263=PLANE('',#301);
#264=PLANE('',#302);
#265=PLANE('',#307);
#266=PLANE('',#308);
#267=PLANE('',#309);
#268=PLANE('',#314);
#269=PLANE('',#315);
#270=PLANE('',#316);
#271=PLANE('',#317);
#272=PLANE('',#322);
#273=ADVANCED_FACE('',(#37),#263,.F.);
#274=ADVANCED_FACE('',(#38,#19,#20,#21,#22,#23),#264,.F.);
#275=ADVANCED_FACE('',(#39),#265,.T.);
#276=ADVANCED_FACE('',(#40),#266,.F.);
#277=ADVANCED_FACE('',(#41,#24,#25,#26,#27,#28),#267,.T.);
#278=ADVANCED_FACE('',(#42),#268,.F.);
#279=ADVANCED_FACE('',(#43),#269,.F.);
#280=ADVANCED_FACE('',(#44),#270,.F.);
#281=ADVANCED_FACE('',(#45),#271,.F.);
#282=ADVANCED_FACE('',(#46),#15,.F.);
#283=ADVANCED_FACE('',(#47),#16,.F.);
#284=ADVANCED_FACE('',(#48),#17,.F.);
#285=ADVANCED_FACE('',(#49),#18,.F.);
#286=ADVANCED_FACE('',(#50),#272,.T.);
#287=CLOSED_SHELL('',(#273,#274,#275,#276,#277,#278,#279,#280,#281,#282,
#283,#284,#285,#286));
#288=DERIVED_UNIT_ELEMENT(#290,1.);
#289=DERIVED_UNIT_ELEMENT(#477,-3.);
#290=(
MASS_UNIT()
NAMED_UNIT(*)
SI_UNIT(.KILO.,.GRAM.)
);
#291=DERIVED_UNIT((#288,#289));
#292=MEASURE_REPRESENTATION_ITEM('density measure',
POSITIVE_RATIO_MEASURE(7850.),#291);
#293=PROPERTY_DEFINITION_REPRESENTATION(#298,#295);
#294=PROPERTY_DEFINITION_REPRESENTATION(#299,#296);
#295=REPRESENTATION('material name',(#297),#474);
#296=REPRESENTATION('density',(#292),#474);
#297=DESCRIPTIVE_REPRESENTATION_ITEM('Steel','Steel');
#298=PROPERTY_DEFINITION('material property','material name',#484);
#299=PROPERTY_DEFINITION('material property','density of part',#484);
#300=AXIS2_PLACEMENT_3D('',#397,#323,#324);
#301=AXIS2_PLACEMENT_3D('',#398,#325,#326);
#302=AXIS2_PLACEMENT_3D('',#407,#331,#332);
#303=AXIS2_PLACEMENT_3D('',#414,#336,#337);
#304=AXIS2_PLACEMENT_3D('',#416,#338,#339);
#305=AXIS2_PLACEMENT_3D('',#418,#340,#341);
#306=AXIS2_PLACEMENT_3D('',#420,#342,#343);
#307=AXIS2_PLACEMENT_3D('',#429,#348,#349);
#308=AXIS2_PLACEMENT_3D('',#433,#352,#353);
#309=AXIS2_PLACEMENT_3D('',#437,#356,#357);
#310=AXIS2_PLACEMENT_3D('',#440,#359,#360);
#311=AXIS2_PLACEMENT_3D('',#442,#361,#362);
#312=AXIS2_PLACEMENT_3D('',#444,#363,#364);
#313=AXIS2_PLACEMENT_3D('',#446,#365,#366);
#314=AXIS2_PLACEMENT_3D('',#455,#371,#372);
#315=AXIS2_PLACEMENT_3D('',#458,#375,#376);
#316=AXIS2_PLACEMENT_3D('',#460,#378,#379);
#317=AXIS2_PLACEMENT_3D('',#462,#381,#382);
#318=AXIS2_PLACEMENT_3D('',#463,#383,#384);
#319=AXIS2_PLACEMENT_3D('',#465,#386,#387);
#320=AXIS2_PLACEMENT_3D('',#467,#389,#390);
#321=AXIS2_PLACEMENT_3D('',#469,#392,#393);
#322=AXIS2_PLACEMENT_3D('',#471,#395,#396);
#323=DIRECTION('axis',(0.,0.,1.));
#324=DIRECTION('refdir',(1.,0.,0.));
#325=DIRECTION('center_axis',(0.,0.,-1.));
#326=DIRECTION('ref_axis',(-1.,0.,0.));
#327=DIRECTION('',(-1.,0.,0.));
#328=DIRECTION('',(0.,-1.,0.));
#329=DIRECTION('',(1.,0.,0.));
#330=DIRECTION('',(0.,1.,0.));
#331=DIRECTION('center_axis',(0.,1.,0.));
#332=DIRECTION('ref_axis',(1.,0.,0.));
#333=DIRECTION('',(-4.62592926639933E-17,0.,1.));
#334=DIRECTION('',(1.,0.,0.));
#335=DIRECTION('',(0.,0.,-1.));
#336=DIRECTION('center_axis',(0.,-1.,0.));
#337=DIRECTION('ref_axis',(1.,0.,0.));
#338=DIRECTION('center_axis',(0.,-1.,0.));
#339=DIRECTION('ref_axis',(1.,0.,0.));
#340=DIRECTION('center_axis',(0.,-1.,0.));
#341=DIRECTION('ref_axis',(1.,0.,0.));
#342=DIRECTION('center_axis',(0.,-1.,0.));
#343=DIRECTION('ref_axis',(1.,0.,0.));
#344=DIRECTION('',(-1.,0.,0.));
#345=DIRECTION('',(0.,0.,1.));
#346=DIRECTION('',(1.,0.,0.));
#347=DIRECTION('',(0.,0.,-1.));
#348=DIRECTION('center_axis',(-1.,0.,-4.62592926639933E-17));
#349=DIRECTION('ref_axis',(-4.62592926639933E-17,0.,1.));
#350=DIRECTION('',(-4.62592926639933E-17,0.,1.));
#351=DIRECTION('',(0.,-1.,0.));
#352=DIRECTION('center_axis',(0.,0.,1.));
#353=DIRECTION('ref_axis',(1.,0.,0.));
#354=DIRECTION('',(-1.,0.,0.));
#355=DIRECTION('',(0.,1.,0.));
#356=DIRECTION('center_axis',(0.,1.,0.));
#357=DIRECTION('ref_axis',(1.,0.,0.));
#358=DIRECTION('',(0.,0.,-1.));
#359=DIRECTION('center_axis',(0.,-1.,0.));
#360=DIRECTION('ref_axis',(1.,0.,0.));
#361=DIRECTION('center_axis',(0.,-1.,0.));
#362=DIRECTION('ref_axis',(1.,0.,0.));
#363=DIRECTION('center_axis',(0.,-1.,0.));
#364=DIRECTION('ref_axis',(1.,0.,0.));
#365=DIRECTION('center_axis',(0.,-1.,0.));
#366=DIRECTION('ref_axis',(1.,0.,0.));
#367=DIRECTION('',(1.,0.,0.));
#368=DIRECTION('',(0.,0.,1.));
#369=DIRECTION('',(-1.,0.,0.));
#370=DIRECTION('',(0.,0.,-1.));
#371=DIRECTION('center_axis',(0.,0.,1.));
#372=DIRECTION('ref_axis',(1.,0.,0.));
#373=DIRECTION('',(0.,1.,0.));
#374=DIRECTION('',(0.,1.,0.));
#375=DIRECTION('center_axis',(-1.,0.,0.));
#376=DIRECTION('ref_axis',(0.,0.,1.));
#377=DIRECTION('',(0.,1.,0.));
#378=DIRECTION('center_axis',(0.,0.,-1.));
#379=DIRECTION('ref_axis',(-1.,0.,0.));
#380=DIRECTION('',(0.,1.,0.));
#381=DIRECTION('center_axis',(1.,0.,0.));
#382=DIRECTION('ref_axis',(0.,0.,-1.));
#383=DIRECTION('center_axis',(0.,1.,0.));
#384=DIRECTION('ref_axis',(1.,0.,0.));
#385=DIRECTION('',(0.,-1.,0.));
#386=DIRECTION('center_axis',(0.,1.,0.));
#387=DIRECTION('ref_axis',(1.,0.,0.));
#388=DIRECTION('',(0.,-1.,0.));
#389=DIRECTION('center_axis',(0.,1.,0.));
#390=DIRECTION('ref_axis',(1.,0.,0.));
#391=DIRECTION('',(0.,-1.,0.));
#392=DIRECTION('center_axis',(0.,1.,0.));
#393=DIRECTION('ref_axis',(1.,0.,0.));
#394=DIRECTION('',(0.,-1.,0.));
#395=DIRECTION('center_axis',(1.,0.,0.));
#396=DIRECTION('ref_axis',(0.,0.,-1.));
#397=CARTESIAN_POINT('',(0.,0.,0.));
#398=CARTESIAN_POINT('Origin',(-4.00000001490116,0.,1.00000001490116));
#399=CARTESIAN_POINT('',(24.0000000149012,0.,1.00000001490116));
#400=CARTESIAN_POINT('',(-4.00000001490116,0.,1.00000001490116));
#401=CARTESIAN_POINT('',(2.99999999254942,0.,1.00000001490116));
#402=CARTESIAN_POINT('',(24.0000000149012,7.,1.00000001490116));
#403=CARTESIAN_POINT('',(24.0000000149012,0.,1.00000001490116));
#404=CARTESIAN_POINT('',(-4.00000001490116,7.,1.00000001490116));
#405=CARTESIAN_POINT('',(2.99999999254942,7.,1.00000001490116));
#406=CARTESIAN_POINT('',(-4.00000001490116,0.,1.00000001490116));
#407=CARTESIAN_POINT('Origin',(10.,0.,-20.));
#408=CARTESIAN_POINT('',(-4.00000001490116,0.,-41.0000000149012));
#409=CARTESIAN_POINT('',(-4.00000001490116,0.,-44.0000000149012));
#410=CARTESIAN_POINT('',(24.0000000149012,0.,-41.0000000149012));
#411=CARTESIAN_POINT('',(17.0000000074506,0.,-41.0000000149012));
#412=CARTESIAN_POINT('',(24.0000000149012,0.,4.00000001490116));
#413=CARTESIAN_POINT('',(16.,0.,-37.5));
#414=CARTESIAN_POINT('Origin',(17.5,0.,-37.5));
#415=CARTESIAN_POINT('',(1.,0.,-2.5));
#416=CARTESIAN_POINT('Origin',(2.5,0.,-2.5));
#417=CARTESIAN_POINT('',(16.,0.,-2.5));
#418=CARTESIAN_POINT('Origin',(17.5,0.,-2.5));
#419=CARTESIAN_POINT('',(0.999999999999999,0.,-37.5));
#420=CARTESIAN_POINT('Origin',(2.5,0.,-37.5));
#421=CARTESIAN_POINT('',(20.5,0.,-34.000000461936));
#422=CARTESIAN_POINT('',(-0.500000000000003,0.,-34.000000461936));
#423=CARTESIAN_POINT('',(15.25,0.,-34.000000461936));
#424=CARTESIAN_POINT('',(-0.499999999999998,0.,-6.));
#425=CARTESIAN_POINT('',(-0.5,0.,-27.));
#426=CARTESIAN_POINT('',(20.5,0.,-6.));
#427=CARTESIAN_POINT('',(4.75,0.,-6.));
#428=CARTESIAN_POINT('',(20.5,0.,-13.));
#429=CARTESIAN_POINT('Origin',(-4.00000001490116,0.,-44.0000000149012));
#430=CARTESIAN_POINT('',(-4.00000001490116,7.,-41.0000000149012));
#431=CARTESIAN_POINT('',(-4.00000001490116,7.,-44.0000000149012));
#432=CARTESIAN_POINT('',(-4.00000001490116,0.,-41.0000000149012));
#433=CARTESIAN_POINT('Origin',(24.0000000149012,0.,-41.0000000149012));
#434=CARTESIAN_POINT('',(24.0000000149012,7.,-41.0000000149012));
#435=CARTESIAN_POINT('',(17.0000000074506,7.,-41.0000000149012));
#436=CARTESIAN_POINT('',(24.0000000149012,0.,-41.0000000149012));
#437=CARTESIAN_POINT('Origin',(10.,7.,-20.));
#438=CARTESIAN_POINT('',(24.0000000149012,7.,4.00000001490116));
#439=CARTESIAN_POINT('',(16.,7.,-37.5));
#440=CARTESIAN_POINT('Origin',(17.5,7.,-37.5));
#441=CARTESIAN_POINT('',(1.,7.,-2.5));
#442=CARTESIAN_POINT('Origin',(2.5,7.,-2.5));
#443=CARTESIAN_POINT('',(16.,7.,-2.5));
#444=CARTESIAN_POINT('Origin',(17.5,7.,-2.5));
#445=CARTESIAN_POINT('',(0.999999999999999,7.,-37.5));
#446=CARTESIAN_POINT('Origin',(2.5,7.,-37.5));
#447=CARTESIAN_POINT('',(-0.500000000000003,7.,-34.000000461936));
#448=CARTESIAN_POINT('',(20.5,7.,-34.000000461936));
#449=CARTESIAN_POINT('',(15.25,7.,-34.000000461936));
#450=CARTESIAN_POINT('',(20.5,7.,-6.));
#451=CARTESIAN_POINT('',(20.5,7.,-13.));
#452=CARTESIAN_POINT('',(-0.499999999999998,7.,-6.));
#453=CARTESIAN_POINT('',(4.75,7.,-6.));
#454=CARTESIAN_POINT('',(-0.5,7.,-27.));
#455=CARTESIAN_POINT('Origin',(-0.499999999999998,0.,-6.));
#456=CARTESIAN_POINT('',(20.5,0.,-6.));
#457=CARTESIAN_POINT('',(-0.499999999999998,0.,-6.));
#458=CARTESIAN_POINT('Origin',(-0.5,0.,-34.));
#459=CARTESIAN_POINT('',(-0.500000000000003,0.,-34.000000461936));
#460=CARTESIAN_POINT('Origin',(20.5,0.,-34.000000461936));
#461=CARTESIAN_POINT('',(20.5,0.,-34.000000461936));
#462=CARTESIAN_POINT('Origin',(20.5,0.,-6.));
#463=CARTESIAN_POINT('Origin',(17.5,0.,-37.5));
#464=CARTESIAN_POINT('',(16.,0.,-37.5));
#465=CARTESIAN_POINT('Origin',(2.5,0.,-2.5));
#466=CARTESIAN_POINT('',(1.,0.,-2.5));
#467=CARTESIAN_POINT('Origin',(17.5,0.,-2.5));
#468=CARTESIAN_POINT('',(16.,0.,-2.5));
#469=CARTESIAN_POINT('Origin',(2.5,0.,-37.5));
#470=CARTESIAN_POINT('',(0.999999999999999,0.,-37.5));
#471=CARTESIAN_POINT('Origin',(24.0000000149012,0.,4.00000001490116));
#472=UNCERTAINTY_MEASURE_WITH_UNIT(LENGTH_MEASURE(0.01),#476,
'DISTANCE_ACCURACY_VALUE',
'Maximum model space distance between geometric entities at asserted c
onnectivities');
#473=UNCERTAINTY_MEASURE_WITH_UNIT(LENGTH_MEASURE(0.01),#476,
'DISTANCE_ACCURACY_VALUE',
'Maximum model space distance between geometric entities at asserted c
onnectivities');
#474=(
GEOMETRIC_REPRESENTATION_CONTEXT(3)
GLOBAL_UNCERTAINTY_ASSIGNED_CONTEXT((#472))
GLOBAL_UNIT_ASSIGNED_CONTEXT((#476,#478,#479))
REPRESENTATION_CONTEXT('','3D')
);
#475=(
GEOMETRIC_REPRESENTATION_CONTEXT(3)
GLOBAL_UNCERTAINTY_ASSIGNED_CONTEXT((#473))
GLOBAL_UNIT_ASSIGNED_CONTEXT((#476,#478,#479))
REPRESENTATION_CONTEXT('','3D')
);
#476=(
LENGTH_UNIT()
NAMED_UNIT(*)
SI_UNIT(.MILLI.,.METRE.)
);
#477=(
LENGTH_UNIT()
NAMED_UNIT(*)
SI_UNIT($,.METRE.)
);
#478=(
NAMED_UNIT(*)
PLANE_ANGLE_UNIT()
SI_UNIT($,.RADIAN.)
);
#479=(
NAMED_UNIT(*)
SI_UNIT($,.STERADIAN.)
SOLID_ANGLE_UNIT()
);
#480=SHAPE_DEFINITION_REPRESENTATION(#481,#482);
#481=PRODUCT_DEFINITION_SHAPE('',$,#484);
#482=SHAPE_REPRESENTATION('',(#300),#474);
#483=PRODUCT_DEFINITION_CONTEXT('part definition',#488,'design');
#484=PRODUCT_DEFINITION('booster7mm','booster7mm v5',#485,#483);
#485=PRODUCT_DEFINITION_FORMATION('',$,#490);
#486=PRODUCT_RELATED_PRODUCT_CATEGORY('booster7mm v5','booster7mm v5',(#490));
#487=APPLICATION_PROTOCOL_DEFINITION('international standard',
'ap242_managed_model_based_3d_engineering',2011,#488);
#488=APPLICATION_CONTEXT('Managed model based 3d engineering');
#489=PRODUCT_CONTEXT('part definition',#488,'mechanical');
#490=PRODUCT('booster7mm','booster7mm v5',$,(#489));
#491=PRESENTATION_STYLE_ASSIGNMENT((#492));
#492=SURFACE_STYLE_USAGE(.BOTH.,#493);
#493=SURFACE_SIDE_STYLE('',(#494));
#494=SURFACE_STYLE_FILL_AREA(#495);
#495=FILL_AREA_STYLE('Steel - Satin',(#496));
#496=FILL_AREA_STYLE_COLOUR('Steel - Satin',#497);
#497=COLOUR_RGB('Steel - Satin',0.627450980392157,0.627450980392157,0.627450980392157);
ENDSEC;
END-ISO-10303-21;
