ISO-10303-21;
HEADER;
/* Generated by software containing ST-Developer
 * from STEP Tools, Inc. (www.steptools.com) 
 */

FILE_DESCRIPTION(
/* description */ (''),
/* implementation_level */ '2;1');

FILE_NAME(
/* name */ '1224_bottom.step',
/* time_stamp */ '2025-12-24T14:10:21-08:00',
/* author */ (''),
/* organization */ (''),
/* preprocessor_version */ 'ST-DEVELOPER v20.1',
/* originating_system */ 'Autodesk Translation Framework v14.21.0.0',
/* authorisation */ '');

FILE_SCHEMA (('AUTOMOTIVE_DESIGN { 1 0 10303 214 3 1 1 }'));
ENDSEC;

DATA;
#10=MECHANICAL_DESIGN_GEOMETRIC_PRESENTATION_REPRESENTATION('',(#17),#945);
#11=ITEM_DEFINED_TRANSFORMATION($,$,#534,#604);
#12=(
REPRESENTATION_RELATIONSHIP($,$,#955,#954)
REPRESENTATION_RELATIONSHIP_WITH_TRANSFORMATION(#11)
SHAPE_REPRESENTATION_RELATIONSHIP()
);
#13=CONTEXT_DEPENDENT_SHAPE_REPRESENTATION(#12,#953);
#14=NEXT_ASSEMBLY_USAGE_OCCURRENCE(
'REV1114_barrelbottom_for_6mmdepth_rotary_forex v1:1',
'REV1114_barrelbottom_for_6mmdepth_rotary_forex v1:1',
'REV1114_barrelbottom_for_6mmdepth_rotary_forex v1:1',#957,#958,
'REV1114_barrelbottom_for_6mmdepth_rotary_forex v1:1');
#15=SHAPE_REPRESENTATION_RELATIONSHIP('SRR','None',#955,#16);
#16=ADVANCED_BREP_SHAPE_REPRESENTATION('',(#18),#944);
#17=STYLED_ITEM('',(#969),#18);
#18=MANIFOLD_SOLID_BREP('Body1',#532);
#19=LINE('',#807,#53);
#20=LINE('',#810,#54);
#21=LINE('',#817,#55);
#22=LINE('',#819,#56);
#23=LINE('',#821,#57);
#24=LINE('',#823,#58);
#25=LINE('',#849,#59);
#26=LINE('',#851,#60);
#27=LINE('',#853,#61);
#28=LINE('',#855,#62);
#29=LINE('',#863,#63);
#30=LINE('',#866,#64);
#31=LINE('',#868,#65);
#32=LINE('',#869,#66);
#33=LINE('',#872,#67);
#34=LINE('',#873,#68);
#35=LINE('',#875,#69);
#36=LINE('',#906,#70);
#37=LINE('',#907,#71);
#38=LINE('',#909,#72);
#39=LINE('',#910,#73);
#40=LINE('',#912,#74);
#41=LINE('',#913,#75);
#42=LINE('',#915,#76);
#43=LINE('',#918,#77);
#44=LINE('',#920,#78);
#45=LINE('',#921,#79);
#46=LINE('',#923,#80);
#47=LINE('',#926,#81);
#48=LINE('',#927,#82);
#49=LINE('',#931,#83);
#50=LINE('',#933,#84);
#51=LINE('',#935,#85);
#52=LINE('',#938,#86);
#53=VECTOR('',#633,10.);
#54=VECTOR('',#636,10.);
#55=VECTOR('',#643,10.);
#56=VECTOR('',#644,10.);
#57=VECTOR('',#645,10.);
#58=VECTOR('',#646,10.);
#59=VECTOR('',#673,10.);
#60=VECTOR('',#674,10.);
#61=VECTOR('',#675,10.);
#62=VECTOR('',#676,10.);
#63=VECTOR('',#685,10.);
#64=VECTOR('',#688,10.);
#65=VECTOR('',#689,10.);
#66=VECTOR('',#690,10.);
#67=VECTOR('',#693,10.);
#68=VECTOR('',#694,10.);
#69=VECTOR('',#695,10.);
#70=VECTOR('',#732,10.);
#71=VECTOR('',#733,10.);
#72=VECTOR('',#736,10.);
#73=VECTOR('',#737,10.);
#74=VECTOR('',#740,10.);
#75=VECTOR('',#741,10.);
#76=VECTOR('',#744,10.);
#77=VECTOR('',#749,10.);
#78=VECTOR('',#752,10.);
#79=VECTOR('',#753,10.);
#80=VECTOR('',#756,1.55);
#81=VECTOR('',#761,10.);
#82=VECTOR('',#762,10.);
#83=VECTOR('',#769,1.55);
#84=VECTOR('',#772,1.55);
#85=VECTOR('',#775,10.);
#86=VECTOR('',#780,8.5);
#87=CYLINDRICAL_SURFACE('',#546,15.75);
#88=CYLINDRICAL_SURFACE('',#567,15.25);
#89=CYLINDRICAL_SURFACE('',#569,15.25);
#90=CYLINDRICAL_SURFACE('',#587,6.00000000000003);
#91=CYLINDRICAL_SURFACE('',#588,22.6605277280683);
#92=CYLINDRICAL_SURFACE('',#589,1.713);
#93=CYLINDRICAL_SURFACE('',#590,30.2293494128549);
#94=CYLINDRICAL_SURFACE('',#591,1.713);
#95=CYLINDRICAL_SURFACE('',#592,22.6605277280683);
#96=CYLINDRICAL_SURFACE('',#593,12.1875);
#97=CYLINDRICAL_SURFACE('',#594,1.55);
#98=CYLINDRICAL_SURFACE('',#595,47.4166505871451);
#99=CYLINDRICAL_SURFACE('',#597,4.);
#100=CYLINDRICAL_SURFACE('',#599,1.55);
#101=CYLINDRICAL_SURFACE('',#600,1.55);
#102=CYLINDRICAL_SURFACE('',#603,8.5);
#103=FACE_BOUND('',#139,.T.);
#104=FACE_BOUND('',#143,.T.);
#105=FACE_BOUND('',#144,.T.);
#106=FACE_BOUND('',#146,.T.);
#107=FACE_BOUND('',#148,.T.);
#108=FACE_BOUND('',#149,.T.);
#109=FACE_BOUND('',#153,.T.);
#110=FACE_BOUND('',#155,.T.);
#111=FACE_OUTER_BOUND('',#138,.T.);
#112=FACE_OUTER_BOUND('',#140,.T.);
#113=FACE_OUTER_BOUND('',#141,.T.);
#114=FACE_OUTER_BOUND('',#142,.T.);
#115=FACE_OUTER_BOUND('',#145,.T.);
#116=FACE_OUTER_BOUND('',#147,.T.);
#117=FACE_OUTER_BOUND('',#150,.T.);
#118=FACE_OUTER_BOUND('',#151,.T.);
#119=FACE_OUTER_BOUND('',#152,.T.);
#120=FACE_OUTER_BOUND('',#154,.T.);
#121=FACE_OUTER_BOUND('',#156,.T.);
#122=FACE_OUTER_BOUND('',#157,.T.);
#123=FACE_OUTER_BOUND('',#158,.T.);
#124=FACE_OUTER_BOUND('',#159,.T.);
#125=FACE_OUTER_BOUND('',#160,.T.);
#126=FACE_OUTER_BOUND('',#161,.T.);
#127=FACE_OUTER_BOUND('',#162,.T.);
#128=FACE_OUTER_BOUND('',#163,.T.);
#129=FACE_OUTER_BOUND('',#164,.T.);
#130=FACE_OUTER_BOUND('',#165,.T.);
#131=FACE_OUTER_BOUND('',#166,.T.);
#132=FACE_OUTER_BOUND('',#167,.T.);
#133=FACE_OUTER_BOUND('',#168,.T.);
#134=FACE_OUTER_BOUND('',#169,.T.);
#135=FACE_OUTER_BOUND('',#170,.T.);
#136=FACE_OUTER_BOUND('',#171,.T.);
#137=FACE_OUTER_BOUND('',#172,.T.);
#138=EDGE_LOOP('',(#342,#343));
#139=EDGE_LOOP('',(#344));
#140=EDGE_LOOP('',(#345,#346,#347,#348,#349,#350));
#141=EDGE_LOOP('',(#351,#352,#353,#354));
#142=EDGE_LOOP('',(#355,#356,#357,#358,#359,#360,#361,#362,#363));
#143=EDGE_LOOP('',(#364));
#144=EDGE_LOOP('',(#365));
#145=EDGE_LOOP('',(#366,#367,#368,#369));
#146=EDGE_LOOP('',(#370));
#147=EDGE_LOOP('',(#371,#372,#373,#374,#375,#376,#377));
#148=EDGE_LOOP('',(#378));
#149=EDGE_LOOP('',(#379));
#150=EDGE_LOOP('',(#380,#381,#382,#383,#384,#385,#386));
#151=EDGE_LOOP('',(#387,#388,#389,#390,#391,#392));
#152=EDGE_LOOP('',(#393,#394,#395,#396,#397,#398,#399,#400));
#153=EDGE_LOOP('',(#401));
#154=EDGE_LOOP('',(#402,#403,#404,#405,#406,#407));
#155=EDGE_LOOP('',(#408));
#156=EDGE_LOOP('',(#409,#410,#411,#412));
#157=EDGE_LOOP('',(#413,#414,#415,#416,#417,#418,#419,#420,#421,#422));
#158=EDGE_LOOP('',(#423,#424,#425,#426));
#159=EDGE_LOOP('',(#427,#428,#429,#430));
#160=EDGE_LOOP('',(#431,#432,#433,#434));
#161=EDGE_LOOP('',(#435,#436,#437,#438,#439,#440,#441,#442,#443,#444));
#162=EDGE_LOOP('',(#445,#446,#447,#448));
#163=EDGE_LOOP('',(#449,#450,#451,#452));
#164=EDGE_LOOP('',(#453,#454,#455,#456));
#165=EDGE_LOOP('',(#457,#458,#459,#460));
#166=EDGE_LOOP('',(#461,#462,#463,#464,#465,#466,#467,#468));
#167=EDGE_LOOP('',(#469,#470,#471,#472));
#168=EDGE_LOOP('',(#473,#474,#475,#476));
#169=EDGE_LOOP('',(#477,#478,#479,#480));
#170=EDGE_LOOP('',(#481,#482,#483,#484));
#171=EDGE_LOOP('',(#485,#486,#487,#488,#489));
#172=EDGE_LOOP('',(#490,#491,#492,#493));
#173=CIRCLE('',#536,4.);
#174=CIRCLE('',#537,12.1875);
#175=CIRCLE('',#538,8.5);
#176=CIRCLE('',#540,4.);
#177=CIRCLE('',#541,12.1875);
#178=CIRCLE('',#542,4.);
#179=CIRCLE('',#543,22.6605277280683);
#180=CIRCLE('',#544,15.75);
#181=CIRCLE('',#545,22.6605277280683);
#182=CIRCLE('',#547,15.75);
#183=CIRCLE('',#549,22.6605277280683);
#184=CIRCLE('',#550,15.25);
#185=CIRCLE('',#551,15.2500000000001);
#186=CIRCLE('',#552,22.6605277280683);
#187=CIRCLE('',#553,1.55);
#188=CIRCLE('',#554,1.55);
#189=CIRCLE('',#556,22.6605277280613);
#190=CIRCLE('',#557,6.00000000000003);
#191=CIRCLE('',#558,22.6605277280687);
#192=CIRCLE('',#559,4.);
#193=CIRCLE('',#560,1.55);
#194=CIRCLE('',#562,47.4166505871451);
#195=CIRCLE('',#563,15.25);
#196=CIRCLE('',#564,15.25);
#197=CIRCLE('',#565,1.55);
#198=CIRCLE('',#566,1.55);
#199=CIRCLE('',#568,15.25);
#200=CIRCLE('',#570,15.25);
#201=CIRCLE('',#572,1.713);
#202=CIRCLE('',#573,22.6605277280613);
#203=CIRCLE('',#574,47.4166505871451);
#204=CIRCLE('',#575,22.6605277280687);
#205=CIRCLE('',#576,1.713);
#206=CIRCLE('',#577,30.2293494128549);
#207=CIRCLE('',#578,8.5);
#208=CIRCLE('',#580,1.713);
#209=CIRCLE('',#581,30.2293494128549);
#210=CIRCLE('',#582,1.713);
#211=CIRCLE('',#583,22.6605277280683);
#212=CIRCLE('',#584,6.00000000000003);
#213=CIRCLE('',#585,22.6605277280683);
#214=CIRCLE('',#586,1.55);
#215=VERTEX_POINT('',#786);
#216=VERTEX_POINT('',#787);
#217=VERTEX_POINT('',#790);
#218=VERTEX_POINT('',#793);
#219=VERTEX_POINT('',#794);
#220=VERTEX_POINT('',#796);
#221=VERTEX_POINT('',#798);
#222=VERTEX_POINT('',#800);
#223=VERTEX_POINT('',#802);
#224=VERTEX_POINT('',#806);
#225=VERTEX_POINT('',#808);
#226=VERTEX_POINT('',#812);
#227=VERTEX_POINT('',#814);
#228=VERTEX_POINT('',#816);
#229=VERTEX_POINT('',#818);
#230=VERTEX_POINT('',#820);
#231=VERTEX_POINT('',#822);
#232=VERTEX_POINT('',#824);
#233=VERTEX_POINT('',#827);
#234=VERTEX_POINT('',#829);
#235=VERTEX_POINT('',#832);
#236=VERTEX_POINT('',#833);
#237=VERTEX_POINT('',#835);
#238=VERTEX_POINT('',#837);
#239=VERTEX_POINT('',#840);
#240=VERTEX_POINT('',#843);
#241=VERTEX_POINT('',#844);
#242=VERTEX_POINT('',#846);
#243=VERTEX_POINT('',#848);
#244=VERTEX_POINT('',#850);
#245=VERTEX_POINT('',#852);
#246=VERTEX_POINT('',#854);
#247=VERTEX_POINT('',#857);
#248=VERTEX_POINT('',#859);
#249=VERTEX_POINT('',#862);
#250=VERTEX_POINT('',#864);
#251=VERTEX_POINT('',#867);
#252=VERTEX_POINT('',#871);
#253=VERTEX_POINT('',#874);
#254=VERTEX_POINT('',#878);
#255=VERTEX_POINT('',#879);
#256=VERTEX_POINT('',#883);
#257=VERTEX_POINT('',#885);
#258=VERTEX_POINT('',#888);
#259=VERTEX_POINT('',#891);
#260=VERTEX_POINT('',#892);
#261=VERTEX_POINT('',#894);
#262=VERTEX_POINT('',#896);
#263=VERTEX_POINT('',#898);
#264=VERTEX_POINT('',#900);
#265=VERTEX_POINT('',#903);
#266=EDGE_CURVE('',#215,#216,#173,.T.);
#267=EDGE_CURVE('',#216,#215,#174,.T.);
#268=EDGE_CURVE('',#217,#217,#175,.T.);
#269=EDGE_CURVE('',#218,#219,#176,.T.);
#270=EDGE_CURVE('',#220,#219,#177,.T.);
#271=EDGE_CURVE('',#220,#221,#178,.T.);
#272=EDGE_CURVE('',#221,#222,#179,.T.);
#273=EDGE_CURVE('',#223,#222,#180,.T.);
#274=EDGE_CURVE('',#223,#218,#181,.T.);
#275=EDGE_CURVE('',#222,#224,#19,.T.);
#276=EDGE_CURVE('',#225,#224,#182,.T.);
#277=EDGE_CURVE('',#223,#225,#20,.T.);
#278=EDGE_CURVE('',#224,#226,#183,.T.);
#279=EDGE_CURVE('',#226,#227,#184,.T.);
#280=EDGE_CURVE('',#227,#228,#21,.T.);
#281=EDGE_CURVE('',#228,#229,#22,.T.);
#282=EDGE_CURVE('',#229,#230,#23,.T.);
#283=EDGE_CURVE('',#230,#231,#24,.T.);
#284=EDGE_CURVE('',#231,#232,#185,.T.);
#285=EDGE_CURVE('',#232,#225,#186,.T.);
#286=EDGE_CURVE('',#233,#233,#187,.T.);
#287=EDGE_CURVE('',#234,#234,#188,.T.);
#288=EDGE_CURVE('',#235,#236,#189,.T.);
#289=EDGE_CURVE('',#236,#237,#190,.T.);
#290=EDGE_CURVE('',#237,#238,#191,.T.);
#291=EDGE_CURVE('',#235,#238,#192,.T.);
#292=EDGE_CURVE('',#239,#239,#193,.T.);
#293=EDGE_CURVE('',#240,#241,#194,.T.);
#294=EDGE_CURVE('',#242,#240,#195,.T.);
#295=EDGE_CURVE('',#243,#242,#25,.T.);
#296=EDGE_CURVE('',#244,#243,#26,.T.);
#297=EDGE_CURVE('',#245,#244,#27,.T.);
#298=EDGE_CURVE('',#246,#245,#28,.T.);
#299=EDGE_CURVE('',#241,#246,#196,.T.);
#300=EDGE_CURVE('',#247,#247,#197,.T.);
#301=EDGE_CURVE('',#248,#248,#198,.T.);
#302=EDGE_CURVE('',#240,#249,#29,.T.);
#303=EDGE_CURVE('',#250,#249,#199,.T.);
#304=EDGE_CURVE('',#250,#232,#30,.T.);
#305=EDGE_CURVE('',#251,#231,#31,.T.);
#306=EDGE_CURVE('',#251,#242,#32,.T.);
#307=EDGE_CURVE('',#252,#241,#33,.T.);
#308=EDGE_CURVE('',#227,#246,#34,.T.);
#309=EDGE_CURVE('',#226,#253,#35,.T.);
#310=EDGE_CURVE('',#252,#253,#200,.T.);
#311=EDGE_CURVE('',#254,#255,#201,.T.);
#312=EDGE_CURVE('',#255,#250,#202,.T.);
#313=EDGE_CURVE('',#249,#252,#203,.T.);
#314=EDGE_CURVE('',#253,#256,#204,.T.);
#315=EDGE_CURVE('',#256,#257,#205,.T.);
#316=EDGE_CURVE('',#257,#254,#206,.T.);
#317=EDGE_CURVE('',#258,#258,#207,.T.);
#318=EDGE_CURVE('',#259,#260,#208,.F.);
#319=EDGE_CURVE('',#261,#259,#209,.F.);
#320=EDGE_CURVE('',#262,#261,#210,.F.);
#321=EDGE_CURVE('',#263,#262,#211,.T.);
#322=EDGE_CURVE('',#264,#263,#212,.T.);
#323=EDGE_CURVE('',#260,#264,#213,.T.);
#324=EDGE_CURVE('',#265,#265,#214,.T.);
#325=EDGE_CURVE('',#263,#237,#36,.T.);
#326=EDGE_CURVE('',#264,#236,#37,.T.);
#327=EDGE_CURVE('',#262,#256,#38,.T.);
#328=EDGE_CURVE('',#221,#238,#39,.T.);
#329=EDGE_CURVE('',#255,#260,#40,.T.);
#330=EDGE_CURVE('',#254,#259,#41,.T.);
#331=EDGE_CURVE('',#257,#261,#42,.T.);
#332=EDGE_CURVE('',#235,#218,#43,.T.);
#333=EDGE_CURVE('',#219,#215,#44,.T.);
#334=EDGE_CURVE('',#216,#220,#45,.T.);
#335=EDGE_CURVE('',#239,#265,#46,.T.);
#336=EDGE_CURVE('',#244,#229,#47,.T.);
#337=EDGE_CURVE('',#245,#228,#48,.T.);
#338=EDGE_CURVE('',#248,#234,#49,.T.);
#339=EDGE_CURVE('',#247,#233,#50,.T.);
#340=EDGE_CURVE('',#243,#230,#51,.T.);
#341=EDGE_CURVE('',#258,#217,#52,.T.);
#342=ORIENTED_EDGE('',*,*,#266,.T.);
#343=ORIENTED_EDGE('',*,*,#267,.T.);
#344=ORIENTED_EDGE('',*,*,#268,.T.);
#345=ORIENTED_EDGE('',*,*,#269,.T.);
#346=ORIENTED_EDGE('',*,*,#270,.F.);
#347=ORIENTED_EDGE('',*,*,#271,.T.);
#348=ORIENTED_EDGE('',*,*,#272,.T.);
#349=ORIENTED_EDGE('',*,*,#273,.F.);
#350=ORIENTED_EDGE('',*,*,#274,.T.);
#351=ORIENTED_EDGE('',*,*,#273,.T.);
#352=ORIENTED_EDGE('',*,*,#275,.T.);
#353=ORIENTED_EDGE('',*,*,#276,.F.);
#354=ORIENTED_EDGE('',*,*,#277,.F.);
#355=ORIENTED_EDGE('',*,*,#276,.T.);
#356=ORIENTED_EDGE('',*,*,#278,.T.);
#357=ORIENTED_EDGE('',*,*,#279,.T.);
#358=ORIENTED_EDGE('',*,*,#280,.T.);
#359=ORIENTED_EDGE('',*,*,#281,.T.);
#360=ORIENTED_EDGE('',*,*,#282,.T.);
#361=ORIENTED_EDGE('',*,*,#283,.T.);
#362=ORIENTED_EDGE('',*,*,#284,.T.);
#363=ORIENTED_EDGE('',*,*,#285,.T.);
#364=ORIENTED_EDGE('',*,*,#286,.T.);
#365=ORIENTED_EDGE('',*,*,#287,.T.);
#366=ORIENTED_EDGE('',*,*,#288,.T.);
#367=ORIENTED_EDGE('',*,*,#289,.T.);
#368=ORIENTED_EDGE('',*,*,#290,.T.);
#369=ORIENTED_EDGE('',*,*,#291,.F.);
#370=ORIENTED_EDGE('',*,*,#292,.T.);
#371=ORIENTED_EDGE('',*,*,#293,.F.);
#372=ORIENTED_EDGE('',*,*,#294,.F.);
#373=ORIENTED_EDGE('',*,*,#295,.F.);
#374=ORIENTED_EDGE('',*,*,#296,.F.);
#375=ORIENTED_EDGE('',*,*,#297,.F.);
#376=ORIENTED_EDGE('',*,*,#298,.F.);
#377=ORIENTED_EDGE('',*,*,#299,.F.);
#378=ORIENTED_EDGE('',*,*,#300,.F.);
#379=ORIENTED_EDGE('',*,*,#301,.F.);
#380=ORIENTED_EDGE('',*,*,#294,.T.);
#381=ORIENTED_EDGE('',*,*,#302,.T.);
#382=ORIENTED_EDGE('',*,*,#303,.F.);
#383=ORIENTED_EDGE('',*,*,#304,.T.);
#384=ORIENTED_EDGE('',*,*,#284,.F.);
#385=ORIENTED_EDGE('',*,*,#305,.F.);
#386=ORIENTED_EDGE('',*,*,#306,.T.);
#387=ORIENTED_EDGE('',*,*,#307,.T.);
#388=ORIENTED_EDGE('',*,*,#299,.T.);
#389=ORIENTED_EDGE('',*,*,#308,.F.);
#390=ORIENTED_EDGE('',*,*,#279,.F.);
#391=ORIENTED_EDGE('',*,*,#309,.T.);
#392=ORIENTED_EDGE('',*,*,#310,.F.);
#393=ORIENTED_EDGE('',*,*,#311,.T.);
#394=ORIENTED_EDGE('',*,*,#312,.T.);
#395=ORIENTED_EDGE('',*,*,#303,.T.);
#396=ORIENTED_EDGE('',*,*,#313,.T.);
#397=ORIENTED_EDGE('',*,*,#310,.T.);
#398=ORIENTED_EDGE('',*,*,#314,.T.);
#399=ORIENTED_EDGE('',*,*,#315,.T.);
#400=ORIENTED_EDGE('',*,*,#316,.T.);
#401=ORIENTED_EDGE('',*,*,#317,.T.);
#402=ORIENTED_EDGE('',*,*,#318,.F.);
#403=ORIENTED_EDGE('',*,*,#319,.F.);
#404=ORIENTED_EDGE('',*,*,#320,.F.);
#405=ORIENTED_EDGE('',*,*,#321,.F.);
#406=ORIENTED_EDGE('',*,*,#322,.F.);
#407=ORIENTED_EDGE('',*,*,#323,.F.);
#408=ORIENTED_EDGE('',*,*,#324,.F.);
#409=ORIENTED_EDGE('',*,*,#322,.T.);
#410=ORIENTED_EDGE('',*,*,#325,.T.);
#411=ORIENTED_EDGE('',*,*,#289,.F.);
#412=ORIENTED_EDGE('',*,*,#326,.F.);
#413=ORIENTED_EDGE('',*,*,#321,.T.);
#414=ORIENTED_EDGE('',*,*,#327,.T.);
#415=ORIENTED_EDGE('',*,*,#314,.F.);
#416=ORIENTED_EDGE('',*,*,#309,.F.);
#417=ORIENTED_EDGE('',*,*,#278,.F.);
#418=ORIENTED_EDGE('',*,*,#275,.F.);
#419=ORIENTED_EDGE('',*,*,#272,.F.);
#420=ORIENTED_EDGE('',*,*,#328,.T.);
#421=ORIENTED_EDGE('',*,*,#290,.F.);
#422=ORIENTED_EDGE('',*,*,#325,.F.);
#423=ORIENTED_EDGE('',*,*,#329,.F.);
#424=ORIENTED_EDGE('',*,*,#311,.F.);
#425=ORIENTED_EDGE('',*,*,#330,.T.);
#426=ORIENTED_EDGE('',*,*,#318,.T.);
#427=ORIENTED_EDGE('',*,*,#330,.F.);
#428=ORIENTED_EDGE('',*,*,#316,.F.);
#429=ORIENTED_EDGE('',*,*,#331,.T.);
#430=ORIENTED_EDGE('',*,*,#319,.T.);
#431=ORIENTED_EDGE('',*,*,#331,.F.);
#432=ORIENTED_EDGE('',*,*,#315,.F.);
#433=ORIENTED_EDGE('',*,*,#327,.F.);
#434=ORIENTED_EDGE('',*,*,#320,.T.);
#435=ORIENTED_EDGE('',*,*,#323,.T.);
#436=ORIENTED_EDGE('',*,*,#326,.T.);
#437=ORIENTED_EDGE('',*,*,#288,.F.);
#438=ORIENTED_EDGE('',*,*,#332,.T.);
#439=ORIENTED_EDGE('',*,*,#274,.F.);
#440=ORIENTED_EDGE('',*,*,#277,.T.);
#441=ORIENTED_EDGE('',*,*,#285,.F.);
#442=ORIENTED_EDGE('',*,*,#304,.F.);
#443=ORIENTED_EDGE('',*,*,#312,.F.);
#444=ORIENTED_EDGE('',*,*,#329,.T.);
#445=ORIENTED_EDGE('',*,*,#270,.T.);
#446=ORIENTED_EDGE('',*,*,#333,.T.);
#447=ORIENTED_EDGE('',*,*,#267,.F.);
#448=ORIENTED_EDGE('',*,*,#334,.T.);
#449=ORIENTED_EDGE('',*,*,#292,.F.);
#450=ORIENTED_EDGE('',*,*,#335,.T.);
#451=ORIENTED_EDGE('',*,*,#324,.T.);
#452=ORIENTED_EDGE('',*,*,#335,.F.);
#453=ORIENTED_EDGE('',*,*,#302,.F.);
#454=ORIENTED_EDGE('',*,*,#293,.T.);
#455=ORIENTED_EDGE('',*,*,#307,.F.);
#456=ORIENTED_EDGE('',*,*,#313,.F.);
#457=ORIENTED_EDGE('',*,*,#297,.T.);
#458=ORIENTED_EDGE('',*,*,#336,.T.);
#459=ORIENTED_EDGE('',*,*,#281,.F.);
#460=ORIENTED_EDGE('',*,*,#337,.F.);
#461=ORIENTED_EDGE('',*,*,#291,.T.);
#462=ORIENTED_EDGE('',*,*,#328,.F.);
#463=ORIENTED_EDGE('',*,*,#271,.F.);
#464=ORIENTED_EDGE('',*,*,#334,.F.);
#465=ORIENTED_EDGE('',*,*,#266,.F.);
#466=ORIENTED_EDGE('',*,*,#333,.F.);
#467=ORIENTED_EDGE('',*,*,#269,.F.);
#468=ORIENTED_EDGE('',*,*,#332,.F.);
#469=ORIENTED_EDGE('',*,*,#298,.T.);
#470=ORIENTED_EDGE('',*,*,#337,.T.);
#471=ORIENTED_EDGE('',*,*,#280,.F.);
#472=ORIENTED_EDGE('',*,*,#308,.T.);
#473=ORIENTED_EDGE('',*,*,#301,.T.);
#474=ORIENTED_EDGE('',*,*,#338,.T.);
#475=ORIENTED_EDGE('',*,*,#287,.F.);
#476=ORIENTED_EDGE('',*,*,#338,.F.);
#477=ORIENTED_EDGE('',*,*,#300,.T.);
#478=ORIENTED_EDGE('',*,*,#339,.T.);
#479=ORIENTED_EDGE('',*,*,#286,.F.);
#480=ORIENTED_EDGE('',*,*,#339,.F.);
#481=ORIENTED_EDGE('',*,*,#296,.T.);
#482=ORIENTED_EDGE('',*,*,#340,.T.);
#483=ORIENTED_EDGE('',*,*,#282,.F.);
#484=ORIENTED_EDGE('',*,*,#336,.F.);
#485=ORIENTED_EDGE('',*,*,#295,.T.);
#486=ORIENTED_EDGE('',*,*,#306,.F.);
#487=ORIENTED_EDGE('',*,*,#305,.T.);
#488=ORIENTED_EDGE('',*,*,#283,.F.);
#489=ORIENTED_EDGE('',*,*,#340,.F.);
#490=ORIENTED_EDGE('',*,*,#317,.F.);
#491=ORIENTED_EDGE('',*,*,#341,.T.);
#492=ORIENTED_EDGE('',*,*,#268,.F.);
#493=ORIENTED_EDGE('',*,*,#341,.F.);
#494=PLANE('',#535);
#495=PLANE('',#539);
#496=PLANE('',#548);
#497=PLANE('',#555);
#498=PLANE('',#561);
#499=PLANE('',#571);
#500=PLANE('',#579);
#501=PLANE('',#596);
#502=PLANE('',#598);
#503=PLANE('',#601);
#504=PLANE('',#602);
#505=ADVANCED_FACE('',(#111,#103),#494,.T.);
#506=ADVANCED_FACE('',(#112),#495,.T.);
#507=ADVANCED_FACE('',(#113),#87,.F.);
#508=ADVANCED_FACE('',(#114,#104,#105),#496,.T.);
#509=ADVANCED_FACE('',(#115,#106),#497,.T.);
#510=ADVANCED_FACE('',(#116,#107,#108),#498,.T.);
#511=ADVANCED_FACE('',(#117),#88,.T.);
#512=ADVANCED_FACE('',(#118),#89,.T.);
#513=ADVANCED_FACE('',(#119,#109),#499,.F.);
#514=ADVANCED_FACE('',(#120,#110),#500,.F.);
#515=ADVANCED_FACE('',(#121),#90,.T.);
#516=ADVANCED_FACE('',(#122),#91,.T.);
#517=ADVANCED_FACE('',(#123),#92,.F.);
#518=ADVANCED_FACE('',(#124),#93,.F.);
#519=ADVANCED_FACE('',(#125),#94,.F.);
#520=ADVANCED_FACE('',(#126),#95,.T.);
#521=ADVANCED_FACE('',(#127),#96,.T.);
#522=ADVANCED_FACE('',(#128),#97,.F.);
#523=ADVANCED_FACE('',(#129),#98,.T.);
#524=ADVANCED_FACE('',(#130),#501,.T.);
#525=ADVANCED_FACE('',(#131),#99,.F.);
#526=ADVANCED_FACE('',(#132),#502,.T.);
#527=ADVANCED_FACE('',(#133),#100,.F.);
#528=ADVANCED_FACE('',(#134),#101,.F.);
#529=ADVANCED_FACE('',(#135),#503,.F.);
#530=ADVANCED_FACE('',(#136),#504,.T.);
#531=ADVANCED_FACE('',(#137),#102,.F.);
#532=CLOSED_SHELL('',(#505,#506,#507,#508,#509,#510,#511,#512,#513,#514,
#515,#516,#517,#518,#519,#520,#521,#522,#523,#524,#525,#526,#527,#528,#529,
#530,#531));
#533=AXIS2_PLACEMENT_3D('',#783,#605,#606);
#534=AXIS2_PLACEMENT_3D('',#784,#607,#608);
#535=AXIS2_PLACEMENT_3D('',#785,#609,#610);
#536=AXIS2_PLACEMENT_3D('',#788,#611,#612);
#537=AXIS2_PLACEMENT_3D('',#789,#613,#614);
#538=AXIS2_PLACEMENT_3D('',#791,#615,#616);
#539=AXIS2_PLACEMENT_3D('',#792,#617,#618);
#540=AXIS2_PLACEMENT_3D('',#795,#619,#620);
#541=AXIS2_PLACEMENT_3D('',#797,#621,#622);
#542=AXIS2_PLACEMENT_3D('',#799,#623,#624);
#543=AXIS2_PLACEMENT_3D('',#801,#625,#626);
#544=AXIS2_PLACEMENT_3D('',#803,#627,#628);
#545=AXIS2_PLACEMENT_3D('',#804,#629,#630);
#546=AXIS2_PLACEMENT_3D('',#805,#631,#632);
#547=AXIS2_PLACEMENT_3D('',#809,#634,#635);
#548=AXIS2_PLACEMENT_3D('',#811,#637,#638);
#549=AXIS2_PLACEMENT_3D('',#813,#639,#640);
#550=AXIS2_PLACEMENT_3D('',#815,#641,#642);
#551=AXIS2_PLACEMENT_3D('',#825,#647,#648);
#552=AXIS2_PLACEMENT_3D('',#826,#649,#650);
#553=AXIS2_PLACEMENT_3D('',#828,#651,#652);
#554=AXIS2_PLACEMENT_3D('',#830,#653,#654);
#555=AXIS2_PLACEMENT_3D('',#831,#655,#656);
#556=AXIS2_PLACEMENT_3D('',#834,#657,#658);
#557=AXIS2_PLACEMENT_3D('',#836,#659,#660);
#558=AXIS2_PLACEMENT_3D('',#838,#661,#662);
#559=AXIS2_PLACEMENT_3D('',#839,#663,#664);
#560=AXIS2_PLACEMENT_3D('',#841,#665,#666);
#561=AXIS2_PLACEMENT_3D('',#842,#667,#668);
#562=AXIS2_PLACEMENT_3D('',#845,#669,#670);
#563=AXIS2_PLACEMENT_3D('',#847,#671,#672);
#564=AXIS2_PLACEMENT_3D('',#856,#677,#678);
#565=AXIS2_PLACEMENT_3D('',#858,#679,#680);
#566=AXIS2_PLACEMENT_3D('',#860,#681,#682);
#567=AXIS2_PLACEMENT_3D('',#861,#683,#684);
#568=AXIS2_PLACEMENT_3D('',#865,#686,#687);
#569=AXIS2_PLACEMENT_3D('',#870,#691,#692);
#570=AXIS2_PLACEMENT_3D('',#876,#696,#697);
#571=AXIS2_PLACEMENT_3D('',#877,#698,#699);
#572=AXIS2_PLACEMENT_3D('',#880,#700,#701);
#573=AXIS2_PLACEMENT_3D('',#881,#702,#703);
#574=AXIS2_PLACEMENT_3D('',#882,#704,#705);
#575=AXIS2_PLACEMENT_3D('',#884,#706,#707);
#576=AXIS2_PLACEMENT_3D('',#886,#708,#709);
#577=AXIS2_PLACEMENT_3D('',#887,#710,#711);
#578=AXIS2_PLACEMENT_3D('',#889,#712,#713);
#579=AXIS2_PLACEMENT_3D('',#890,#714,#715);
#580=AXIS2_PLACEMENT_3D('',#893,#716,#717);
#581=AXIS2_PLACEMENT_3D('',#895,#718,#719);
#582=AXIS2_PLACEMENT_3D('',#897,#720,#721);
#583=AXIS2_PLACEMENT_3D('',#899,#722,#723);
#584=AXIS2_PLACEMENT_3D('',#901,#724,#725);
#585=AXIS2_PLACEMENT_3D('',#902,#726,#727);
#586=AXIS2_PLACEMENT_3D('',#904,#728,#729);
#587=AXIS2_PLACEMENT_3D('',#905,#730,#731);
#588=AXIS2_PLACEMENT_3D('',#908,#734,#735);
#589=AXIS2_PLACEMENT_3D('',#911,#738,#739);
#590=AXIS2_PLACEMENT_3D('',#914,#742,#743);
#591=AXIS2_PLACEMENT_3D('',#916,#745,#746);
#592=AXIS2_PLACEMENT_3D('',#917,#747,#748);
#593=AXIS2_PLACEMENT_3D('',#919,#750,#751);
#594=AXIS2_PLACEMENT_3D('',#922,#754,#755);
#595=AXIS2_PLACEMENT_3D('',#924,#757,#758);
#596=AXIS2_PLACEMENT_3D('',#925,#759,#760);
#597=AXIS2_PLACEMENT_3D('',#928,#763,#764);
#598=AXIS2_PLACEMENT_3D('',#929,#765,#766);
#599=AXIS2_PLACEMENT_3D('',#930,#767,#768);
#600=AXIS2_PLACEMENT_3D('',#932,#770,#771);
#601=AXIS2_PLACEMENT_3D('',#934,#773,#774);
#602=AXIS2_PLACEMENT_3D('',#936,#776,#777);
#603=AXIS2_PLACEMENT_3D('',#937,#778,#779);
#604=AXIS2_PLACEMENT_3D('',#939,#781,#782);
#605=DIRECTION('axis',(0.,0.,1.));
#606=DIRECTION('refdir',(1.,0.,0.));
#607=DIRECTION('axis',(0.,0.,1.));
#608=DIRECTION('refdir',(1.,0.,0.));
#609=DIRECTION('center_axis',(0.,0.,1.));
#610=DIRECTION('ref_axis',(-1.,0.,0.));
#611=DIRECTION('center_axis',(0.,0.,-1.));
#612=DIRECTION('ref_axis',(-1.,0.,0.));
#613=DIRECTION('center_axis',(0.,0.,1.));
#614=DIRECTION('ref_axis',(-1.,0.,0.));
#615=DIRECTION('center_axis',(0.,0.,-1.));
#616=DIRECTION('ref_axis',(-1.,0.,0.));
#617=DIRECTION('center_axis',(0.,0.,1.));
#618=DIRECTION('ref_axis',(1.,0.,0.));
#619=DIRECTION('center_axis',(0.,0.,-1.));
#620=DIRECTION('ref_axis',(-1.,0.,0.));
#621=DIRECTION('center_axis',(0.,0.,1.));
#622=DIRECTION('ref_axis',(-1.,0.,0.));
#623=DIRECTION('center_axis',(0.,0.,-1.));
#624=DIRECTION('ref_axis',(-1.,0.,0.));
#625=DIRECTION('center_axis',(0.,0.,1.));
#626=DIRECTION('ref_axis',(0.991657830764039,0.128898202797245,0.));
#627=DIRECTION('center_axis',(0.,0.,-1.));
#628=DIRECTION('ref_axis',(-1.,0.,0.));
#629=DIRECTION('center_axis',(0.,0.,1.));
#630=DIRECTION('ref_axis',(-0.433449041270067,-0.901178078196568,0.));
#631=DIRECTION('center_axis',(0.,0.,1.));
#632=DIRECTION('ref_axis',(-1.,0.,0.));
#633=DIRECTION('',(0.,0.,1.));
#634=DIRECTION('center_axis',(0.,0.,-1.));
#635=DIRECTION('ref_axis',(-1.,0.,0.));
#636=DIRECTION('',(0.,0.,1.));
#637=DIRECTION('center_axis',(0.,0.,1.));
#638=DIRECTION('ref_axis',(-1.,0.,0.));
#639=DIRECTION('center_axis',(0.,0.,1.));
#640=DIRECTION('ref_axis',(0.433449041270068,-0.901178078196568,0.));
#641=DIRECTION('center_axis',(0.,0.,1.));
#642=DIRECTION('ref_axis',(1.,-9.10018872643573E-17,0.));
#643=DIRECTION('',(0.,1.,0.));
#644=DIRECTION('',(-1.,0.,0.));
#645=DIRECTION('',(0.,-1.,0.));
#646=DIRECTION('',(1.,0.,0.));
#647=DIRECTION('center_axis',(0.,0.,1.));
#648=DIRECTION('ref_axis',(-0.894628910452125,0.446809928921957,0.));
#649=DIRECTION('center_axis',(0.,0.,1.));
#650=DIRECTION('ref_axis',(-0.991657830764039,0.128898202797245,0.));
#651=DIRECTION('center_axis',(0.,0.,-1.));
#652=DIRECTION('ref_axis',(1.66533453693773E-16,1.,9.94028358393412E-33));
#653=DIRECTION('center_axis',(0.,0.,-1.));
#654=DIRECTION('ref_axis',(1.66533453693773E-16,1.,9.94028358393412E-33));
#655=DIRECTION('center_axis',(0.,0.,1.));
#656=DIRECTION('ref_axis',(-1.,0.,0.));
#657=DIRECTION('center_axis',(0.,0.,1.));
#658=DIRECTION('ref_axis',(-0.485041298036297,-0.874491245924888,0.));
#659=DIRECTION('center_axis',(0.,0.,1.));
#660=DIRECTION('ref_axis',(-0.433449041270065,-0.901178078196569,0.));
#661=DIRECTION('center_axis',(0.,0.,1.));
#662=DIRECTION('ref_axis',(0.433449041270067,-0.901178078196568,0.));
#663=DIRECTION('center_axis',(0.,0.,-1.));
#664=DIRECTION('ref_axis',(-1.,0.,0.));
#665=DIRECTION('center_axis',(0.,0.,-1.));
#666=DIRECTION('ref_axis',(-1.,0.,0.));
#667=DIRECTION('center_axis',(0.,0.,-1.));
#668=DIRECTION('ref_axis',(-1.,0.,0.));
#669=DIRECTION('center_axis',(0.,0.,-1.));
#670=DIRECTION('ref_axis',(0.286723041085741,0.958013516455036,0.));
#671=DIRECTION('center_axis',(0.,0.,1.));
#672=DIRECTION('ref_axis',(-1.,0.,0.));
#673=DIRECTION('',(1.,0.,0.));
#674=DIRECTION('',(0.,-1.,0.));
#675=DIRECTION('',(-1.,0.,0.));
#676=DIRECTION('',(0.,1.,0.));
#677=DIRECTION('center_axis',(0.,0.,1.));
#678=DIRECTION('ref_axis',(-1.,0.,0.));
#679=DIRECTION('center_axis',(0.,0.,-1.));
#680=DIRECTION('ref_axis',(1.66533453693773E-16,1.,9.94028358393412E-33));
#681=DIRECTION('center_axis',(0.,0.,-1.));
#682=DIRECTION('ref_axis',(1.66533453693773E-16,1.,9.94028358393412E-33));
#683=DIRECTION('center_axis',(0.,0.,-1.));
#684=DIRECTION('ref_axis',(-1.,0.,0.));
#685=DIRECTION('',(0.,0.,-1.));
#686=DIRECTION('center_axis',(0.,0.,-1.));
#687=DIRECTION('ref_axis',(-1.,0.,0.));
#688=DIRECTION('',(0.,0.,1.));
#689=DIRECTION('',(0.,0.,1.));
#690=DIRECTION('',(0.,0.,-1.));
#691=DIRECTION('center_axis',(0.,0.,-1.));
#692=DIRECTION('ref_axis',(-1.,0.,0.));
#693=DIRECTION('',(0.,0.,1.));
#694=DIRECTION('',(0.,0.,-1.));
#695=DIRECTION('',(0.,0.,-1.));
#696=DIRECTION('center_axis',(0.,0.,-1.));
#697=DIRECTION('ref_axis',(-1.,0.,0.));
#698=DIRECTION('center_axis',(0.,0.,1.));
#699=DIRECTION('ref_axis',(1.,0.,0.));
#700=DIRECTION('center_axis',(0.,0.,1.));
#701=DIRECTION('ref_axis',(-0.561303051578923,-0.82761034568702,0.));
#702=DIRECTION('center_axis',(0.,0.,-1.));
#703=DIRECTION('ref_axis',(-0.485041298036297,-0.874491245924888,0.));
#704=DIRECTION('center_axis',(0.,0.,-1.));
#705=DIRECTION('ref_axis',(0.286723041085741,0.958013516455036,0.));
#706=DIRECTION('center_axis',(0.,0.,-1.));
#707=DIRECTION('ref_axis',(0.433449041270067,-0.901178078196568,0.));
#708=DIRECTION('center_axis',(0.,0.,1.));
#709=DIRECTION('ref_axis',(0.270392956261938,0.962750045029306,0.));
#710=DIRECTION('center_axis',(0.,0.,1.));
#711=DIRECTION('ref_axis',(-0.270392956261926,0.962750045029309,0.));
#712=DIRECTION('center_axis',(0.,0.,1.));
#713=DIRECTION('ref_axis',(1.,0.,0.));
#714=DIRECTION('center_axis',(-1.67796168499588E-46,-2.81185771880537E-31,
1.));
#715=DIRECTION('ref_axis',(1.,0.,1.67796168499588E-46));
#716=DIRECTION('center_axis',(1.67796168499588E-46,2.81185771880537E-31,
-1.));
#717=DIRECTION('ref_axis',(-0.561303051578923,-0.82761034568702,0.));
#718=DIRECTION('center_axis',(1.67796168499588E-46,2.81185771880537E-31,
-1.));
#719=DIRECTION('ref_axis',(-0.270392956261926,0.962750045029309,0.));
#720=DIRECTION('center_axis',(1.67796168499588E-46,2.81185771880537E-31,
-1.));
#721=DIRECTION('ref_axis',(0.270392956261938,0.962750045029306,0.));
#722=DIRECTION('center_axis',(-1.67796168499588E-46,-2.81185771880537E-31,
1.));
#723=DIRECTION('ref_axis',(0.991657830764039,0.128898202797245,0.));
#724=DIRECTION('center_axis',(-1.67796168499588E-46,-2.81185771880537E-31,
1.));
#725=DIRECTION('ref_axis',(-0.433449041270065,-0.901178078196569,0.));
#726=DIRECTION('center_axis',(-1.67796168499588E-46,-2.81185771880537E-31,
1.));
#727=DIRECTION('ref_axis',(-0.433449041270067,-0.901178078196568,0.));
#728=DIRECTION('center_axis',(1.67796168499588E-46,2.81185771880537E-31,
-1.));
#729=DIRECTION('ref_axis',(-1.,0.,0.));
#730=DIRECTION('center_axis',(0.,0.,1.));
#731=DIRECTION('ref_axis',(-0.433449041270065,-0.901178078196569,0.));
#732=DIRECTION('',(0.,0.,1.));
#733=DIRECTION('',(0.,0.,1.));
#734=DIRECTION('center_axis',(0.,0.,1.));
#735=DIRECTION('ref_axis',(0.991657830764039,0.128898202797245,0.));
#736=DIRECTION('',(0.,0.,-1.));
#737=DIRECTION('',(0.,0.,-1.));
#738=DIRECTION('center_axis',(0.,0.,1.));
#739=DIRECTION('ref_axis',(-0.561303051578923,-0.82761034568702,0.));
#740=DIRECTION('',(0.,0.,1.));
#741=DIRECTION('',(0.,0.,1.));
#742=DIRECTION('center_axis',(0.,0.,1.));
#743=DIRECTION('ref_axis',(-0.270392956261926,0.962750045029309,0.));
#744=DIRECTION('',(0.,0.,1.));
#745=DIRECTION('center_axis',(0.,0.,1.));
#746=DIRECTION('ref_axis',(0.270392956261938,0.962750045029306,0.));
#747=DIRECTION('center_axis',(0.,0.,1.));
#748=DIRECTION('ref_axis',(-0.433449041270067,-0.901178078196568,0.));
#749=DIRECTION('',(0.,0.,1.));
#750=DIRECTION('center_axis',(0.,0.,1.));
#751=DIRECTION('ref_axis',(1.83697019872103E-16,1.,0.));
#752=DIRECTION('',(0.,0.,1.));
#753=DIRECTION('',(0.,0.,-1.));
#754=DIRECTION('center_axis',(0.,0.,1.));
#755=DIRECTION('ref_axis',(-1.,0.,0.));
#756=DIRECTION('',(0.,0.,-1.));
#757=DIRECTION('center_axis',(0.,0.,-1.));
#758=DIRECTION('ref_axis',(0.286723041085741,0.958013516455036,0.));
#759=DIRECTION('center_axis',(0.,1.,0.));
#760=DIRECTION('ref_axis',(0.,0.,1.));
#761=DIRECTION('',(0.,0.,1.));
#762=DIRECTION('',(0.,0.,1.));
#763=DIRECTION('center_axis',(0.,0.,1.));
#764=DIRECTION('ref_axis',(-7.04481399828022E-16,1.,0.));
#765=DIRECTION('center_axis',(1.,0.,0.));
#766=DIRECTION('ref_axis',(0.,0.,-1.));
#767=DIRECTION('center_axis',(-7.40148683083438E-17,0.,1.));
#768=DIRECTION('ref_axis',(1.66533453693773E-16,1.,9.94028358393412E-33));
#769=DIRECTION('',(-7.40148683083438E-17,0.,1.));
#770=DIRECTION('center_axis',(-7.40148683083438E-17,0.,1.));
#771=DIRECTION('ref_axis',(1.66533453693773E-16,1.,9.94028358393412E-33));
#772=DIRECTION('',(-7.40148683083438E-17,0.,1.));
#773=DIRECTION('center_axis',(1.,0.,0.));
#774=DIRECTION('ref_axis',(0.,0.,-1.));
#775=DIRECTION('',(0.,0.,1.));
#776=DIRECTION('center_axis',(0.,-1.,0.));
#777=DIRECTION('ref_axis',(-1.,0.,0.));
#778=DIRECTION('center_axis',(0.,0.,1.));
#779=DIRECTION('ref_axis',(1.,0.,0.));
#780=DIRECTION('',(0.,0.,1.));
#781=DIRECTION('',(-3.23117426778527E-27,8.07793566946316E-28,0.999999999999999));
#782=DIRECTION('',(-7.77156117237609E-16,1.,4.03896783473158E-27));
#783=CARTESIAN_POINT('',(0.,0.,0.));
#784=CARTESIAN_POINT('',(0.,0.,0.));
#785=CARTESIAN_POINT('Origin',(0.,-8.37179487179487,2.4));
#786=CARTESIAN_POINT('',(-3.77838612961318,-20.0870166352494,2.4));
#787=CARTESIAN_POINT('',(3.77838612961318,-20.0870166352494,2.4));
#788=CARTESIAN_POINT('Origin',(0.,-21.3999516129032,2.4));
#789=CARTESIAN_POINT('Origin',(0.,-8.5,2.4));
#790=CARTESIAN_POINT('',(-8.5,-8.5,2.4));
#791=CARTESIAN_POINT('Origin',(0.,-8.5,2.4));
#792=CARTESIAN_POINT('Origin',(-3.46496923566577,11.9060483870968,-1.5));
#793=CARTESIAN_POINT('',(-3.76980201262504,-22.7373344248192,-1.5));
#794=CARTESIAN_POINT('',(-3.77838612961318,-20.0870166352494,-1.5));
#795=CARTESIAN_POINT('Origin',(0.,-21.3999516129032,-1.5));
#796=CARTESIAN_POINT('',(3.77838612961318,-20.0870166352494,-1.5));
#797=CARTESIAN_POINT('Origin',(0.,-8.5,-1.5));
#798=CARTESIAN_POINT('',(3.76980201262504,-22.7373344248192,-1.5));
#799=CARTESIAN_POINT('Origin',(0.,-21.3999516129032,-1.5));
#800=CARTESIAN_POINT('',(15.3470819130528,-4.96028578073779,-1.5));
#801=CARTESIAN_POINT('Origin',(-7.22148977078459,-2.92090129858514,-1.5));
#802=CARTESIAN_POINT('',(-15.3470819130528,-4.96028578073783,-1.5));
#803=CARTESIAN_POINT('Origin',(9.71445146547012E-15,-8.5,-1.5));
#804=CARTESIAN_POINT('Origin',(7.22148977078459,-2.92090129858514,-1.5));
#805=CARTESIAN_POINT('Origin',(9.71445146547012E-15,-8.5,-3.5));
#806=CARTESIAN_POINT('',(15.3470819130528,-4.96028578073779,-0.5));
#807=CARTESIAN_POINT('',(15.3470819130528,-4.96028578073779,-3.5));
#808=CARTESIAN_POINT('',(-15.3470819130528,-4.96028578073783,-0.5));
#809=CARTESIAN_POINT('Origin',(9.71445146547012E-15,-8.5,-0.5));
#810=CARTESIAN_POINT('',(-15.3470819130528,-4.96028578073783,-3.5));
#811=CARTESIAN_POINT('Origin',(8.88178419700125E-15,-7.71989550372093,-0.5));
#812=CARTESIAN_POINT('',(15.25,-1.4432899320127E-14,-0.5));
#813=CARTESIAN_POINT('Origin',(-7.22148977078459,-2.92090129858514,-0.5));
#814=CARTESIAN_POINT('',(13.6430863814495,6.81386043211232,-0.5));
#815=CARTESIAN_POINT('Origin',(4.88498130835069E-14,-1.30451205393456E-14,
-0.5));
#816=CARTESIAN_POINT('',(13.6430863814495,15.2417894819303,-0.5));
#817=CARTESIAN_POINT('',(13.6430863814495,12.2417894819303,-0.5));
#818=CARTESIAN_POINT('',(-13.6610903982914,15.2417894819303,-0.5));
#819=CARTESIAN_POINT('',(13.4830863814495,15.2417894819303,-0.5));
#820=CARTESIAN_POINT('',(-13.6610903982914,6.81386043211232,-0.5));
#821=CARTESIAN_POINT('',(-13.6610903982914,12.2417894819303,-0.5));
#822=CARTESIAN_POINT('',(-13.6430908843949,6.81385141605985,-0.5));
#823=CARTESIAN_POINT('',(13.6430863814495,6.81386043211232,-0.5));
#824=CARTESIAN_POINT('',(-15.25,-1.66533453693773E-15,-0.5));
#825=CARTESIAN_POINT('Origin',(4.88498130835069E-14,-1.30451205393456E-14,
-0.5));
#826=CARTESIAN_POINT('Origin',(7.22148977078459,-2.92090129858514,-0.5));
#827=CARTESIAN_POINT('',(8.65280368530652,8.68520918627313,-0.499999999999998));
#828=CARTESIAN_POINT('Origin',(8.65280368530652,10.2352091862731,-0.499999999999998));
#829=CARTESIAN_POINT('',(-8.65277804002018,8.68520918627321,-0.500000000000001));
#830=CARTESIAN_POINT('Origin',(-8.65277804002018,10.2352091862732,-0.500000000000001));
#831=CARTESIAN_POINT('Origin',(0.,-20.6674776356048,-3.5));
#832=CARTESIAN_POINT('',(-3.76980201262503,-22.7373344248192,-3.5));
#833=CARTESIAN_POINT('',(-2.60069424762047,-23.3420721274857,-3.5));
#834=CARTESIAN_POINT('Origin',(7.22148977078135,-2.92090129859132,-3.5));
#835=CARTESIAN_POINT('',(2.60069424762041,-23.3420721274858,-3.5));
#836=CARTESIAN_POINT('Origin',(-5.55111512312578E-16,-17.9350036583063,
-3.5));
#837=CARTESIAN_POINT('',(3.76980201262504,-22.7373344248192,-3.5));
#838=CARTESIAN_POINT('Origin',(-7.22148977078474,-2.92090129858476,-3.5));
#839=CARTESIAN_POINT('Origin',(0.,-21.3999516129032,-3.5));
#840=CARTESIAN_POINT('',(1.55,-21.3999516129032,-3.5));
#841=CARTESIAN_POINT('Origin',(0.,-21.3999516129032,-3.5));
#842=CARTESIAN_POINT('Origin',(-0.0890020084209175,9.55782495702129,-2.95));
#843=CARTESIAN_POINT('',(-13.7626760994925,6.56896084479569,-2.95));
#844=CARTESIAN_POINT('',(13.7626717583833,6.56896993987626,-2.95));
#845=CARTESIAN_POINT('Origin',(1.28226431472811E-5,-38.806441594587,-2.95));
#846=CARTESIAN_POINT('',(-13.6430908843949,6.81386043211232,-2.95));
#847=CARTESIAN_POINT('Origin',(0.,0.,-2.95));
#848=CARTESIAN_POINT('',(-13.6610903982914,6.81386043211232,-2.95));
#849=CARTESIAN_POINT('',(6.77704218651431,6.81386043211232,-2.95));
#850=CARTESIAN_POINT('',(-13.6610903982914,15.2417894819303,-2.95));
#851=CARTESIAN_POINT('',(-13.6610903982914,8.18584269456681,-2.95));
#852=CARTESIAN_POINT('',(13.6430863814495,15.2417894819303,-2.95));
#853=CARTESIAN_POINT('',(-6.95504620335615,15.2417894819303,-2.95));
#854=CARTESIAN_POINT('',(13.6430863814495,6.81386043211233,-2.95));
#855=CARTESIAN_POINT('',(13.6430863814495,10.9298072194758,-2.95));
#856=CARTESIAN_POINT('Origin',(0.,0.,-2.95));
#857=CARTESIAN_POINT('',(8.65280368530652,8.68520918627313,-2.95));
#858=CARTESIAN_POINT('Origin',(8.65280368530652,10.2352091862731,-2.95));
#859=CARTESIAN_POINT('',(-8.65277804002018,8.68520918627321,-2.95));
#860=CARTESIAN_POINT('Origin',(-8.65277804002018,10.2352091862732,-2.95));
#861=CARTESIAN_POINT('Origin',(0.,0.,-1.));
#862=CARTESIAN_POINT('',(-13.7626760994925,6.56896084479569,-6.593));
#863=CARTESIAN_POINT('',(-13.7626760994925,6.56896084479569,-5.));
#864=CARTESIAN_POINT('',(-15.25,0.,-6.593));
#865=CARTESIAN_POINT('Origin',(0.,0.,-6.593));
#866=CARTESIAN_POINT('',(-15.25,3.5527136788005E-14,-4.5));
#867=CARTESIAN_POINT('',(-13.6430908843949,6.81385141605985,-1.5));
#868=CARTESIAN_POINT('',(-13.6430908843949,6.81385141605985,-1.5));
#869=CARTESIAN_POINT('',(-13.6430908843949,6.81385141605984,-3.));
#870=CARTESIAN_POINT('Origin',(0.,0.,-1.));
#871=CARTESIAN_POINT('',(13.7626717583833,6.56896993987627,-6.593));
#872=CARTESIAN_POINT('',(13.7626717583833,6.56896993987626,-3.));
#873=CARTESIAN_POINT('',(13.6430863814495,6.81386043211233,-3.));
#874=CARTESIAN_POINT('',(15.25,0.,-6.593));
#875=CARTESIAN_POINT('',(15.25,-2.22044604925031E-15,-5.));
#876=CARTESIAN_POINT('Origin',(0.,0.,-6.593));
#877=CARTESIAN_POINT('Origin',(0.,0.,-6.593));
#878=CARTESIAN_POINT('',(-8.18350763483039,-18.6965537904971,-6.593));
#879=CARTESIAN_POINT('',(-8.76102073979962,-18.9851122874138,-6.593));
#880=CARTESIAN_POINT('Origin',(-7.72032450075371,-20.3457446176323,-6.593));
#881=CARTESIAN_POINT('Origin',(7.22148977078135,-2.92090129859132,-6.593));
#882=CARTESIAN_POINT('Origin',(1.28226431472811E-5,-38.806441594587,-6.593));
#883=CARTESIAN_POINT('',(8.75254258482255,-18.9935428741498,-6.593));
#884=CARTESIAN_POINT('Origin',(-7.22148977078474,-2.92090129858476,-6.593));
#885=CARTESIAN_POINT('',(8.16409867240273,-18.6965537904971,-6.593));
#886=CARTESIAN_POINT('Origin',(7.70091553832603,-20.3457446176323,-6.593));
#887=CARTESIAN_POINT('Origin',(-0.00970448121382694,-47.7998612989299,-6.593));
#888=CARTESIAN_POINT('',(-8.5,-8.5,-6.593));
#889=CARTESIAN_POINT('Origin',(0.,-8.5,-6.593));
#890=CARTESIAN_POINT('Origin',(-0.004192066907035,-20.8527577721907,-4.95));
#891=CARTESIAN_POINT('',(-8.18350763483039,-18.6965537904971,-4.95));
#892=CARTESIAN_POINT('',(-8.76102073979986,-18.985112287414,-4.95));
#893=CARTESIAN_POINT('Origin',(-7.72032450075371,-20.3457446176323,-4.95));
#894=CARTESIAN_POINT('',(8.16409867240273,-18.6965537904971,-4.95));
#895=CARTESIAN_POINT('Origin',(-0.00970448121382694,-47.7998612989299,-4.95));
#896=CARTESIAN_POINT('',(8.75254258482252,-18.9935428741498,-4.95));
#897=CARTESIAN_POINT('Origin',(7.70091553832603,-20.3457446176323,-4.95));
#898=CARTESIAN_POINT('',(2.60069424762042,-23.3420721274858,-4.95));
#899=CARTESIAN_POINT('Origin',(-7.22148977078459,-2.92090129858514,-4.95));
#900=CARTESIAN_POINT('',(-2.60069424762048,-23.3420721274858,-4.95));
#901=CARTESIAN_POINT('Origin',(-5.55111512312578E-16,-17.9350036583063,
-4.95));
#902=CARTESIAN_POINT('Origin',(7.22148977078459,-2.92090129858514,-4.95));
#903=CARTESIAN_POINT('',(1.55,-21.3999516129032,-4.95));
#904=CARTESIAN_POINT('Origin',(0.,-21.3999516129032,-4.95));
#905=CARTESIAN_POINT('Origin',(-5.55111512312578E-16,-17.9350036583063,
-5.));
#906=CARTESIAN_POINT('',(2.60069424762041,-23.3420721274858,-5.));
#907=CARTESIAN_POINT('',(-2.60069424762047,-23.3420721274857,-5.));
#908=CARTESIAN_POINT('Origin',(-7.22148977078459,-2.92090129858514,-4.5));
#909=CARTESIAN_POINT('',(8.75254258482252,-18.9935428741498,-6.293));
#910=CARTESIAN_POINT('',(3.76980201262503,-22.7373344248192,-6.));
#911=CARTESIAN_POINT('Origin',(-7.72032450075371,-20.3457446176323,-6.293));
#912=CARTESIAN_POINT('',(-8.76102073979986,-18.985112287414,-6.293));
#913=CARTESIAN_POINT('',(-8.18350763483039,-18.6965537904971,-5.));
#914=CARTESIAN_POINT('Origin',(-0.00970448121382694,-47.7998612989299,-6.293));
#915=CARTESIAN_POINT('',(8.16409867240273,-18.6965537904971,-5.));
#916=CARTESIAN_POINT('Origin',(7.70091553832603,-20.3457446176323,-6.293));
#917=CARTESIAN_POINT('Origin',(7.22148977078459,-2.92090129858514,-4.5));
#918=CARTESIAN_POINT('',(-3.76980201262503,-22.7373344248192,-6.));
#919=CARTESIAN_POINT('Origin',(0.,-8.5,-3.5));
#920=CARTESIAN_POINT('',(-3.77838612961318,-20.0870166352494,-6.));
#921=CARTESIAN_POINT('',(3.77838612961318,-20.0870166352494,-6.));
#922=CARTESIAN_POINT('Origin',(0.,-21.3999516129032,-5.));
#923=CARTESIAN_POINT('',(1.55,-21.3999516129032,-5.));
#924=CARTESIAN_POINT('Origin',(1.28226431472811E-5,-38.806441594587,-3.));
#925=CARTESIAN_POINT('Origin',(-13.8210903982914,15.2417894819303,-1.5));
#926=CARTESIAN_POINT('',(-13.6610903982914,15.2417894819303,-1.5));
#927=CARTESIAN_POINT('',(13.6430863814495,15.2417894819303,-1.5));
#928=CARTESIAN_POINT('Origin',(0.,-21.3999516129032,-6.));
#929=CARTESIAN_POINT('Origin',(13.6430863814495,12.3017894819303,-1.5));
#930=CARTESIAN_POINT('Origin',(-8.65277804002018,10.2352091862732,-6.99999999999999));
#931=CARTESIAN_POINT('',(-8.65277804002018,8.68520918627321,-6.99999999999999));
#932=CARTESIAN_POINT('Origin',(8.65280368530652,10.2352091862731,-6.99999999999999));
#933=CARTESIAN_POINT('',(8.65280368530652,8.68520918627313,-6.99999999999999));
#934=CARTESIAN_POINT('Origin',(-13.6610903982914,6.81386043211232,-1.5));
#935=CARTESIAN_POINT('',(-13.6610903982914,6.81386043211232,-1.5));
#936=CARTESIAN_POINT('Origin',(13.6430863814495,6.81386043211232,-1.5));
#937=CARTESIAN_POINT('Origin',(0.,-8.5,-4.5));
#938=CARTESIAN_POINT('',(-8.5,-8.5,-4.5));
#939=CARTESIAN_POINT('',(-1.7410637397398,9.88054907182322,8.));
#940=UNCERTAINTY_MEASURE_WITH_UNIT(LENGTH_MEASURE(0.01),#946,
'DISTANCE_ACCURACY_VALUE',
'Maximum model space distance between geometric entities at asserted c
onnectivities');
#941=UNCERTAINTY_MEASURE_WITH_UNIT(LENGTH_MEASURE(0.01),#946,
'DISTANCE_ACCURACY_VALUE',
'Maximum model space distance between geometric entities at asserted c
onnectivities');
#942=UNCERTAINTY_MEASURE_WITH_UNIT(LENGTH_MEASURE(0.01),#946,
'DISTANCE_ACCURACY_VALUE',
'Maximum model space distance between geometric entities at asserted c
onnectivities');
#943=(
GEOMETRIC_REPRESENTATION_CONTEXT(3)
GLOBAL_UNCERTAINTY_ASSIGNED_CONTEXT((#940))
GLOBAL_UNIT_ASSIGNED_CONTEXT((#946,#947,#948))
REPRESENTATION_CONTEXT('','3D')
);
#944=(
GEOMETRIC_REPRESENTATION_CONTEXT(3)
GLOBAL_UNCERTAINTY_ASSIGNED_CONTEXT((#941))
GLOBAL_UNIT_ASSIGNED_CONTEXT((#946,#947,#948))
REPRESENTATION_CONTEXT('','3D')
);
#945=(
GEOMETRIC_REPRESENTATION_CONTEXT(3)
GLOBAL_UNCERTAINTY_ASSIGNED_CONTEXT((#942))
GLOBAL_UNIT_ASSIGNED_CONTEXT((#946,#947,#948))
REPRESENTATION_CONTEXT('','3D')
);
#946=(
LENGTH_UNIT()
NAMED_UNIT(*)
SI_UNIT(.MILLI.,.METRE.)
);
#947=(
NAMED_UNIT(*)
PLANE_ANGLE_UNIT()
SI_UNIT($,.RADIAN.)
);
#948=(
NAMED_UNIT(*)
SI_UNIT($,.STERADIAN.)
SOLID_ANGLE_UNIT()
);
#949=SHAPE_DEFINITION_REPRESENTATION(#951,#954);
#950=SHAPE_DEFINITION_REPRESENTATION(#952,#955);
#951=PRODUCT_DEFINITION_SHAPE('',$,#957);
#952=PRODUCT_DEFINITION_SHAPE('',$,#958);
#953=PRODUCT_DEFINITION_SHAPE($,$,#14);
#954=SHAPE_REPRESENTATION('',(#533,#604),#943);
#955=SHAPE_REPRESENTATION('',(#534),#944);
#956=PRODUCT_DEFINITION_CONTEXT('part definition',#964,'design');
#957=PRODUCT_DEFINITION('beamsplitter rotary outer',
'REV1114holder_for_6mmdepth_rotary_forex v1',#959,#956);
#958=PRODUCT_DEFINITION('rotary filter barrel bottom',
'REV1114_barrelbottom_for_6mmdepth_rotary_forex v1',#960,#956);
#959=PRODUCT_DEFINITION_FORMATION('',$,#966);
#960=PRODUCT_DEFINITION_FORMATION('',$,#967);
#961=PRODUCT_RELATED_PRODUCT_CATEGORY(
'REV1114holder_for_6mmdepth_rotary_forex v1',
'REV1114holder_for_6mmdepth_rotary_forex v1',(#966));
#962=PRODUCT_RELATED_PRODUCT_CATEGORY(
'REV1114_barrelbottom_for_6mmdepth_rotary_forex v1',
'REV1114_barrelbottom_for_6mmdepth_rotary_forex v1',(#967));
#963=APPLICATION_PROTOCOL_DEFINITION('international standard',
'automotive_design',2009,#964);
#964=APPLICATION_CONTEXT(
'Core Data for Automotive Mechanical Design Process');
#965=PRODUCT_CONTEXT('part definition',#964,'mechanical');
#966=PRODUCT('beamsplitter rotary outer',
'REV1114holder_for_6mmdepth_rotary_forex v1',$,(#965));
#967=PRODUCT('rotary filter barrel bottom',
'REV1114_barrelbottom_for_6mmdepth_rotary_forex v1',$,(#965));
#968=PRESENTATION_STYLE_ASSIGNMENT((#972));
#969=PRESENTATION_STYLE_ASSIGNMENT((#973));
#970=PRESENTATION_STYLE_ASSIGNMENT((#974));
#971=PRESENTATION_STYLE_ASSIGNMENT((#975));
#972=SURFACE_STYLE_USAGE(.BOTH.,#976);
#973=SURFACE_STYLE_USAGE(.BOTH.,#977);
#974=SURFACE_STYLE_USAGE(.BOTH.,#978);
#975=SURFACE_STYLE_USAGE(.BOTH.,#979);
#976=SURFACE_SIDE_STYLE('',(#980));
#977=SURFACE_SIDE_STYLE('',(#981));
#978=SURFACE_SIDE_STYLE('',(#982));
#979=SURFACE_SIDE_STYLE('',(#983));
#980=SURFACE_STYLE_FILL_AREA(#984);
#981=SURFACE_STYLE_FILL_AREA(#985);
#982=SURFACE_STYLE_FILL_AREA(#986);
#983=SURFACE_STYLE_FILL_AREA(#987);
#984=FILL_AREA_STYLE('Default',(#988));
#985=FILL_AREA_STYLE('Opaque(191,191,191)',(#989));
#986=FILL_AREA_STYLE('Glass - Light Color (Blue)',(#990));
#987=FILL_AREA_STYLE('Opaque(192,192,192)',(#991));
#988=FILL_AREA_STYLE_COLOUR('Default',#992);
#989=FILL_AREA_STYLE_COLOUR('Opaque(191,191,191)',#993);
#990=FILL_AREA_STYLE_COLOUR('Glass - Light Color (Blue)',#994);
#991=FILL_AREA_STYLE_COLOUR('Opaque(192,192,192)',#995);
#992=COLOUR_RGB('Default',0.749019607843137,0.749019607843137,0.749019607843137);
#993=COLOUR_RGB('Opaque(191,191,191)',0.749019607843137,0.749019607843137,
0.749019607843137);
#994=COLOUR_RGB('Glass - Light Color (Blue)',0.423529411764706,0.768627450980392,
0.854901960784314);
#995=COLOUR_RGB('Opaque(192,192,192)',0.752941176470588,0.752941176470588,
0.752941176470588);
ENDSEC;
END-ISO-10303-21;
