ISO-10303-21;
HEADER;
/* Generated by software containing ST-Developer
 * from STEP Tools, Inc. (www.steptools.com) 
 */

FILE_DESCRIPTION(
/* description */ (''),
/* implementation_level */ '2;1');

FILE_NAME(
/* name */ '1224_ushaped.step',
/* time_stamp */ '2025-12-24T14:10:39-08:00',
/* author */ (''),
/* organization */ (''),
/* preprocessor_version */ 'ST-DEVELOPER v20.1',
/* originating_system */ 'Autodesk Translation Framework v14.21.0.0',
/* authorisation */ '');

FILE_SCHEMA (('AUTOMOTIVE_DESIGN { 1 0 10303 214 3 1 1 }'));
ENDSEC;

DATA;
#10=MECHANICAL_DESIGN_GEOMETRIC_PRESENTATION_REPRESENTATION('',(#13),#732);
#11=SHAPE_REPRESENTATION_RELATIONSHIP('SRR','None',#738,#12);
#12=ADVANCED_BREP_SHAPE_REPRESENTATION('',(#14),#731);
#13=STYLED_ITEM('',(#750),#14);
#14=MANIFOLD_SOLID_BREP('Body3',#403);
#15=PLANE('',#423);
#16=PLANE('',#424);
#17=PLANE('',#427);
#18=PLANE('',#429);
#19=PLANE('',#432);
#20=PLANE('',#434);
#21=PLANE('',#436);
#22=PLANE('',#438);
#23=PLANE('',#443);
#24=PLANE('',#446);
#25=PLANE('',#448);
#26=PLANE('',#454);
#27=FACE_BOUND('',#70,.T.);
#28=FACE_BOUND('',#73,.T.);
#29=FACE_BOUND('',#74,.T.);
#30=FACE_BOUND('',#76,.T.);
#31=FACE_BOUND('',#77,.T.);
#32=FACE_BOUND('',#82,.T.);
#33=FACE_BOUND('',#84,.T.);
#34=FACE_BOUND('',#86,.T.);
#35=FACE_BOUND('',#94,.T.);
#36=FACE_BOUND('',#98,.T.);
#37=B_SPLINE_CURVE_WITH_KNOTS('',3,(#627,#628,#629,#630,#631,#632,#633,
#634,#635,#636,#637,#638,#639,#640,#641,#642,#643,#644),.UNSPECIFIED.,.F.,
 .F.,(4,2,2,2,2,2,2,2,4),(0.,0.246330131207202,0.492660262414403,0.738987407570827,
0.985314552727251,1.23164169788367,1.4779688430401,1.7242989742473,1.9706291054545),
 .UNSPECIFIED.);
#38=B_SPLINE_CURVE_WITH_KNOTS('',3,(#645,#646,#647,#648,#649,#650,#651,
#652,#653,#654,#655,#656,#657,#658,#659,#660,#661,#662),.UNSPECIFIED.,.F.,
 .F.,(4,2,2,2,2,2,2,2,4),(1.9706291054545,2.2169592366617,2.46328936786891,
2.70961651302533,2.95594365818175,3.20227080333818,3.4485979484946,3.6949280797018,
3.941258210909),.UNSPECIFIED.);
#39=FACE_OUTER_BOUND('',#64,.T.);
#40=FACE_OUTER_BOUND('',#65,.T.);
#41=FACE_OUTER_BOUND('',#66,.T.);
#42=FACE_OUTER_BOUND('',#67,.T.);
#43=FACE_OUTER_BOUND('',#68,.T.);
#44=FACE_OUTER_BOUND('',#69,.T.);
#45=FACE_OUTER_BOUND('',#71,.T.);
#46=FACE_OUTER_BOUND('',#72,.T.);
#47=FACE_OUTER_BOUND('',#75,.T.);
#48=FACE_OUTER_BOUND('',#78,.T.);
#49=FACE_OUTER_BOUND('',#79,.T.);
#50=FACE_OUTER_BOUND('',#80,.T.);
#51=FACE_OUTER_BOUND('',#81,.T.);
#52=FACE_OUTER_BOUND('',#83,.T.);
#53=FACE_OUTER_BOUND('',#85,.T.);
#54=FACE_OUTER_BOUND('',#87,.T.);
#55=FACE_OUTER_BOUND('',#88,.T.);
#56=FACE_OUTER_BOUND('',#89,.T.);
#57=FACE_OUTER_BOUND('',#90,.T.);
#58=FACE_OUTER_BOUND('',#91,.T.);
#59=FACE_OUTER_BOUND('',#92,.T.);
#60=FACE_OUTER_BOUND('',#93,.T.);
#61=FACE_OUTER_BOUND('',#95,.T.);
#62=FACE_OUTER_BOUND('',#96,.T.);
#63=FACE_OUTER_BOUND('',#97,.T.);
#64=EDGE_LOOP('',(#261,#262,#263,#264));
#65=EDGE_LOOP('',(#265,#266,#267,#268));
#66=EDGE_LOOP('',(#269,#270,#271,#272));
#67=EDGE_LOOP('',(#273,#274,#275,#276));
#68=EDGE_LOOP('',(#277,#278,#279,#280));
#69=EDGE_LOOP('',(#281,#282,#283,#284));
#70=EDGE_LOOP('',(#285,#286));
#71=EDGE_LOOP('',(#287,#288,#289,#290,#291,#292));
#72=EDGE_LOOP('',(#293,#294,#295,#296));
#73=EDGE_LOOP('',(#297));
#74=EDGE_LOOP('',(#298));
#75=EDGE_LOOP('',(#299,#300,#301,#302));
#76=EDGE_LOOP('',(#303,#304,#305,#306));
#77=EDGE_LOOP('',(#307));
#78=EDGE_LOOP('',(#308,#309,#310,#311,#312,#313));
#79=EDGE_LOOP('',(#314,#315,#316,#317,#318));
#80=EDGE_LOOP('',(#319));
#81=EDGE_LOOP('',(#320));
#82=EDGE_LOOP('',(#321));
#83=EDGE_LOOP('',(#322,#323,#324,#325));
#84=EDGE_LOOP('',(#326));
#85=EDGE_LOOP('',(#327,#328,#329,#330));
#86=EDGE_LOOP('',(#331));
#87=EDGE_LOOP('',(#332,#333,#334,#335));
#88=EDGE_LOOP('',(#336,#337,#338,#339));
#89=EDGE_LOOP('',(#340));
#90=EDGE_LOOP('',(#341,#342,#343,#344));
#91=EDGE_LOOP('',(#345));
#92=EDGE_LOOP('',(#346,#347,#348,#349));
#93=EDGE_LOOP('',(#350));
#94=EDGE_LOOP('',(#351));
#95=EDGE_LOOP('',(#352,#353,#354,#355));
#96=EDGE_LOOP('',(#356,#357,#358,#359));
#97=EDGE_LOOP('',(#360,#361,#362,#363));
#98=EDGE_LOOP('',(#364));
#99=LINE('',#588,#124);
#100=LINE('',#591,#125);
#101=LINE('',#597,#126);
#102=LINE('',#603,#127);
#103=LINE('',#612,#128);
#104=LINE('',#615,#129);
#105=LINE('',#621,#130);
#106=LINE('',#624,#131);
#107=LINE('',#664,#132);
#108=LINE('',#666,#133);
#109=LINE('',#668,#134);
#110=LINE('',#669,#135);
#111=LINE('',#672,#136);
#112=LINE('',#673,#137);
#113=LINE('',#679,#138);
#114=LINE('',#684,#139);
#115=LINE('',#685,#140);
#116=LINE('',#689,#141);
#117=LINE('',#700,#142);
#118=LINE('',#704,#143);
#119=LINE('',#707,#144);
#120=LINE('',#712,#145);
#121=LINE('',#716,#146);
#122=LINE('',#723,#147);
#123=LINE('',#726,#148);
#124=VECTOR('',#461,10.);
#125=VECTOR('',#464,10.);
#126=VECTOR('',#471,10.);
#127=VECTOR('',#478,10.);
#128=VECTOR('',#489,10.);
#129=VECTOR('',#492,10.);
#130=VECTOR('',#497,10.);
#131=VECTOR('',#500,10.);
#132=VECTOR('',#503,10.);
#133=VECTOR('',#504,10.);
#134=VECTOR('',#505,10.);
#135=VECTOR('',#506,10.);
#136=VECTOR('',#509,10.);
#137=VECTOR('',#510,10.);
#138=VECTOR('',#517,10.);
#139=VECTOR('',#522,10.);
#140=VECTOR('',#523,10.);
#141=VECTOR('',#528,6.5305);
#142=VECTOR('',#543,10.);
#143=VECTOR('',#548,1.55);
#144=VECTOR('',#551,1.55);
#145=VECTOR('',#558,1.55);
#146=VECTOR('',#565,12.8805);
#147=VECTOR('',#574,7.5);
#148=VECTOR('',#577,12.3);
#149=CIRCLE('',#406,30.0093494128549);
#150=CIRCLE('',#407,30.0093494128549);
#151=CIRCLE('',#409,1.49300000000003);
#152=CIRCLE('',#410,1.49300000000003);
#153=CIRCLE('',#412,15.2299999999999);
#154=CIRCLE('',#413,15.2299999999999);
#155=CIRCLE('',#415,1.49299999999995);
#156=CIRCLE('',#416,1.49299999999995);
#157=CIRCLE('',#418,15.25);
#158=CIRCLE('',#419,15.25);
#159=CIRCLE('',#421,47.6366505871452);
#160=CIRCLE('',#422,47.6366505871452);
#161=CIRCLE('',#425,1.25);
#162=CIRCLE('',#426,1.25);
#163=CIRCLE('',#428,7.5);
#164=CIRCLE('',#431,6.5305);
#165=CIRCLE('',#433,1.25);
#166=CIRCLE('',#435,12.8805);
#167=CIRCLE('',#437,1.25);
#168=CIRCLE('',#439,12.8805);
#169=CIRCLE('',#442,1.25);
#170=CIRCLE('',#445,1.25);
#171=CIRCLE('',#449,12.3);
#172=CIRCLE('',#450,7.5);
#173=CIRCLE('',#453,12.3);
#174=VERTEX_POINT('',#584);
#175=VERTEX_POINT('',#585);
#176=VERTEX_POINT('',#587);
#177=VERTEX_POINT('',#589);
#178=VERTEX_POINT('',#593);
#179=VERTEX_POINT('',#595);
#180=VERTEX_POINT('',#599);
#181=VERTEX_POINT('',#601);
#182=VERTEX_POINT('',#608);
#183=VERTEX_POINT('',#609);
#184=VERTEX_POINT('',#611);
#185=VERTEX_POINT('',#613);
#186=VERTEX_POINT('',#617);
#187=VERTEX_POINT('',#618);
#188=VERTEX_POINT('',#620);
#189=VERTEX_POINT('',#622);
#190=VERTEX_POINT('',#625);
#191=VERTEX_POINT('',#626);
#192=VERTEX_POINT('',#665);
#193=VERTEX_POINT('',#667);
#194=VERTEX_POINT('',#671);
#195=VERTEX_POINT('',#674);
#196=VERTEX_POINT('',#676);
#197=VERTEX_POINT('',#680);
#198=VERTEX_POINT('',#683);
#199=VERTEX_POINT('',#687);
#200=VERTEX_POINT('',#691);
#201=VERTEX_POINT('',#694);
#202=VERTEX_POINT('',#697);
#203=VERTEX_POINT('',#701);
#204=VERTEX_POINT('',#706);
#205=VERTEX_POINT('',#711);
#206=VERTEX_POINT('',#718);
#207=VERTEX_POINT('',#720);
#208=VERTEX_POINT('',#725);
#209=EDGE_CURVE('',#174,#175,#149,.T.);
#210=EDGE_CURVE('',#176,#175,#99,.T.);
#211=EDGE_CURVE('',#177,#176,#150,.T.);
#212=EDGE_CURVE('',#177,#174,#100,.T.);
#213=EDGE_CURVE('',#178,#174,#151,.T.);
#214=EDGE_CURVE('',#179,#177,#152,.T.);
#215=EDGE_CURVE('',#179,#178,#101,.T.);
#216=EDGE_CURVE('',#180,#178,#153,.T.);
#217=EDGE_CURVE('',#181,#179,#154,.T.);
#218=EDGE_CURVE('',#181,#180,#102,.T.);
#219=EDGE_CURVE('',#175,#180,#155,.T.);
#220=EDGE_CURVE('',#176,#181,#156,.T.);
#221=EDGE_CURVE('',#182,#183,#157,.T.);
#222=EDGE_CURVE('',#183,#184,#103,.T.);
#223=EDGE_CURVE('',#185,#184,#158,.T.);
#224=EDGE_CURVE('',#185,#182,#104,.T.);
#225=EDGE_CURVE('',#186,#187,#159,.T.);
#226=EDGE_CURVE('',#188,#187,#105,.T.);
#227=EDGE_CURVE('',#189,#188,#160,.T.);
#228=EDGE_CURVE('',#186,#189,#106,.T.);
#229=EDGE_CURVE('',#190,#191,#37,.T.);
#230=EDGE_CURVE('',#191,#190,#38,.T.);
#231=EDGE_CURVE('',#183,#186,#107,.T.);
#232=EDGE_CURVE('',#192,#189,#108,.T.);
#233=EDGE_CURVE('',#193,#192,#109,.T.);
#234=EDGE_CURVE('',#184,#193,#110,.T.);
#235=EDGE_CURVE('',#194,#188,#111,.T.);
#236=EDGE_CURVE('',#192,#194,#112,.T.);
#237=EDGE_CURVE('',#195,#195,#161,.F.);
#238=EDGE_CURVE('',#196,#196,#162,.F.);
#239=EDGE_CURVE('',#187,#182,#113,.T.);
#240=EDGE_CURVE('',#197,#197,#163,.T.);
#241=EDGE_CURVE('',#185,#198,#114,.T.);
#242=EDGE_CURVE('',#194,#198,#115,.T.);
#243=EDGE_CURVE('',#199,#199,#164,.T.);
#244=EDGE_CURVE('',#199,#191,#116,.T.);
#245=EDGE_CURVE('',#200,#200,#165,.T.);
#246=EDGE_CURVE('',#201,#201,#166,.T.);
#247=EDGE_CURVE('',#202,#202,#167,.T.);
#248=EDGE_CURVE('',#198,#193,#117,.T.);
#249=EDGE_CURVE('',#203,#203,#168,.T.);
#250=EDGE_CURVE('',#202,#200,#118,.T.);
#251=EDGE_CURVE('',#196,#204,#119,.T.);
#252=EDGE_CURVE('',#204,#204,#169,.T.);
#253=EDGE_CURVE('',#195,#205,#120,.T.);
#254=EDGE_CURVE('',#205,#205,#170,.T.);
#255=EDGE_CURVE('',#201,#203,#121,.T.);
#256=EDGE_CURVE('',#206,#206,#171,.T.);
#257=EDGE_CURVE('',#207,#207,#172,.T.);
#258=EDGE_CURVE('',#197,#207,#122,.T.);
#259=EDGE_CURVE('',#206,#208,#123,.T.);
#260=EDGE_CURVE('',#208,#208,#173,.T.);
#261=ORIENTED_EDGE('',*,*,#209,.T.);
#262=ORIENTED_EDGE('',*,*,#210,.F.);
#263=ORIENTED_EDGE('',*,*,#211,.F.);
#264=ORIENTED_EDGE('',*,*,#212,.T.);
#265=ORIENTED_EDGE('',*,*,#213,.T.);
#266=ORIENTED_EDGE('',*,*,#212,.F.);
#267=ORIENTED_EDGE('',*,*,#214,.F.);
#268=ORIENTED_EDGE('',*,*,#215,.T.);
#269=ORIENTED_EDGE('',*,*,#216,.T.);
#270=ORIENTED_EDGE('',*,*,#215,.F.);
#271=ORIENTED_EDGE('',*,*,#217,.F.);
#272=ORIENTED_EDGE('',*,*,#218,.T.);
#273=ORIENTED_EDGE('',*,*,#219,.T.);
#274=ORIENTED_EDGE('',*,*,#218,.F.);
#275=ORIENTED_EDGE('',*,*,#220,.F.);
#276=ORIENTED_EDGE('',*,*,#210,.T.);
#277=ORIENTED_EDGE('',*,*,#221,.T.);
#278=ORIENTED_EDGE('',*,*,#222,.T.);
#279=ORIENTED_EDGE('',*,*,#223,.F.);
#280=ORIENTED_EDGE('',*,*,#224,.T.);
#281=ORIENTED_EDGE('',*,*,#225,.T.);
#282=ORIENTED_EDGE('',*,*,#226,.F.);
#283=ORIENTED_EDGE('',*,*,#227,.F.);
#284=ORIENTED_EDGE('',*,*,#228,.F.);
#285=ORIENTED_EDGE('',*,*,#229,.F.);
#286=ORIENTED_EDGE('',*,*,#230,.F.);
#287=ORIENTED_EDGE('',*,*,#231,.T.);
#288=ORIENTED_EDGE('',*,*,#228,.T.);
#289=ORIENTED_EDGE('',*,*,#232,.F.);
#290=ORIENTED_EDGE('',*,*,#233,.F.);
#291=ORIENTED_EDGE('',*,*,#234,.F.);
#292=ORIENTED_EDGE('',*,*,#222,.F.);
#293=ORIENTED_EDGE('',*,*,#227,.T.);
#294=ORIENTED_EDGE('',*,*,#235,.F.);
#295=ORIENTED_EDGE('',*,*,#236,.F.);
#296=ORIENTED_EDGE('',*,*,#232,.T.);
#297=ORIENTED_EDGE('',*,*,#237,.T.);
#298=ORIENTED_EDGE('',*,*,#238,.T.);
#299=ORIENTED_EDGE('',*,*,#221,.F.);
#300=ORIENTED_EDGE('',*,*,#239,.F.);
#301=ORIENTED_EDGE('',*,*,#225,.F.);
#302=ORIENTED_EDGE('',*,*,#231,.F.);
#303=ORIENTED_EDGE('',*,*,#213,.F.);
#304=ORIENTED_EDGE('',*,*,#216,.F.);
#305=ORIENTED_EDGE('',*,*,#219,.F.);
#306=ORIENTED_EDGE('',*,*,#209,.F.);
#307=ORIENTED_EDGE('',*,*,#240,.F.);
#308=ORIENTED_EDGE('',*,*,#239,.T.);
#309=ORIENTED_EDGE('',*,*,#224,.F.);
#310=ORIENTED_EDGE('',*,*,#241,.T.);
#311=ORIENTED_EDGE('',*,*,#242,.F.);
#312=ORIENTED_EDGE('',*,*,#235,.T.);
#313=ORIENTED_EDGE('',*,*,#226,.T.);
#314=ORIENTED_EDGE('',*,*,#243,.F.);
#315=ORIENTED_EDGE('',*,*,#244,.T.);
#316=ORIENTED_EDGE('',*,*,#230,.T.);
#317=ORIENTED_EDGE('',*,*,#229,.T.);
#318=ORIENTED_EDGE('',*,*,#244,.F.);
#319=ORIENTED_EDGE('',*,*,#245,.F.);
#320=ORIENTED_EDGE('',*,*,#246,.F.);
#321=ORIENTED_EDGE('',*,*,#243,.T.);
#322=ORIENTED_EDGE('',*,*,#211,.T.);
#323=ORIENTED_EDGE('',*,*,#220,.T.);
#324=ORIENTED_EDGE('',*,*,#217,.T.);
#325=ORIENTED_EDGE('',*,*,#214,.T.);
#326=ORIENTED_EDGE('',*,*,#247,.T.);
#327=ORIENTED_EDGE('',*,*,#236,.T.);
#328=ORIENTED_EDGE('',*,*,#242,.T.);
#329=ORIENTED_EDGE('',*,*,#248,.T.);
#330=ORIENTED_EDGE('',*,*,#233,.T.);
#331=ORIENTED_EDGE('',*,*,#249,.T.);
#332=ORIENTED_EDGE('',*,*,#247,.F.);
#333=ORIENTED_EDGE('',*,*,#250,.T.);
#334=ORIENTED_EDGE('',*,*,#245,.T.);
#335=ORIENTED_EDGE('',*,*,#250,.F.);
#336=ORIENTED_EDGE('',*,*,#238,.F.);
#337=ORIENTED_EDGE('',*,*,#251,.T.);
#338=ORIENTED_EDGE('',*,*,#252,.T.);
#339=ORIENTED_EDGE('',*,*,#251,.F.);
#340=ORIENTED_EDGE('',*,*,#252,.F.);
#341=ORIENTED_EDGE('',*,*,#237,.F.);
#342=ORIENTED_EDGE('',*,*,#253,.T.);
#343=ORIENTED_EDGE('',*,*,#254,.T.);
#344=ORIENTED_EDGE('',*,*,#253,.F.);
#345=ORIENTED_EDGE('',*,*,#254,.F.);
#346=ORIENTED_EDGE('',*,*,#246,.T.);
#347=ORIENTED_EDGE('',*,*,#255,.T.);
#348=ORIENTED_EDGE('',*,*,#249,.F.);
#349=ORIENTED_EDGE('',*,*,#255,.F.);
#350=ORIENTED_EDGE('',*,*,#256,.F.);
#351=ORIENTED_EDGE('',*,*,#257,.T.);
#352=ORIENTED_EDGE('',*,*,#240,.T.);
#353=ORIENTED_EDGE('',*,*,#258,.T.);
#354=ORIENTED_EDGE('',*,*,#257,.F.);
#355=ORIENTED_EDGE('',*,*,#258,.F.);
#356=ORIENTED_EDGE('',*,*,#256,.T.);
#357=ORIENTED_EDGE('',*,*,#259,.T.);
#358=ORIENTED_EDGE('',*,*,#260,.F.);
#359=ORIENTED_EDGE('',*,*,#259,.F.);
#360=ORIENTED_EDGE('',*,*,#241,.F.);
#361=ORIENTED_EDGE('',*,*,#223,.T.);
#362=ORIENTED_EDGE('',*,*,#234,.T.);
#363=ORIENTED_EDGE('',*,*,#248,.F.);
#364=ORIENTED_EDGE('',*,*,#260,.T.);
#365=CYLINDRICAL_SURFACE('',#405,30.0093494128549);
#366=CYLINDRICAL_SURFACE('',#408,1.49300000000003);
#367=CYLINDRICAL_SURFACE('',#411,15.2299999999999);
#368=CYLINDRICAL_SURFACE('',#414,1.49299999999995);
#369=CYLINDRICAL_SURFACE('',#417,15.25);
#370=CYLINDRICAL_SURFACE('',#420,47.6366505871452);
#371=CYLINDRICAL_SURFACE('',#430,6.5305);
#372=CYLINDRICAL_SURFACE('',#440,1.25);
#373=CYLINDRICAL_SURFACE('',#441,1.25);
#374=CYLINDRICAL_SURFACE('',#444,1.25);
#375=CYLINDRICAL_SURFACE('',#447,12.8805);
#376=CYLINDRICAL_SURFACE('',#451,7.5);
#377=CYLINDRICAL_SURFACE('',#452,12.3);
#378=ADVANCED_FACE('',(#39),#365,.T.);
#379=ADVANCED_FACE('',(#40),#366,.T.);
#380=ADVANCED_FACE('',(#41),#367,.T.);
#381=ADVANCED_FACE('',(#42),#368,.T.);
#382=ADVANCED_FACE('',(#43),#369,.T.);
#383=ADVANCED_FACE('',(#44,#27),#370,.F.);
#384=ADVANCED_FACE('',(#45),#15,.T.);
#385=ADVANCED_FACE('',(#46,#28,#29),#16,.F.);
#386=ADVANCED_FACE('',(#47,#30,#31),#17,.F.);
#387=ADVANCED_FACE('',(#48),#18,.T.);
#388=ADVANCED_FACE('',(#49),#371,.F.);
#389=ADVANCED_FACE('',(#50),#19,.T.);
#390=ADVANCED_FACE('',(#51,#32),#20,.T.);
#391=ADVANCED_FACE('',(#52,#33),#21,.F.);
#392=ADVANCED_FACE('',(#53,#34),#22,.T.);
#393=ADVANCED_FACE('',(#54),#372,.F.);
#394=ADVANCED_FACE('',(#55),#373,.F.);
#395=ADVANCED_FACE('',(#56),#23,.T.);
#396=ADVANCED_FACE('',(#57),#374,.F.);
#397=ADVANCED_FACE('',(#58),#24,.T.);
#398=ADVANCED_FACE('',(#59),#375,.F.);
#399=ADVANCED_FACE('',(#60,#35),#25,.T.);
#400=ADVANCED_FACE('',(#61),#376,.F.);
#401=ADVANCED_FACE('',(#62),#377,.F.);
#402=ADVANCED_FACE('',(#63,#36),#26,.F.);
#403=CLOSED_SHELL('',(#378,#379,#380,#381,#382,#383,#384,#385,#386,#387,
#388,#389,#390,#391,#392,#393,#394,#395,#396,#397,#398,#399,#400,#401,#402));
#404=AXIS2_PLACEMENT_3D('',#582,#455,#456);
#405=AXIS2_PLACEMENT_3D('',#583,#457,#458);
#406=AXIS2_PLACEMENT_3D('',#586,#459,#460);
#407=AXIS2_PLACEMENT_3D('',#590,#462,#463);
#408=AXIS2_PLACEMENT_3D('',#592,#465,#466);
#409=AXIS2_PLACEMENT_3D('',#594,#467,#468);
#410=AXIS2_PLACEMENT_3D('',#596,#469,#470);
#411=AXIS2_PLACEMENT_3D('',#598,#472,#473);
#412=AXIS2_PLACEMENT_3D('',#600,#474,#475);
#413=AXIS2_PLACEMENT_3D('',#602,#476,#477);
#414=AXIS2_PLACEMENT_3D('',#604,#479,#480);
#415=AXIS2_PLACEMENT_3D('',#605,#481,#482);
#416=AXIS2_PLACEMENT_3D('',#606,#483,#484);
#417=AXIS2_PLACEMENT_3D('',#607,#485,#486);
#418=AXIS2_PLACEMENT_3D('',#610,#487,#488);
#419=AXIS2_PLACEMENT_3D('',#614,#490,#491);
#420=AXIS2_PLACEMENT_3D('',#616,#493,#494);
#421=AXIS2_PLACEMENT_3D('',#619,#495,#496);
#422=AXIS2_PLACEMENT_3D('',#623,#498,#499);
#423=AXIS2_PLACEMENT_3D('',#663,#501,#502);
#424=AXIS2_PLACEMENT_3D('',#670,#507,#508);
#425=AXIS2_PLACEMENT_3D('',#675,#511,#512);
#426=AXIS2_PLACEMENT_3D('',#677,#513,#514);
#427=AXIS2_PLACEMENT_3D('',#678,#515,#516);
#428=AXIS2_PLACEMENT_3D('',#681,#518,#519);
#429=AXIS2_PLACEMENT_3D('',#682,#520,#521);
#430=AXIS2_PLACEMENT_3D('',#686,#524,#525);
#431=AXIS2_PLACEMENT_3D('',#688,#526,#527);
#432=AXIS2_PLACEMENT_3D('',#690,#529,#530);
#433=AXIS2_PLACEMENT_3D('',#692,#531,#532);
#434=AXIS2_PLACEMENT_3D('',#693,#533,#534);
#435=AXIS2_PLACEMENT_3D('',#695,#535,#536);
#436=AXIS2_PLACEMENT_3D('',#696,#537,#538);
#437=AXIS2_PLACEMENT_3D('',#698,#539,#540);
#438=AXIS2_PLACEMENT_3D('',#699,#541,#542);
#439=AXIS2_PLACEMENT_3D('',#702,#544,#545);
#440=AXIS2_PLACEMENT_3D('',#703,#546,#547);
#441=AXIS2_PLACEMENT_3D('',#705,#549,#550);
#442=AXIS2_PLACEMENT_3D('',#708,#552,#553);
#443=AXIS2_PLACEMENT_3D('',#709,#554,#555);
#444=AXIS2_PLACEMENT_3D('',#710,#556,#557);
#445=AXIS2_PLACEMENT_3D('',#713,#559,#560);
#446=AXIS2_PLACEMENT_3D('',#714,#561,#562);
#447=AXIS2_PLACEMENT_3D('',#715,#563,#564);
#448=AXIS2_PLACEMENT_3D('',#717,#566,#567);
#449=AXIS2_PLACEMENT_3D('',#719,#568,#569);
#450=AXIS2_PLACEMENT_3D('',#721,#570,#571);
#451=AXIS2_PLACEMENT_3D('',#722,#572,#573);
#452=AXIS2_PLACEMENT_3D('',#724,#575,#576);
#453=AXIS2_PLACEMENT_3D('',#727,#578,#579);
#454=AXIS2_PLACEMENT_3D('',#728,#580,#581);
#455=DIRECTION('axis',(0.,0.,1.));
#456=DIRECTION('refdir',(1.,0.,0.));
#457=DIRECTION('center_axis',(0.,0.,-1.));
#458=DIRECTION('ref_axis',(-0.962750045029309,0.270392956261926,0.));
#459=DIRECTION('center_axis',(0.,0.,1.));
#460=DIRECTION('ref_axis',(-0.962750045029309,0.270392956261926,0.));
#461=DIRECTION('',(0.,0.,-1.));
#462=DIRECTION('center_axis',(0.,0.,1.));
#463=DIRECTION('ref_axis',(-0.962750045029309,0.270392956261926,0.));
#464=DIRECTION('',(0.,0.,-1.));
#465=DIRECTION('center_axis',(0.,0.,-1.));
#466=DIRECTION('ref_axis',(0.827610345686999,0.561303051578953,0.));
#467=DIRECTION('center_axis',(0.,0.,1.));
#468=DIRECTION('ref_axis',(0.827610345686999,0.561303051578953,0.));
#469=DIRECTION('center_axis',(0.,0.,1.));
#470=DIRECTION('ref_axis',(0.827610345686999,0.561303051578953,0.));
#471=DIRECTION('',(0.,0.,-1.));
#472=DIRECTION('center_axis',(0.,0.,-1.));
#473=DIRECTION('ref_axis',(0.827610345687009,-0.561303051578939,0.));
#474=DIRECTION('center_axis',(0.,0.,1.));
#475=DIRECTION('ref_axis',(0.827610345687009,-0.561303051578939,0.));
#476=DIRECTION('center_axis',(0.,0.,1.));
#477=DIRECTION('ref_axis',(0.827610345687009,-0.561303051578939,0.));
#478=DIRECTION('',(0.,0.,-1.));
#479=DIRECTION('center_axis',(0.,0.,-1.));
#480=DIRECTION('ref_axis',(-0.962750045029308,-0.270392956261928,0.));
#481=DIRECTION('center_axis',(0.,0.,1.));
#482=DIRECTION('ref_axis',(-0.962750045029308,-0.270392956261928,0.));
#483=DIRECTION('center_axis',(0.,0.,1.));
#484=DIRECTION('ref_axis',(-0.962750045029308,-0.270392956261928,0.));
#485=DIRECTION('center_axis',(0.,0.,-1.));
#486=DIRECTION('ref_axis',(1.,0.,0.));
#487=DIRECTION('center_axis',(0.,0.,-1.));
#488=DIRECTION('ref_axis',(1.,0.,0.));
#489=DIRECTION('',(0.,0.,-1.));
#490=DIRECTION('center_axis',(0.,0.,-1.));
#491=DIRECTION('ref_axis',(1.,0.,0.));
#492=DIRECTION('',(0.,0.,1.));
#493=DIRECTION('center_axis',(0.,0.,-1.));
#494=DIRECTION('ref_axis',(-0.958013516455037,0.286723041085739,0.));
#495=DIRECTION('center_axis',(0.,0.,-1.));
#496=DIRECTION('ref_axis',(-0.958013516455037,0.286723041085739,0.));
#497=DIRECTION('',(0.,0.,-1.));
#498=DIRECTION('center_axis',(0.,0.,-1.));
#499=DIRECTION('ref_axis',(-0.958013516455037,0.286723041085739,0.));
#500=DIRECTION('',(0.,0.,1.));
#501=DIRECTION('center_axis',(1.07513588960359E-15,-1.,0.));
#502=DIRECTION('ref_axis',(-1.,-1.07513588960359E-15,0.));
#503=DIRECTION('',(-1.,-1.07513588960359E-15,0.));
#504=DIRECTION('',(1.,1.07513588960359E-15,0.));
#505=DIRECTION('',(0.,0.,1.));
#506=DIRECTION('',(-1.,-1.07513588960359E-15,0.));
#507=DIRECTION('center_axis',(0.,0.,-1.));
#508=DIRECTION('ref_axis',(-1.,0.,0.));
#509=DIRECTION('',(1.,0.,0.));
#510=DIRECTION('',(0.,1.,0.));
#511=DIRECTION('center_axis',(0.,0.,1.));
#512=DIRECTION('ref_axis',(-1.,0.,0.));
#513=DIRECTION('center_axis',(0.,0.,1.));
#514=DIRECTION('ref_axis',(-1.,0.,0.));
#515=DIRECTION('center_axis',(0.,0.,-1.));
#516=DIRECTION('ref_axis',(-1.,0.,0.));
#517=DIRECTION('',(1.,0.,0.));
#518=DIRECTION('center_axis',(0.,0.,1.));
#519=DIRECTION('ref_axis',(1.,0.,0.));
#520=DIRECTION('center_axis',(0.,1.,0.));
#521=DIRECTION('ref_axis',(1.,0.,0.));
#522=DIRECTION('',(-1.,0.,0.));
#523=DIRECTION('',(0.,0.,-1.));
#524=DIRECTION('center_axis',(1.,0.,0.));
#525=DIRECTION('ref_axis',(0.,-1.,0.));
#526=DIRECTION('center_axis',(1.,0.,0.));
#527=DIRECTION('ref_axis',(0.,-1.,0.));
#528=DIRECTION('',(1.,0.,0.));
#529=DIRECTION('center_axis',(0.,0.,1.));
#530=DIRECTION('ref_axis',(1.,0.,0.));
#531=DIRECTION('center_axis',(0.,0.,-1.));
#532=DIRECTION('ref_axis',(1.,0.,0.));
#533=DIRECTION('center_axis',(-1.,0.,0.));
#534=DIRECTION('ref_axis',(0.,-1.,0.));
#535=DIRECTION('center_axis',(1.,0.,0.));
#536=DIRECTION('ref_axis',(0.,-1.,0.));
#537=DIRECTION('center_axis',(0.,0.,-1.));
#538=DIRECTION('ref_axis',(-1.,0.,0.));
#539=DIRECTION('center_axis',(0.,0.,-1.));
#540=DIRECTION('ref_axis',(1.,0.,0.));
#541=DIRECTION('center_axis',(-1.,0.,0.));
#542=DIRECTION('ref_axis',(0.,1.,0.));
#543=DIRECTION('',(0.,-1.,0.));
#544=DIRECTION('center_axis',(1.,0.,0.));
#545=DIRECTION('ref_axis',(0.,-1.,0.));
#546=DIRECTION('center_axis',(0.,0.,-1.));
#547=DIRECTION('ref_axis',(1.,0.,0.));
#548=DIRECTION('',(0.,0.,-1.));
#549=DIRECTION('center_axis',(0.,0.,-1.));
#550=DIRECTION('ref_axis',(-1.,0.,0.));
#551=DIRECTION('',(0.,0.,-1.));
#552=DIRECTION('center_axis',(0.,0.,-1.));
#553=DIRECTION('ref_axis',(-1.,0.,0.));
#554=DIRECTION('center_axis',(0.,0.,1.));
#555=DIRECTION('ref_axis',(-1.,0.,0.));
#556=DIRECTION('center_axis',(0.,0.,-1.));
#557=DIRECTION('ref_axis',(-1.,0.,0.));
#558=DIRECTION('',(0.,0.,-1.));
#559=DIRECTION('center_axis',(0.,0.,-1.));
#560=DIRECTION('ref_axis',(-1.,0.,0.));
#561=DIRECTION('center_axis',(0.,0.,1.));
#562=DIRECTION('ref_axis',(-1.,0.,0.));
#563=DIRECTION('center_axis',(1.,0.,0.));
#564=DIRECTION('ref_axis',(0.,-1.,0.));
#565=DIRECTION('',(-1.,0.,0.));
#566=DIRECTION('center_axis',(0.,0.,-1.));
#567=DIRECTION('ref_axis',(-1.,0.,0.));
#568=DIRECTION('center_axis',(0.,0.,1.));
#569=DIRECTION('ref_axis',(-1.,0.,0.));
#570=DIRECTION('center_axis',(0.,0.,1.));
#571=DIRECTION('ref_axis',(1.,0.,0.));
#572=DIRECTION('center_axis',(0.,0.,-1.));
#573=DIRECTION('ref_axis',(1.,0.,0.));
#574=DIRECTION('',(0.,0.,-1.));
#575=DIRECTION('center_axis',(0.,0.,-1.));
#576=DIRECTION('ref_axis',(-1.,0.,0.));
#577=DIRECTION('',(0.,0.,-1.));
#578=DIRECTION('center_axis',(0.,0.,1.));
#579=DIRECTION('ref_axis',(-1.,0.,0.));
#580=DIRECTION('center_axis',(0.,0.,1.));
#581=DIRECTION('ref_axis',(1.,0.,0.));
#582=CARTESIAN_POINT('',(0.,0.,0.));
#583=CARTESIAN_POINT('Origin',(46.0416505871451,9.83519616991494,3.));
#584=CARTESIAN_POINT('',(17.1501480886187,17.9495128731539,-20.532));
#585=CARTESIAN_POINT('',(17.1501480886187,1.72087946667599,-20.532));
#586=CARTESIAN_POINT('Origin',(46.0416505871451,9.83519616991494,-20.532));
#587=CARTESIAN_POINT('',(17.1501480886187,1.72087946667599,3.));
#588=CARTESIAN_POINT('',(17.1501480886187,1.72087946667599,3.));
#589=CARTESIAN_POINT('',(17.1501480886187,17.9495128731539,3.));
#590=CARTESIAN_POINT('Origin',(46.0416505871451,9.83519616991494,3.));
#591=CARTESIAN_POINT('',(17.1501480886187,17.9495128731539,3.));
#592=CARTESIAN_POINT('Origin',(18.5875339058475,17.5458161894548,3.));
#593=CARTESIAN_POINT('',(19.8231561519582,18.3838416454622,-20.532));
#594=CARTESIAN_POINT('Origin',(18.5875339058475,17.5458161894548,-20.532));
#595=CARTESIAN_POINT('',(19.8231561519582,18.3838416454622,3.));
#596=CARTESIAN_POINT('Origin',(18.5875339058475,17.5458161894548,3.));
#597=CARTESIAN_POINT('',(19.8231561519582,18.3838416454622,3.));
#598=CARTESIAN_POINT('Origin',(7.2186505871451,9.83519616991495,3.));
#599=CARTESIAN_POINT('',(19.8231561519582,1.28655069436774,-20.532));
#600=CARTESIAN_POINT('Origin',(7.2186505871451,9.83519616991495,-20.532));
#601=CARTESIAN_POINT('',(19.8231561519582,1.28655069436774,3.));
#602=CARTESIAN_POINT('Origin',(7.2186505871451,9.83519616991495,3.));
#603=CARTESIAN_POINT('',(19.8231561519582,1.28655069436774,3.));
#604=CARTESIAN_POINT('Origin',(18.5875339058475,2.12457615037505,3.));
#605=CARTESIAN_POINT('Origin',(18.5875339058475,2.12457615037505,-20.532));
#606=CARTESIAN_POINT('Origin',(18.5875339058475,2.12457615037505,3.));
#607=CARTESIAN_POINT('Origin',(7.2186505871451,9.83519616991495,0.));
#608=CARTESIAN_POINT('',(0.424255716343431,23.4879870325783,-20.532));
#609=CARTESIAN_POINT('',(0.42425571634342,-3.81759469274841,-20.532));
#610=CARTESIAN_POINT('Origin',(7.2186505871451,9.83519616991495,-20.532));
#611=CARTESIAN_POINT('',(0.424255716343416,-3.8175946927484,-30.));
#612=CARTESIAN_POINT('',(0.424255716343417,-3.8175946927484,0.));
#613=CARTESIAN_POINT('',(0.424255716343429,23.4879870325783,-30.));
#614=CARTESIAN_POINT('Origin',(7.2186505871451,9.83519616991495,-30.));
#615=CARTESIAN_POINT('',(0.424255716343431,23.4879870325783,-20.943));
#616=CARTESIAN_POINT('Origin',(37.0416505871451,9.83519616991496,5.));
#617=CARTESIAN_POINT('',(-8.59662042329227,-3.81759469274841,-20.532));
#618=CARTESIAN_POINT('',(-8.59662042329229,23.4879870325783,-20.532));
#619=CARTESIAN_POINT('Origin',(37.0416505871451,9.83519616991496,-20.532));
#620=CARTESIAN_POINT('',(-8.59662042329229,23.4879870325783,5.));
#621=CARTESIAN_POINT('',(-8.59662042329227,23.4879870325783,5.));
#622=CARTESIAN_POINT('',(-8.59662042329227,-3.81759469274841,5.));
#623=CARTESIAN_POINT('Origin',(37.0416505871451,9.83519616991496,5.));
#624=CARTESIAN_POINT('',(-8.59662042329228,-3.8175946927484,5.));
#625=CARTESIAN_POINT('',(-10.1452442981062,3.30469616991495,-10.0000001490116));
#626=CARTESIAN_POINT('',(-10.1452442981062,16.3656961699149,-10.0000001490116));
#627=CARTESIAN_POINT('Ctrl Pts',(-10.1452442981062,3.30469616991495,-10.0000001490116));
#628=CARTESIAN_POINT('Ctrl Pts',(-10.1452442981062,3.30469616991495,-10.8211005863689));
#629=CARTESIAN_POINT('Ctrl Pts',(-10.1688890620294,3.46900527863572,-11.696215352973));
#630=CARTESIAN_POINT('Ctrl Pts',(-10.2540168973558,4.13578596328585,-13.3048839388868));
#631=CARTESIAN_POINT('Ctrl Pts',(-10.314240509926,4.6382016681764,-14.0385273163506));
#632=CARTESIAN_POINT('Ctrl Pts',(-10.4270697120427,5.79666198101865,-15.1969876291928));
#633=CARTESIAN_POINT('Ctrl Pts',(-10.4870454348739,6.5303083998848,-15.6994088396766));
#634=CARTESIAN_POINT('Ctrl Pts',(-10.5716049649895,8.13898732935832,-16.3661935440934));
#635=CARTESIAN_POINT('Ctrl Pts',(-10.595,9.0141056860602,-16.5305001490116));
#636=CARTESIAN_POINT('Ctrl Pts',(-10.595,10.6562866537697,-16.5305001490116));
#637=CARTESIAN_POINT('Ctrl Pts',(-10.5716049649895,11.5314050104716,-16.3661935440934));
#638=CARTESIAN_POINT('Ctrl Pts',(-10.4870454348739,13.1400839399451,-15.6994088396766));
#639=CARTESIAN_POINT('Ctrl Pts',(-10.4270697120427,13.8737303588112,-15.1969876291928));
#640=CARTESIAN_POINT('Ctrl Pts',(-10.314240509926,15.0321906716535,-14.0385273163506));
#641=CARTESIAN_POINT('Ctrl Pts',(-10.2540168973558,15.5346063765441,-13.3048839388868));
#642=CARTESIAN_POINT('Ctrl Pts',(-10.1688890620294,16.2013870611942,-11.696215352973));
#643=CARTESIAN_POINT('Ctrl Pts',(-10.1452442981062,16.365696169915,-10.8211005863689));
#644=CARTESIAN_POINT('Ctrl Pts',(-10.1452442981062,16.365696169915,-10.0000001490116));
#645=CARTESIAN_POINT('Ctrl Pts',(-10.1452442981062,16.3656961699149,-10.0000001490116));
#646=CARTESIAN_POINT('Ctrl Pts',(-10.1452442981062,16.3656961699149,-9.17889971165427));
#647=CARTESIAN_POINT('Ctrl Pts',(-10.1688890620294,16.2013870611942,-8.30378494505021));
#648=CARTESIAN_POINT('Ctrl Pts',(-10.2540168973558,15.5346063765441,-6.6951163591364));
#649=CARTESIAN_POINT('Ctrl Pts',(-10.314240509926,15.0321906716535,-5.96147298167266));
#650=CARTESIAN_POINT('Ctrl Pts',(-10.4270697120427,13.8737303588112,-4.80301266883041));
#651=CARTESIAN_POINT('Ctrl Pts',(-10.4870454348739,13.1400839399451,-4.3005914583466));
#652=CARTESIAN_POINT('Ctrl Pts',(-10.5716049649895,11.5314050104716,-3.63380675392983));
#653=CARTESIAN_POINT('Ctrl Pts',(-10.595,10.6562866537697,-3.46950014901161));
#654=CARTESIAN_POINT('Ctrl Pts',(-10.595,9.0141056860602,-3.46950014901161));
#655=CARTESIAN_POINT('Ctrl Pts',(-10.5716049649895,8.13898732935832,-3.63380675392983));
#656=CARTESIAN_POINT('Ctrl Pts',(-10.4870454348739,6.5303083998848,-4.3005914583466));
#657=CARTESIAN_POINT('Ctrl Pts',(-10.4270697120427,5.79666198101865,-4.80301266883041));
#658=CARTESIAN_POINT('Ctrl Pts',(-10.314240509926,4.6382016681764,-5.96147298167266));
#659=CARTESIAN_POINT('Ctrl Pts',(-10.2540168973558,4.13578596328585,-6.6951163591364));
#660=CARTESIAN_POINT('Ctrl Pts',(-10.1688890620294,3.46900527863572,-8.3037849450502));
#661=CARTESIAN_POINT('Ctrl Pts',(-10.1452442981062,3.30469616991495,-9.17889971165427));
#662=CARTESIAN_POINT('Ctrl Pts',(-10.1452442981062,3.30469616991495,-10.0000001490116));
#663=CARTESIAN_POINT('Origin',(-8.57574428365658,-3.8175946927484,-2.));
#664=CARTESIAN_POINT('',(-9.08055821274243,-3.8175946927484,-20.532));
#665=CARTESIAN_POINT('',(-17.0000001937151,-3.81759469274841,5.));
#666=CARTESIAN_POINT('',(-14.0378722386858,-3.81759469274841,5.));
#667=CARTESIAN_POINT('',(-17.0000001937151,-3.81759469274841,-30.));
#668=CARTESIAN_POINT('',(-17.0000001937151,-3.81759469274841,-2.));
#669=CARTESIAN_POINT('',(-13.0000001937151,-3.81759469274841,-30.));
#670=CARTESIAN_POINT('Origin',(-20.0000001937151,9.83519616991494,5.));
#671=CARTESIAN_POINT('',(-17.0000001937151,23.4879870325783,5.));
#672=CARTESIAN_POINT('',(-21.0000001937151,23.4879870325783,5.));
#673=CARTESIAN_POINT('',(-17.0000001937151,3.00880073858326,5.));
#674=CARTESIAN_POINT('',(-10.750000193715,18.4879870325783,5.));
#675=CARTESIAN_POINT('Origin',(-12.000000193715,18.4879870325783,5.));
#676=CARTESIAN_POINT('',(-10.7500001937151,1.18240530725159,5.));
#677=CARTESIAN_POINT('Origin',(-12.0000001937151,1.18240530725159,5.));
#678=CARTESIAN_POINT('Origin',(8.27329512735546,9.83519616991495,-20.532));
#679=CARTESIAN_POINT('',(-15.7926861677717,23.4879870325783,-20.532));
#680=CARTESIAN_POINT('',(-0.281349412854902,9.83519616991495,-20.532));
#681=CARTESIAN_POINT('Origin',(7.2186505871451,9.83519616991495,-20.532));
#682=CARTESIAN_POINT('Origin',(-22.0000001937151,23.4879870325783,-2.));
#683=CARTESIAN_POINT('',(-17.0000001937151,23.4879870325783,-30.));
#684=CARTESIAN_POINT('',(-14.0000001937151,23.4879870325783,-30.));
#685=CARTESIAN_POINT('',(-17.0000001937151,23.4879870325783,-2.));
#686=CARTESIAN_POINT('Origin',(-11.5750001937151,9.83519616991495,-10.0000001490116));
#687=CARTESIAN_POINT('',(-11.5750001937151,16.3656961699149,-10.0000001490116));
#688=CARTESIAN_POINT('Origin',(-11.5750001937151,9.83519616991495,-10.0000001490116));
#689=CARTESIAN_POINT('',(-11.5750001937151,16.3656961699149,-10.0000001490116));
#690=CARTESIAN_POINT('Origin',(19.6186505871451,9.83519616991495,-9.));
#691=CARTESIAN_POINT('',(18.3686505871451,9.83519616991495,-9.));
#692=CARTESIAN_POINT('Origin',(19.6186505871451,9.83519616991495,-9.));
#693=CARTESIAN_POINT('Origin',(-11.5750001937151,9.83519616991495,-4.1847501117587));
#694=CARTESIAN_POINT('',(-11.5750001937151,22.715696169915,-10.0000001490116));
#695=CARTESIAN_POINT('Origin',(-11.5750001937151,9.83519616991495,-10.0000001490116));
#696=CARTESIAN_POINT('Origin',(7.2186505871451,9.83519616991495,3.));
#697=CARTESIAN_POINT('',(18.3686505871451,9.83519616991495,3.));
#698=CARTESIAN_POINT('Origin',(19.6186505871451,9.83519616991495,3.));
#699=CARTESIAN_POINT('Origin',(-17.0000001937151,-3.81759469274841,-2.));
#700=CARTESIAN_POINT('',(-17.0000001937151,3.00880073858327,-30.));
#701=CARTESIAN_POINT('',(-17.0000001937151,22.715696169915,-10.0000001490116));
#702=CARTESIAN_POINT('Origin',(-17.0000001937151,9.83519616991495,-10.0000001490116));
#703=CARTESIAN_POINT('Origin',(19.6186505871451,9.83519616991495,-2.));
#704=CARTESIAN_POINT('',(18.3686505871451,9.83519616991495,-2.));
#705=CARTESIAN_POINT('Origin',(-12.0000001937151,1.18240530725159,5.));
#706=CARTESIAN_POINT('',(-10.7500001937151,1.18240530725159,1.));
#707=CARTESIAN_POINT('',(-10.7500001937151,1.18240530725159,5.));
#708=CARTESIAN_POINT('Origin',(-12.0000001937151,1.18240530725159,1.));
#709=CARTESIAN_POINT('Origin',(-12.0000001937151,1.18240530725159,1.));
#710=CARTESIAN_POINT('Origin',(-12.000000193715,18.4879870325783,5.));
#711=CARTESIAN_POINT('',(-10.750000193715,18.4879870325783,1.));
#712=CARTESIAN_POINT('',(-10.750000193715,18.4879870325783,5.));
#713=CARTESIAN_POINT('Origin',(-12.000000193715,18.4879870325783,1.));
#714=CARTESIAN_POINT('Origin',(-12.000000193715,18.4879870325783,1.));
#715=CARTESIAN_POINT('Origin',(-22.0000001937151,9.83519616991495,-10.0000001490116));
#716=CARTESIAN_POINT('',(-22.0000001937151,22.715696169915,-10.0000001490116));
#717=CARTESIAN_POINT('Origin',(7.2186505871451,9.83519616991495,-22.65));
#718=CARTESIAN_POINT('',(19.5186505871451,9.83519616991495,-22.65));
#719=CARTESIAN_POINT('Origin',(7.2186505871451,9.83519616991495,-22.65));
#720=CARTESIAN_POINT('',(-0.281349412854902,9.83519616991495,-22.65));
#721=CARTESIAN_POINT('Origin',(7.2186505871451,9.83519616991495,-22.65));
#722=CARTESIAN_POINT('Origin',(7.2186505871451,9.83519616991495,-19.65));
#723=CARTESIAN_POINT('',(-0.2813494128549,9.83519616991495,-19.65));
#724=CARTESIAN_POINT('Origin',(7.2186505871451,9.83519616991495,0.));
#725=CARTESIAN_POINT('',(19.5186505871451,9.83519616991495,-30.));
#726=CARTESIAN_POINT('',(19.5186505871451,9.83519616991495,0.));
#727=CARTESIAN_POINT('Origin',(7.2186505871451,9.83519616991495,-30.));
#728=CARTESIAN_POINT('Origin',(7.2186505871451,9.83519616991495,-30.));
#729=UNCERTAINTY_MEASURE_WITH_UNIT(LENGTH_MEASURE(0.01),#733,
'DISTANCE_ACCURACY_VALUE',
'Maximum model space distance between geometric entities at asserted c
onnectivities');
#730=UNCERTAINTY_MEASURE_WITH_UNIT(LENGTH_MEASURE(0.01),#733,
'DISTANCE_ACCURACY_VALUE',
'Maximum model space distance between geometric entities at asserted c
onnectivities');
#731=(
GEOMETRIC_REPRESENTATION_CONTEXT(3)
GLOBAL_UNCERTAINTY_ASSIGNED_CONTEXT((#729))
GLOBAL_UNIT_ASSIGNED_CONTEXT((#733,#734,#735))
REPRESENTATION_CONTEXT('','3D')
);
#732=(
GEOMETRIC_REPRESENTATION_CONTEXT(3)
GLOBAL_UNCERTAINTY_ASSIGNED_CONTEXT((#730))
GLOBAL_UNIT_ASSIGNED_CONTEXT((#733,#734,#735))
REPRESENTATION_CONTEXT('','3D')
);
#733=(
LENGTH_UNIT()
NAMED_UNIT(*)
SI_UNIT(.MILLI.,.METRE.)
);
#734=(
NAMED_UNIT(*)
PLANE_ANGLE_UNIT()
SI_UNIT($,.RADIAN.)
);
#735=(
NAMED_UNIT(*)
SI_UNIT($,.STERADIAN.)
SOLID_ANGLE_UNIT()
);
#736=SHAPE_DEFINITION_REPRESENTATION(#737,#738);
#737=PRODUCT_DEFINITION_SHAPE('',$,#740);
#738=SHAPE_REPRESENTATION('',(#404),#731);
#739=PRODUCT_DEFINITION_CONTEXT('part definition',#744,'design');
#740=PRODUCT_DEFINITION('beamsplitter rotary outer',
'REV1114holder_for_6mmdepth_rotary_forex v2',#741,#739);
#741=PRODUCT_DEFINITION_FORMATION('',$,#746);
#742=PRODUCT_RELATED_PRODUCT_CATEGORY(
'REV1114holder_for_6mmdepth_rotary_forex v2',
'REV1114holder_for_6mmdepth_rotary_forex v2',(#746));
#743=APPLICATION_PROTOCOL_DEFINITION('international standard',
'automotive_design',2009,#744);
#744=APPLICATION_CONTEXT(
'Core Data for Automotive Mechanical Design Process');
#745=PRODUCT_CONTEXT('part definition',#744,'mechanical');
#746=PRODUCT('beamsplitter rotary outer',
'REV1114holder_for_6mmdepth_rotary_forex v2',$,(#745));
#747=PRESENTATION_STYLE_ASSIGNMENT((#751));
#748=PRESENTATION_STYLE_ASSIGNMENT((#752));
#749=PRESENTATION_STYLE_ASSIGNMENT((#753));
#750=PRESENTATION_STYLE_ASSIGNMENT((#754));
#751=SURFACE_STYLE_USAGE(.BOTH.,#755);
#752=SURFACE_STYLE_USAGE(.BOTH.,#756);
#753=SURFACE_STYLE_USAGE(.BOTH.,#757);
#754=SURFACE_STYLE_USAGE(.BOTH.,#758);
#755=SURFACE_SIDE_STYLE('',(#759));
#756=SURFACE_SIDE_STYLE('',(#760));
#757=SURFACE_SIDE_STYLE('',(#761));
#758=SURFACE_SIDE_STYLE('',(#762));
#759=SURFACE_STYLE_FILL_AREA(#763);
#760=SURFACE_STYLE_FILL_AREA(#764);
#761=SURFACE_STYLE_FILL_AREA(#765);
#762=SURFACE_STYLE_FILL_AREA(#766);
#763=FILL_AREA_STYLE('Default',(#767));
#764=FILL_AREA_STYLE('Opaque(191,191,191)',(#768));
#765=FILL_AREA_STYLE('Glass - Light Color (Blue)',(#769));
#766=FILL_AREA_STYLE('Opaque(192,192,192)',(#770));
#767=FILL_AREA_STYLE_COLOUR('Default',#771);
#768=FILL_AREA_STYLE_COLOUR('Opaque(191,191,191)',#772);
#769=FILL_AREA_STYLE_COLOUR('Glass - Light Color (Blue)',#773);
#770=FILL_AREA_STYLE_COLOUR('Opaque(192,192,192)',#774);
#771=COLOUR_RGB('Default',0.749019607843137,0.749019607843137,0.749019607843137);
#772=COLOUR_RGB('Opaque(191,191,191)',0.749019607843137,0.749019607843137,
0.749019607843137);
#773=COLOUR_RGB('Glass - Light Color (Blue)',0.423529411764706,0.768627450980392,
0.854901960784314);
#774=COLOUR_RGB('Opaque(192,192,192)',0.752941176470588,0.752941176470588,
0.752941176470588);
ENDSEC;
END-ISO-10303-21;
