ISO-10303-21;
HEADER;
/* Generated by software containing ST-Developer
 * from STEP Tools, Inc. (www.steptools.com) 
 */

FILE_DESCRIPTION(
/* description */ (''),
/* implementation_level */ '2;1');

FILE_NAME(
/* name */ 
'D:\\3D Models\\Braingeneers\\3D files\\rail to alvium adapter.stp',
/* time_stamp */ '2025-10-14T10:34:01-07:00',
/* author */ ('yohei'),
/* organization */ (''),
/* preprocessor_version */ 'ST-DEVELOPER v19',
/* originating_system */ 'Autodesk Inventor 2023',
/* authorisation */ '');

FILE_SCHEMA (('AUTOMOTIVE_DESIGN { 1 0 10303 214 3 1 1 }'));
ENDSEC;

DATA;
#10=MECHANICAL_DESIGN_GEOMETRIC_PRESENTATION_REPRESENTATION('',(#13),#946);
#11=SHAPE_REPRESENTATION_RELATIONSHIP('SRR','None',#953,#12);
#12=ADVANCED_BREP_SHAPE_REPRESENTATION('',(#14),#945);
#13=STYLED_ITEM('',(#962),#14);
#14=MANIFOLD_SOLID_BREP('Solid1',#547);
#15=FACE_BOUND('',#91,.T.);
#16=FACE_BOUND('',#92,.T.);
#17=FACE_BOUND('',#93,.T.);
#18=FACE_BOUND('',#94,.T.);
#19=FACE_BOUND('',#103,.T.);
#20=FACE_BOUND('',#104,.T.);
#21=FACE_BOUND('',#105,.T.);
#22=FACE_BOUND('',#106,.T.);
#23=FACE_BOUND('',#109,.T.);
#24=FACE_BOUND('',#110,.T.);
#25=FACE_BOUND('',#111,.T.);
#26=FACE_BOUND('',#112,.T.);
#27=FACE_BOUND('',#117,.T.);
#28=FACE_BOUND('',#118,.T.);
#29=FACE_BOUND('',#121,.T.);
#30=FACE_BOUND('',#122,.T.);
#31=FACE_BOUND('',#128,.T.);
#32=FACE_BOUND('',#129,.T.);
#33=CONICAL_SURFACE('',#580,2.55,0.785398163397448);
#34=CONICAL_SURFACE('',#589,2.55,0.785398163397448);
#35=CONICAL_SURFACE('',#593,2.55,0.785398163397449);
#36=CONICAL_SURFACE('',#597,2.55,0.785398163397449);
#37=CONICAL_SURFACE('',#602,2.25,0.785398163397449);
#38=CONICAL_SURFACE('',#610,2.25,0.785398163397448);
#39=CONICAL_SURFACE('',#616,2.25,0.78539816339745);
#40=CONICAL_SURFACE('',#623,2.25,0.785398163397449);
#41=PLANE('',#573);
#42=PLANE('',#577);
#43=PLANE('',#578);
#44=PLANE('',#579);
#45=PLANE('',#583);
#46=PLANE('',#601);
#47=PLANE('',#606);
#48=PLANE('',#615);
#49=PLANE('',#619);
#50=PLANE('',#627);
#51=PLANE('',#628);
#52=PLANE('',#629);
#53=FACE_OUTER_BOUND('',#83,.T.);
#54=FACE_OUTER_BOUND('',#84,.T.);
#55=FACE_OUTER_BOUND('',#85,.T.);
#56=FACE_OUTER_BOUND('',#86,.T.);
#57=FACE_OUTER_BOUND('',#87,.T.);
#58=FACE_OUTER_BOUND('',#88,.T.);
#59=FACE_OUTER_BOUND('',#89,.T.);
#60=FACE_OUTER_BOUND('',#90,.T.);
#61=FACE_OUTER_BOUND('',#95,.T.);
#62=FACE_OUTER_BOUND('',#96,.T.);
#63=FACE_OUTER_BOUND('',#97,.T.);
#64=FACE_OUTER_BOUND('',#98,.T.);
#65=FACE_OUTER_BOUND('',#99,.T.);
#66=FACE_OUTER_BOUND('',#100,.T.);
#67=FACE_OUTER_BOUND('',#101,.T.);
#68=FACE_OUTER_BOUND('',#102,.T.);
#69=FACE_OUTER_BOUND('',#107,.T.);
#70=FACE_OUTER_BOUND('',#108,.T.);
#71=FACE_OUTER_BOUND('',#113,.T.);
#72=FACE_OUTER_BOUND('',#114,.T.);
#73=FACE_OUTER_BOUND('',#115,.T.);
#74=FACE_OUTER_BOUND('',#116,.T.);
#75=FACE_OUTER_BOUND('',#119,.T.);
#76=FACE_OUTER_BOUND('',#120,.T.);
#77=FACE_OUTER_BOUND('',#123,.T.);
#78=FACE_OUTER_BOUND('',#124,.T.);
#79=FACE_OUTER_BOUND('',#125,.T.);
#80=FACE_OUTER_BOUND('',#126,.T.);
#81=FACE_OUTER_BOUND('',#127,.T.);
#82=FACE_OUTER_BOUND('',#130,.T.);
#83=EDGE_LOOP('',(#363,#364,#365,#366));
#84=EDGE_LOOP('',(#367));
#85=EDGE_LOOP('',(#368,#369,#370,#371));
#86=EDGE_LOOP('',(#372));
#87=EDGE_LOOP('',(#373,#374,#375,#376));
#88=EDGE_LOOP('',(#377,#378,#379,#380));
#89=EDGE_LOOP('',(#381,#382,#383,#384));
#90=EDGE_LOOP('',(#385,#386,#387,#388));
#91=EDGE_LOOP('',(#389));
#92=EDGE_LOOP('',(#390));
#93=EDGE_LOOP('',(#391));
#94=EDGE_LOOP('',(#392));
#95=EDGE_LOOP('',(#393,#394,#395,#396));
#96=EDGE_LOOP('',(#397,#398,#399,#400));
#97=EDGE_LOOP('',(#401,#402,#403,#404));
#98=EDGE_LOOP('',(#405,#406,#407,#408));
#99=EDGE_LOOP('',(#409,#410,#411,#412));
#100=EDGE_LOOP('',(#413,#414,#415,#416));
#101=EDGE_LOOP('',(#417,#418,#419,#420));
#102=EDGE_LOOP('',(#421,#422,#423,#424));
#103=EDGE_LOOP('',(#425));
#104=EDGE_LOOP('',(#426));
#105=EDGE_LOOP('',(#427));
#106=EDGE_LOOP('',(#428));
#107=EDGE_LOOP('',(#429,#430,#431,#432,#433));
#108=EDGE_LOOP('',(#434,#435,#436,#437));
#109=EDGE_LOOP('',(#438));
#110=EDGE_LOOP('',(#439));
#111=EDGE_LOOP('',(#440));
#112=EDGE_LOOP('',(#441));
#113=EDGE_LOOP('',(#442,#443,#444,#445,#446));
#114=EDGE_LOOP('',(#447,#448,#449,#450,#451));
#115=EDGE_LOOP('',(#452,#453,#454,#455,#456));
#116=EDGE_LOOP('',(#457,#458,#459,#460));
#117=EDGE_LOOP('',(#461));
#118=EDGE_LOOP('',(#462));
#119=EDGE_LOOP('',(#463,#464,#465,#466));
#120=EDGE_LOOP('',(#467,#468,#469,#470));
#121=EDGE_LOOP('',(#471));
#122=EDGE_LOOP('',(#472));
#123=EDGE_LOOP('',(#473,#474,#475,#476));
#124=EDGE_LOOP('',(#477,#478,#479,#480));
#125=EDGE_LOOP('',(#481,#482,#483,#484));
#126=EDGE_LOOP('',(#485,#486,#487,#488,#489,#490,#491,#492));
#127=EDGE_LOOP('',(#493,#494,#495,#496));
#128=EDGE_LOOP('',(#497));
#129=EDGE_LOOP('',(#498));
#130=EDGE_LOOP('',(#499,#500,#501,#502,#503,#504,#505,#506));
#131=LINE('',#799,#173);
#132=LINE('',#806,#174);
#133=LINE('',#812,#175);
#134=LINE('',#814,#176);
#135=LINE('',#816,#177);
#136=LINE('',#817,#178);
#137=LINE('',#821,#179);
#138=LINE('',#823,#180);
#139=LINE('',#825,#181);
#140=LINE('',#826,#182);
#141=LINE('',#831,#183);
#142=LINE('',#836,#184);
#143=LINE('',#838,#185);
#144=LINE('',#840,#186);
#145=LINE('',#841,#187);
#146=LINE('',#851,#188);
#147=LINE('',#855,#189);
#148=LINE('',#859,#190);
#149=LINE('',#863,#191);
#150=LINE('',#867,#192);
#151=LINE('',#871,#193);
#152=LINE('',#875,#194);
#153=LINE('',#879,#195);
#154=LINE('',#881,#196);
#155=LINE('',#883,#197);
#156=LINE('',#884,#198);
#157=LINE('',#889,#199);
#158=LINE('',#894,#200);
#159=LINE('',#895,#201);
#160=LINE('',#900,#202);
#161=LINE('',#904,#203);
#162=LINE('',#910,#204);
#163=LINE('',#913,#205);
#164=LINE('',#914,#206);
#165=LINE('',#919,#207);
#166=LINE('',#922,#208);
#167=LINE('',#923,#209);
#168=LINE('',#929,#210);
#169=LINE('',#932,#211);
#170=LINE('',#937,#212);
#171=LINE('',#939,#213);
#172=LINE('',#941,#214);
#173=VECTOR('',#636,1.25);
#174=VECTOR('',#645,1.25);
#175=VECTOR('',#652,10.);
#176=VECTOR('',#653,10.);
#177=VECTOR('',#654,10.);
#178=VECTOR('',#655,10.);
#179=VECTOR('',#658,10.);
#180=VECTOR('',#659,10.);
#181=VECTOR('',#660,10.);
#182=VECTOR('',#661,10.);
#183=VECTOR('',#666,2.55);
#184=VECTOR('',#671,10.);
#185=VECTOR('',#672,10.);
#186=VECTOR('',#673,10.);
#187=VECTOR('',#674,10.);
#188=VECTOR('',#685,1.55);
#189=VECTOR('',#690,2.55);
#190=VECTOR('',#695,1.55);
#191=VECTOR('',#700,2.55);
#192=VECTOR('',#705,1.55);
#193=VECTOR('',#710,2.55);
#194=VECTOR('',#715,1.55);
#195=VECTOR('',#718,10.);
#196=VECTOR('',#719,10.);
#197=VECTOR('',#720,10.);
#198=VECTOR('',#721,10.);
#199=VECTOR('',#726,2.25);
#200=VECTOR('',#733,10.);
#201=VECTOR('',#734,10.);
#202=VECTOR('',#739,1.55);
#203=VECTOR('',#744,2.25);
#204=VECTOR('',#751,1.55);
#205=VECTOR('',#756,10.);
#206=VECTOR('',#757,10.);
#207=VECTOR('',#762,2.25);
#208=VECTOR('',#767,10.);
#209=VECTOR('',#768,10.);
#210=VECTOR('',#775,1.55);
#211=VECTOR('',#778,2.25);
#212=VECTOR('',#785,1.55);
#213=VECTOR('',#788,10.);
#214=VECTOR('',#791,10.);
#215=CIRCLE('',#571,1.25);
#216=CIRCLE('',#572,1.25);
#217=CIRCLE('',#575,1.25);
#218=CIRCLE('',#576,1.25);
#219=CIRCLE('',#581,1.55);
#220=CIRCLE('',#582,3.55);
#221=CIRCLE('',#584,3.55);
#222=CIRCLE('',#585,3.55);
#223=CIRCLE('',#586,3.55);
#224=CIRCLE('',#588,1.55);
#225=CIRCLE('',#590,1.55);
#226=CIRCLE('',#592,1.55);
#227=CIRCLE('',#594,1.55);
#228=CIRCLE('',#596,1.55);
#229=CIRCLE('',#598,1.55);
#230=CIRCLE('',#600,1.55);
#231=CIRCLE('',#603,2.95);
#232=CIRCLE('',#604,1.55);
#233=CIRCLE('',#605,1.55);
#234=CIRCLE('',#607,2.95);
#235=CIRCLE('',#609,1.55);
#236=CIRCLE('',#611,1.55);
#237=CIRCLE('',#612,1.55);
#238=CIRCLE('',#614,1.55);
#239=CIRCLE('',#617,2.95);
#240=CIRCLE('',#618,1.55);
#241=CIRCLE('',#620,2.95);
#242=CIRCLE('',#622,1.55);
#243=CIRCLE('',#624,1.55);
#244=CIRCLE('',#626,1.55);
#245=VERTEX_POINT('',#796);
#246=VERTEX_POINT('',#798);
#247=VERTEX_POINT('',#803);
#248=VERTEX_POINT('',#805);
#249=VERTEX_POINT('',#810);
#250=VERTEX_POINT('',#811);
#251=VERTEX_POINT('',#813);
#252=VERTEX_POINT('',#815);
#253=VERTEX_POINT('',#819);
#254=VERTEX_POINT('',#820);
#255=VERTEX_POINT('',#822);
#256=VERTEX_POINT('',#824);
#257=VERTEX_POINT('',#828);
#258=VERTEX_POINT('',#830);
#259=VERTEX_POINT('',#834);
#260=VERTEX_POINT('',#835);
#261=VERTEX_POINT('',#837);
#262=VERTEX_POINT('',#839);
#263=VERTEX_POINT('',#842);
#264=VERTEX_POINT('',#844);
#265=VERTEX_POINT('',#846);
#266=VERTEX_POINT('',#849);
#267=VERTEX_POINT('',#853);
#268=VERTEX_POINT('',#857);
#269=VERTEX_POINT('',#861);
#270=VERTEX_POINT('',#865);
#271=VERTEX_POINT('',#869);
#272=VERTEX_POINT('',#873);
#273=VERTEX_POINT('',#877);
#274=VERTEX_POINT('',#878);
#275=VERTEX_POINT('',#880);
#276=VERTEX_POINT('',#882);
#277=VERTEX_POINT('',#886);
#278=VERTEX_POINT('',#888);
#279=VERTEX_POINT('',#890);
#280=VERTEX_POINT('',#896);
#281=VERTEX_POINT('',#899);
#282=VERTEX_POINT('',#903);
#283=VERTEX_POINT('',#905);
#284=VERTEX_POINT('',#909);
#285=VERTEX_POINT('',#916);
#286=VERTEX_POINT('',#918);
#287=VERTEX_POINT('',#924);
#288=VERTEX_POINT('',#927);
#289=VERTEX_POINT('',#931);
#290=VERTEX_POINT('',#935);
#291=EDGE_CURVE('',#245,#245,#215,.T.);
#292=EDGE_CURVE('',#245,#246,#131,.T.);
#293=EDGE_CURVE('',#246,#246,#216,.T.);
#294=EDGE_CURVE('',#247,#247,#217,.T.);
#295=EDGE_CURVE('',#247,#248,#132,.T.);
#296=EDGE_CURVE('',#248,#248,#218,.T.);
#297=EDGE_CURVE('',#249,#250,#133,.T.);
#298=EDGE_CURVE('',#250,#251,#134,.T.);
#299=EDGE_CURVE('',#251,#252,#135,.T.);
#300=EDGE_CURVE('',#252,#249,#136,.T.);
#301=EDGE_CURVE('',#253,#254,#137,.T.);
#302=EDGE_CURVE('',#254,#255,#138,.T.);
#303=EDGE_CURVE('',#255,#256,#139,.T.);
#304=EDGE_CURVE('',#256,#253,#140,.T.);
#305=EDGE_CURVE('',#257,#257,#219,.T.);
#306=EDGE_CURVE('',#257,#258,#141,.T.);
#307=EDGE_CURVE('',#258,#258,#220,.T.);
#308=EDGE_CURVE('',#259,#260,#142,.T.);
#309=EDGE_CURVE('',#261,#260,#143,.T.);
#310=EDGE_CURVE('',#261,#262,#144,.T.);
#311=EDGE_CURVE('',#259,#262,#145,.T.);
#312=EDGE_CURVE('',#263,#263,#221,.T.);
#313=EDGE_CURVE('',#264,#264,#222,.T.);
#314=EDGE_CURVE('',#265,#265,#223,.T.);
#315=EDGE_CURVE('',#266,#266,#224,.T.);
#316=EDGE_CURVE('',#266,#257,#146,.T.);
#317=EDGE_CURVE('',#267,#267,#225,.T.);
#318=EDGE_CURVE('',#267,#263,#147,.T.);
#319=EDGE_CURVE('',#268,#268,#226,.T.);
#320=EDGE_CURVE('',#268,#267,#148,.T.);
#321=EDGE_CURVE('',#269,#269,#227,.T.);
#322=EDGE_CURVE('',#269,#265,#149,.T.);
#323=EDGE_CURVE('',#270,#270,#228,.T.);
#324=EDGE_CURVE('',#270,#269,#150,.T.);
#325=EDGE_CURVE('',#271,#271,#229,.T.);
#326=EDGE_CURVE('',#271,#264,#151,.T.);
#327=EDGE_CURVE('',#272,#272,#230,.T.);
#328=EDGE_CURVE('',#272,#271,#152,.T.);
#329=EDGE_CURVE('',#273,#274,#153,.T.);
#330=EDGE_CURVE('',#274,#275,#154,.T.);
#331=EDGE_CURVE('',#275,#276,#155,.T.);
#332=EDGE_CURVE('',#276,#273,#156,.T.);
#333=EDGE_CURVE('',#277,#277,#231,.T.);
#334=EDGE_CURVE('',#277,#278,#157,.T.);
#335=EDGE_CURVE('',#278,#279,#232,.T.);
#336=EDGE_CURVE('',#279,#278,#233,.T.);
#337=EDGE_CURVE('',#275,#256,#158,.T.);
#338=EDGE_CURVE('',#253,#274,#159,.T.);
#339=EDGE_CURVE('',#280,#280,#234,.T.);
#340=EDGE_CURVE('',#279,#281,#160,.T.);
#341=EDGE_CURVE('',#281,#281,#235,.T.);
#342=EDGE_CURVE('',#280,#282,#161,.T.);
#343=EDGE_CURVE('',#282,#283,#236,.T.);
#344=EDGE_CURVE('',#283,#282,#237,.T.);
#345=EDGE_CURVE('',#283,#284,#162,.T.);
#346=EDGE_CURVE('',#284,#284,#238,.T.);
#347=EDGE_CURVE('',#261,#255,#163,.T.);
#348=EDGE_CURVE('',#254,#262,#164,.T.);
#349=EDGE_CURVE('',#285,#285,#239,.T.);
#350=EDGE_CURVE('',#285,#286,#165,.T.);
#351=EDGE_CURVE('',#286,#286,#240,.T.);
#352=EDGE_CURVE('',#276,#251,#166,.T.);
#353=EDGE_CURVE('',#250,#273,#167,.T.);
#354=EDGE_CURVE('',#287,#287,#241,.T.);
#355=EDGE_CURVE('',#288,#288,#242,.T.);
#356=EDGE_CURVE('',#288,#286,#168,.T.);
#357=EDGE_CURVE('',#287,#289,#169,.T.);
#358=EDGE_CURVE('',#289,#289,#243,.T.);
#359=EDGE_CURVE('',#290,#290,#244,.T.);
#360=EDGE_CURVE('',#290,#289,#170,.T.);
#361=EDGE_CURVE('',#249,#259,#171,.T.);
#362=EDGE_CURVE('',#260,#252,#172,.T.);
#363=ORIENTED_EDGE('',*,*,#291,.F.);
#364=ORIENTED_EDGE('',*,*,#292,.T.);
#365=ORIENTED_EDGE('',*,*,#293,.T.);
#366=ORIENTED_EDGE('',*,*,#292,.F.);
#367=ORIENTED_EDGE('',*,*,#293,.F.);
#368=ORIENTED_EDGE('',*,*,#294,.F.);
#369=ORIENTED_EDGE('',*,*,#295,.T.);
#370=ORIENTED_EDGE('',*,*,#296,.T.);
#371=ORIENTED_EDGE('',*,*,#295,.F.);
#372=ORIENTED_EDGE('',*,*,#296,.F.);
#373=ORIENTED_EDGE('',*,*,#297,.T.);
#374=ORIENTED_EDGE('',*,*,#298,.T.);
#375=ORIENTED_EDGE('',*,*,#299,.T.);
#376=ORIENTED_EDGE('',*,*,#300,.T.);
#377=ORIENTED_EDGE('',*,*,#301,.T.);
#378=ORIENTED_EDGE('',*,*,#302,.T.);
#379=ORIENTED_EDGE('',*,*,#303,.T.);
#380=ORIENTED_EDGE('',*,*,#304,.T.);
#381=ORIENTED_EDGE('',*,*,#305,.T.);
#382=ORIENTED_EDGE('',*,*,#306,.T.);
#383=ORIENTED_EDGE('',*,*,#307,.T.);
#384=ORIENTED_EDGE('',*,*,#306,.F.);
#385=ORIENTED_EDGE('',*,*,#308,.T.);
#386=ORIENTED_EDGE('',*,*,#309,.F.);
#387=ORIENTED_EDGE('',*,*,#310,.T.);
#388=ORIENTED_EDGE('',*,*,#311,.F.);
#389=ORIENTED_EDGE('',*,*,#312,.F.);
#390=ORIENTED_EDGE('',*,*,#313,.F.);
#391=ORIENTED_EDGE('',*,*,#314,.F.);
#392=ORIENTED_EDGE('',*,*,#307,.F.);
#393=ORIENTED_EDGE('',*,*,#315,.F.);
#394=ORIENTED_EDGE('',*,*,#316,.T.);
#395=ORIENTED_EDGE('',*,*,#305,.F.);
#396=ORIENTED_EDGE('',*,*,#316,.F.);
#397=ORIENTED_EDGE('',*,*,#317,.T.);
#398=ORIENTED_EDGE('',*,*,#318,.T.);
#399=ORIENTED_EDGE('',*,*,#312,.T.);
#400=ORIENTED_EDGE('',*,*,#318,.F.);
#401=ORIENTED_EDGE('',*,*,#319,.F.);
#402=ORIENTED_EDGE('',*,*,#320,.T.);
#403=ORIENTED_EDGE('',*,*,#317,.F.);
#404=ORIENTED_EDGE('',*,*,#320,.F.);
#405=ORIENTED_EDGE('',*,*,#321,.T.);
#406=ORIENTED_EDGE('',*,*,#322,.T.);
#407=ORIENTED_EDGE('',*,*,#314,.T.);
#408=ORIENTED_EDGE('',*,*,#322,.F.);
#409=ORIENTED_EDGE('',*,*,#323,.F.);
#410=ORIENTED_EDGE('',*,*,#324,.T.);
#411=ORIENTED_EDGE('',*,*,#321,.F.);
#412=ORIENTED_EDGE('',*,*,#324,.F.);
#413=ORIENTED_EDGE('',*,*,#325,.T.);
#414=ORIENTED_EDGE('',*,*,#326,.T.);
#415=ORIENTED_EDGE('',*,*,#313,.T.);
#416=ORIENTED_EDGE('',*,*,#326,.F.);
#417=ORIENTED_EDGE('',*,*,#327,.F.);
#418=ORIENTED_EDGE('',*,*,#328,.T.);
#419=ORIENTED_EDGE('',*,*,#325,.F.);
#420=ORIENTED_EDGE('',*,*,#328,.F.);
#421=ORIENTED_EDGE('',*,*,#329,.T.);
#422=ORIENTED_EDGE('',*,*,#330,.T.);
#423=ORIENTED_EDGE('',*,*,#331,.T.);
#424=ORIENTED_EDGE('',*,*,#332,.T.);
#425=ORIENTED_EDGE('',*,*,#323,.T.);
#426=ORIENTED_EDGE('',*,*,#327,.T.);
#427=ORIENTED_EDGE('',*,*,#319,.T.);
#428=ORIENTED_EDGE('',*,*,#315,.T.);
#429=ORIENTED_EDGE('',*,*,#333,.T.);
#430=ORIENTED_EDGE('',*,*,#334,.T.);
#431=ORIENTED_EDGE('',*,*,#335,.T.);
#432=ORIENTED_EDGE('',*,*,#336,.T.);
#433=ORIENTED_EDGE('',*,*,#334,.F.);
#434=ORIENTED_EDGE('',*,*,#337,.F.);
#435=ORIENTED_EDGE('',*,*,#330,.F.);
#436=ORIENTED_EDGE('',*,*,#338,.F.);
#437=ORIENTED_EDGE('',*,*,#304,.F.);
#438=ORIENTED_EDGE('',*,*,#291,.T.);
#439=ORIENTED_EDGE('',*,*,#294,.T.);
#440=ORIENTED_EDGE('',*,*,#339,.F.);
#441=ORIENTED_EDGE('',*,*,#333,.F.);
#442=ORIENTED_EDGE('',*,*,#335,.F.);
#443=ORIENTED_EDGE('',*,*,#336,.F.);
#444=ORIENTED_EDGE('',*,*,#340,.T.);
#445=ORIENTED_EDGE('',*,*,#341,.F.);
#446=ORIENTED_EDGE('',*,*,#340,.F.);
#447=ORIENTED_EDGE('',*,*,#339,.T.);
#448=ORIENTED_EDGE('',*,*,#342,.T.);
#449=ORIENTED_EDGE('',*,*,#343,.T.);
#450=ORIENTED_EDGE('',*,*,#344,.T.);
#451=ORIENTED_EDGE('',*,*,#342,.F.);
#452=ORIENTED_EDGE('',*,*,#343,.F.);
#453=ORIENTED_EDGE('',*,*,#344,.F.);
#454=ORIENTED_EDGE('',*,*,#345,.T.);
#455=ORIENTED_EDGE('',*,*,#346,.F.);
#456=ORIENTED_EDGE('',*,*,#345,.F.);
#457=ORIENTED_EDGE('',*,*,#347,.T.);
#458=ORIENTED_EDGE('',*,*,#302,.F.);
#459=ORIENTED_EDGE('',*,*,#348,.T.);
#460=ORIENTED_EDGE('',*,*,#310,.F.);
#461=ORIENTED_EDGE('',*,*,#346,.T.);
#462=ORIENTED_EDGE('',*,*,#341,.T.);
#463=ORIENTED_EDGE('',*,*,#349,.T.);
#464=ORIENTED_EDGE('',*,*,#350,.T.);
#465=ORIENTED_EDGE('',*,*,#351,.T.);
#466=ORIENTED_EDGE('',*,*,#350,.F.);
#467=ORIENTED_EDGE('',*,*,#352,.T.);
#468=ORIENTED_EDGE('',*,*,#298,.F.);
#469=ORIENTED_EDGE('',*,*,#353,.T.);
#470=ORIENTED_EDGE('',*,*,#332,.F.);
#471=ORIENTED_EDGE('',*,*,#354,.F.);
#472=ORIENTED_EDGE('',*,*,#349,.F.);
#473=ORIENTED_EDGE('',*,*,#355,.F.);
#474=ORIENTED_EDGE('',*,*,#356,.T.);
#475=ORIENTED_EDGE('',*,*,#351,.F.);
#476=ORIENTED_EDGE('',*,*,#356,.F.);
#477=ORIENTED_EDGE('',*,*,#354,.T.);
#478=ORIENTED_EDGE('',*,*,#357,.T.);
#479=ORIENTED_EDGE('',*,*,#358,.T.);
#480=ORIENTED_EDGE('',*,*,#357,.F.);
#481=ORIENTED_EDGE('',*,*,#359,.F.);
#482=ORIENTED_EDGE('',*,*,#360,.T.);
#483=ORIENTED_EDGE('',*,*,#358,.F.);
#484=ORIENTED_EDGE('',*,*,#360,.F.);
#485=ORIENTED_EDGE('',*,*,#353,.F.);
#486=ORIENTED_EDGE('',*,*,#297,.F.);
#487=ORIENTED_EDGE('',*,*,#361,.T.);
#488=ORIENTED_EDGE('',*,*,#311,.T.);
#489=ORIENTED_EDGE('',*,*,#348,.F.);
#490=ORIENTED_EDGE('',*,*,#301,.F.);
#491=ORIENTED_EDGE('',*,*,#338,.T.);
#492=ORIENTED_EDGE('',*,*,#329,.F.);
#493=ORIENTED_EDGE('',*,*,#362,.F.);
#494=ORIENTED_EDGE('',*,*,#308,.F.);
#495=ORIENTED_EDGE('',*,*,#361,.F.);
#496=ORIENTED_EDGE('',*,*,#300,.F.);
#497=ORIENTED_EDGE('',*,*,#359,.T.);
#498=ORIENTED_EDGE('',*,*,#355,.T.);
#499=ORIENTED_EDGE('',*,*,#352,.F.);
#500=ORIENTED_EDGE('',*,*,#331,.F.);
#501=ORIENTED_EDGE('',*,*,#337,.T.);
#502=ORIENTED_EDGE('',*,*,#303,.F.);
#503=ORIENTED_EDGE('',*,*,#347,.F.);
#504=ORIENTED_EDGE('',*,*,#309,.T.);
#505=ORIENTED_EDGE('',*,*,#362,.T.);
#506=ORIENTED_EDGE('',*,*,#299,.F.);
#507=CYLINDRICAL_SURFACE('',#570,1.25);
#508=CYLINDRICAL_SURFACE('',#574,1.25);
#509=CYLINDRICAL_SURFACE('',#587,1.55);
#510=CYLINDRICAL_SURFACE('',#591,1.55);
#511=CYLINDRICAL_SURFACE('',#595,1.55);
#512=CYLINDRICAL_SURFACE('',#599,1.55);
#513=CYLINDRICAL_SURFACE('',#608,1.55);
#514=CYLINDRICAL_SURFACE('',#613,1.55);
#515=CYLINDRICAL_SURFACE('',#621,1.55);
#516=CYLINDRICAL_SURFACE('',#625,1.55);
#517=ADVANCED_FACE('',(#53),#507,.F.);
#518=ADVANCED_FACE('',(#54),#41,.T.);
#519=ADVANCED_FACE('',(#55),#508,.F.);
#520=ADVANCED_FACE('',(#56),#42,.T.);
#521=ADVANCED_FACE('',(#57),#43,.T.);
#522=ADVANCED_FACE('',(#58),#44,.T.);
#523=ADVANCED_FACE('',(#59),#33,.F.);
#524=ADVANCED_FACE('',(#60,#15,#16,#17,#18),#45,.F.);
#525=ADVANCED_FACE('',(#61),#509,.F.);
#526=ADVANCED_FACE('',(#62),#34,.F.);
#527=ADVANCED_FACE('',(#63),#510,.F.);
#528=ADVANCED_FACE('',(#64),#35,.F.);
#529=ADVANCED_FACE('',(#65),#511,.F.);
#530=ADVANCED_FACE('',(#66),#36,.F.);
#531=ADVANCED_FACE('',(#67),#512,.F.);
#532=ADVANCED_FACE('',(#68,#19,#20,#21,#22),#46,.T.);
#533=ADVANCED_FACE('',(#69),#37,.F.);
#534=ADVANCED_FACE('',(#70,#23,#24,#25,#26),#47,.T.);
#535=ADVANCED_FACE('',(#71),#513,.F.);
#536=ADVANCED_FACE('',(#72),#38,.F.);
#537=ADVANCED_FACE('',(#73),#514,.F.);
#538=ADVANCED_FACE('',(#74,#27,#28),#48,.T.);
#539=ADVANCED_FACE('',(#75),#39,.F.);
#540=ADVANCED_FACE('',(#76,#29,#30),#49,.T.);
#541=ADVANCED_FACE('',(#77),#515,.F.);
#542=ADVANCED_FACE('',(#78),#40,.F.);
#543=ADVANCED_FACE('',(#79),#516,.F.);
#544=ADVANCED_FACE('',(#80),#50,.F.);
#545=ADVANCED_FACE('',(#81,#31,#32),#51,.T.);
#546=ADVANCED_FACE('',(#82),#52,.F.);
#547=CLOSED_SHELL('',(#517,#518,#519,#520,#521,#522,#523,#524,#525,#526,
#527,#528,#529,#530,#531,#532,#533,#534,#535,#536,#537,#538,#539,#540,#541,
#542,#543,#544,#545,#546));
#548=DERIVED_UNIT_ELEMENT(#551,1.);
#549=DERIVED_UNIT_ELEMENT(#948,-3.);
#550=DIMENSIONAL_EXPONENTS(1.,0.,0.,0.,0.,0.,0.);
#551=(
CONVERSION_BASED_UNIT('gram',#553)
MASS_UNIT()
NAMED_UNIT(#550)
);
#552=(
MASS_UNIT()
NAMED_UNIT(*)
SI_UNIT(.KILO.,.GRAM.)
);
#553=MASS_MEASURE_WITH_UNIT(MASS_MEASURE(0.001),#552);
#554=DERIVED_UNIT((#548,#549));
#555=MEASURE_REPRESENTATION_ITEM('density measure',
POSITIVE_RATIO_MEASURE(1.),#554);
#556=PROPERTY_DEFINITION_REPRESENTATION(#561,#558);
#557=PROPERTY_DEFINITION_REPRESENTATION(#562,#559);
#558=REPRESENTATION('material name',(#560),#945);
#559=REPRESENTATION('density',(#555),#945);
#560=DESCRIPTIVE_REPRESENTATION_ITEM('Generic','Generic');
#561=PROPERTY_DEFINITION('material property','material name',#955);
#562=PROPERTY_DEFINITION('material property','density of part',#955);
#563=DATE_TIME_ROLE('creation_date');
#564=APPLIED_DATE_AND_TIME_ASSIGNMENT(#565,#563,(#955));
#565=DATE_AND_TIME(#566,#567);
#566=CALENDAR_DATE(2025,27,3);
#567=LOCAL_TIME(0,0,0.,#568);
#568=COORDINATED_UNIVERSAL_TIME_OFFSET(0,0,.BEHIND.);
#569=AXIS2_PLACEMENT_3D('placement',#794,#630,#631);
#570=AXIS2_PLACEMENT_3D('',#795,#632,#633);
#571=AXIS2_PLACEMENT_3D('',#797,#634,#635);
#572=AXIS2_PLACEMENT_3D('',#800,#637,#638);
#573=AXIS2_PLACEMENT_3D('',#801,#639,#640);
#574=AXIS2_PLACEMENT_3D('',#802,#641,#642);
#575=AXIS2_PLACEMENT_3D('',#804,#643,#644);
#576=AXIS2_PLACEMENT_3D('',#807,#646,#647);
#577=AXIS2_PLACEMENT_3D('',#808,#648,#649);
#578=AXIS2_PLACEMENT_3D('',#809,#650,#651);
#579=AXIS2_PLACEMENT_3D('',#818,#656,#657);
#580=AXIS2_PLACEMENT_3D('',#827,#662,#663);
#581=AXIS2_PLACEMENT_3D('',#829,#664,#665);
#582=AXIS2_PLACEMENT_3D('',#832,#667,#668);
#583=AXIS2_PLACEMENT_3D('',#833,#669,#670);
#584=AXIS2_PLACEMENT_3D('',#843,#675,#676);
#585=AXIS2_PLACEMENT_3D('',#845,#677,#678);
#586=AXIS2_PLACEMENT_3D('',#847,#679,#680);
#587=AXIS2_PLACEMENT_3D('',#848,#681,#682);
#588=AXIS2_PLACEMENT_3D('',#850,#683,#684);
#589=AXIS2_PLACEMENT_3D('',#852,#686,#687);
#590=AXIS2_PLACEMENT_3D('',#854,#688,#689);
#591=AXIS2_PLACEMENT_3D('',#856,#691,#692);
#592=AXIS2_PLACEMENT_3D('',#858,#693,#694);
#593=AXIS2_PLACEMENT_3D('',#860,#696,#697);
#594=AXIS2_PLACEMENT_3D('',#862,#698,#699);
#595=AXIS2_PLACEMENT_3D('',#864,#701,#702);
#596=AXIS2_PLACEMENT_3D('',#866,#703,#704);
#597=AXIS2_PLACEMENT_3D('',#868,#706,#707);
#598=AXIS2_PLACEMENT_3D('',#870,#708,#709);
#599=AXIS2_PLACEMENT_3D('',#872,#711,#712);
#600=AXIS2_PLACEMENT_3D('',#874,#713,#714);
#601=AXIS2_PLACEMENT_3D('',#876,#716,#717);
#602=AXIS2_PLACEMENT_3D('',#885,#722,#723);
#603=AXIS2_PLACEMENT_3D('',#887,#724,#725);
#604=AXIS2_PLACEMENT_3D('',#891,#727,#728);
#605=AXIS2_PLACEMENT_3D('',#892,#729,#730);
#606=AXIS2_PLACEMENT_3D('',#893,#731,#732);
#607=AXIS2_PLACEMENT_3D('',#897,#735,#736);
#608=AXIS2_PLACEMENT_3D('',#898,#737,#738);
#609=AXIS2_PLACEMENT_3D('',#901,#740,#741);
#610=AXIS2_PLACEMENT_3D('',#902,#742,#743);
#611=AXIS2_PLACEMENT_3D('',#906,#745,#746);
#612=AXIS2_PLACEMENT_3D('',#907,#747,#748);
#613=AXIS2_PLACEMENT_3D('',#908,#749,#750);
#614=AXIS2_PLACEMENT_3D('',#911,#752,#753);
#615=AXIS2_PLACEMENT_3D('',#912,#754,#755);
#616=AXIS2_PLACEMENT_3D('',#915,#758,#759);
#617=AXIS2_PLACEMENT_3D('',#917,#760,#761);
#618=AXIS2_PLACEMENT_3D('',#920,#763,#764);
#619=AXIS2_PLACEMENT_3D('',#921,#765,#766);
#620=AXIS2_PLACEMENT_3D('',#925,#769,#770);
#621=AXIS2_PLACEMENT_3D('',#926,#771,#772);
#622=AXIS2_PLACEMENT_3D('',#928,#773,#774);
#623=AXIS2_PLACEMENT_3D('',#930,#776,#777);
#624=AXIS2_PLACEMENT_3D('',#933,#779,#780);
#625=AXIS2_PLACEMENT_3D('',#934,#781,#782);
#626=AXIS2_PLACEMENT_3D('',#936,#783,#784);
#627=AXIS2_PLACEMENT_3D('',#938,#786,#787);
#628=AXIS2_PLACEMENT_3D('',#940,#789,#790);
#629=AXIS2_PLACEMENT_3D('',#942,#792,#793);
#630=DIRECTION('axis',(0.,0.,1.));
#631=DIRECTION('refdir',(1.,0.,0.));
#632=DIRECTION('center_axis',(0.,-1.,0.));
#633=DIRECTION('ref_axis',(1.,0.,0.));
#634=DIRECTION('center_axis',(0.,-1.,0.));
#635=DIRECTION('ref_axis',(1.,0.,0.));
#636=DIRECTION('',(0.,-1.,0.));
#637=DIRECTION('center_axis',(0.,-1.,0.));
#638=DIRECTION('ref_axis',(1.,0.,0.));
#639=DIRECTION('center_axis',(0.,1.,0.));
#640=DIRECTION('ref_axis',(0.,0.,1.));
#641=DIRECTION('center_axis',(0.,-1.,0.));
#642=DIRECTION('ref_axis',(1.,0.,0.));
#643=DIRECTION('center_axis',(0.,-1.,0.));
#644=DIRECTION('ref_axis',(1.,0.,0.));
#645=DIRECTION('',(0.,-1.,0.));
#646=DIRECTION('center_axis',(0.,-1.,0.));
#647=DIRECTION('ref_axis',(1.,0.,0.));
#648=DIRECTION('center_axis',(0.,1.,0.));
#649=DIRECTION('ref_axis',(0.,0.,1.));
#650=DIRECTION('center_axis',(-1.,0.,0.));
#651=DIRECTION('ref_axis',(0.,0.,1.));
#652=DIRECTION('',(0.,-1.,0.));
#653=DIRECTION('',(0.,0.,1.));
#654=DIRECTION('',(0.,1.,0.));
#655=DIRECTION('',(0.,0.,-1.));
#656=DIRECTION('center_axis',(-1.,0.,0.));
#657=DIRECTION('ref_axis',(0.,0.,1.));
#658=DIRECTION('',(0.,-1.,0.));
#659=DIRECTION('',(0.,0.,1.));
#660=DIRECTION('',(0.,1.,0.));
#661=DIRECTION('',(0.,0.,-1.));
#662=DIRECTION('center_axis',(-1.,0.,0.));
#663=DIRECTION('ref_axis',(0.,0.,1.));
#664=DIRECTION('center_axis',(1.,0.,0.));
#665=DIRECTION('ref_axis',(0.,0.,1.));
#666=DIRECTION('',(-0.707106781186548,8.65956056235494E-17,-0.707106781186548));
#667=DIRECTION('center_axis',(-1.,0.,0.));
#668=DIRECTION('ref_axis',(0.,0.,1.));
#669=DIRECTION('center_axis',(1.,0.,0.));
#670=DIRECTION('ref_axis',(0.,0.,-1.));
#671=DIRECTION('',(0.,0.,1.));
#672=DIRECTION('',(0.,-1.,0.));
#673=DIRECTION('',(0.,0.,-1.));
#674=DIRECTION('',(0.,1.,0.));
#675=DIRECTION('center_axis',(-1.,0.,0.));
#676=DIRECTION('ref_axis',(0.,0.,1.));
#677=DIRECTION('center_axis',(-1.,0.,0.));
#678=DIRECTION('ref_axis',(0.,0.,1.));
#679=DIRECTION('center_axis',(-1.,0.,0.));
#680=DIRECTION('ref_axis',(0.,0.,1.));
#681=DIRECTION('center_axis',(1.,0.,0.));
#682=DIRECTION('ref_axis',(0.,0.,1.));
#683=DIRECTION('center_axis',(-1.,0.,0.));
#684=DIRECTION('ref_axis',(0.,0.,1.));
#685=DIRECTION('',(-1.,0.,0.));
#686=DIRECTION('center_axis',(-1.,0.,0.));
#687=DIRECTION('ref_axis',(0.,0.,1.));
#688=DIRECTION('center_axis',(1.,0.,0.));
#689=DIRECTION('ref_axis',(0.,0.,1.));
#690=DIRECTION('',(-0.707106781186548,8.65956056235494E-17,-0.707106781186548));
#691=DIRECTION('center_axis',(1.,0.,0.));
#692=DIRECTION('ref_axis',(0.,0.,1.));
#693=DIRECTION('center_axis',(-1.,0.,0.));
#694=DIRECTION('ref_axis',(0.,0.,1.));
#695=DIRECTION('',(-1.,0.,0.));
#696=DIRECTION('center_axis',(-1.,0.,0.));
#697=DIRECTION('ref_axis',(0.,0.,1.));
#698=DIRECTION('center_axis',(1.,0.,0.));
#699=DIRECTION('ref_axis',(0.,0.,1.));
#700=DIRECTION('',(-0.707106781186547,8.65956056235494E-17,-0.707106781186548));
#701=DIRECTION('center_axis',(1.,0.,0.));
#702=DIRECTION('ref_axis',(0.,0.,1.));
#703=DIRECTION('center_axis',(-1.,0.,0.));
#704=DIRECTION('ref_axis',(0.,0.,1.));
#705=DIRECTION('',(-1.,0.,0.));
#706=DIRECTION('center_axis',(-1.,0.,0.));
#707=DIRECTION('ref_axis',(0.,0.,1.));
#708=DIRECTION('center_axis',(1.,0.,0.));
#709=DIRECTION('ref_axis',(0.,0.,1.));
#710=DIRECTION('',(-0.707106781186547,8.65956056235494E-17,-0.707106781186548));
#711=DIRECTION('center_axis',(1.,0.,0.));
#712=DIRECTION('ref_axis',(0.,0.,1.));
#713=DIRECTION('center_axis',(-1.,0.,0.));
#714=DIRECTION('ref_axis',(0.,0.,1.));
#715=DIRECTION('',(-1.,0.,0.));
#716=DIRECTION('center_axis',(1.,0.,0.));
#717=DIRECTION('ref_axis',(0.,0.,-1.));
#718=DIRECTION('',(0.,1.,0.));
#719=DIRECTION('',(0.,0.,1.));
#720=DIRECTION('',(0.,-1.,0.));
#721=DIRECTION('',(0.,0.,-1.));
#722=DIRECTION('center_axis',(0.,1.,0.));
#723=DIRECTION('ref_axis',(-1.,0.,0.));
#724=DIRECTION('center_axis',(0.,1.,0.));
#725=DIRECTION('ref_axis',(-1.,0.,0.));
#726=DIRECTION('',(-0.707106781186548,-0.707106781186547,8.65956056235494E-17));
#727=DIRECTION('center_axis',(0.,-1.,0.));
#728=DIRECTION('ref_axis',(-1.,0.,0.));
#729=DIRECTION('center_axis',(0.,-1.,0.));
#730=DIRECTION('ref_axis',(-1.,0.,0.));
#731=DIRECTION('center_axis',(0.,1.,0.));
#732=DIRECTION('ref_axis',(-1.,0.,0.));
#733=DIRECTION('',(-1.,0.,0.));
#734=DIRECTION('',(1.,0.,0.));
#735=DIRECTION('center_axis',(0.,1.,0.));
#736=DIRECTION('ref_axis',(-1.,0.,0.));
#737=DIRECTION('center_axis',(0.,-1.,0.));
#738=DIRECTION('ref_axis',(1.,0.,0.));
#739=DIRECTION('',(0.,-1.,0.));
#740=DIRECTION('center_axis',(0.,1.,0.));
#741=DIRECTION('ref_axis',(1.,0.,0.));
#742=DIRECTION('center_axis',(0.,1.,0.));
#743=DIRECTION('ref_axis',(-1.,0.,0.));
#744=DIRECTION('',(-0.707106781186547,-0.707106781186547,8.65956056235493E-17));
#745=DIRECTION('center_axis',(0.,-1.,0.));
#746=DIRECTION('ref_axis',(-1.,0.,0.));
#747=DIRECTION('center_axis',(0.,-1.,0.));
#748=DIRECTION('ref_axis',(-1.,0.,0.));
#749=DIRECTION('center_axis',(0.,-1.,0.));
#750=DIRECTION('ref_axis',(1.,0.,0.));
#751=DIRECTION('',(0.,-1.,0.));
#752=DIRECTION('center_axis',(0.,1.,0.));
#753=DIRECTION('ref_axis',(1.,0.,0.));
#754=DIRECTION('center_axis',(0.,-1.,0.));
#755=DIRECTION('ref_axis',(1.,0.,0.));
#756=DIRECTION('',(-1.,0.,0.));
#757=DIRECTION('',(1.,0.,0.));
#758=DIRECTION('center_axis',(0.,-1.,0.));
#759=DIRECTION('ref_axis',(1.,0.,0.));
#760=DIRECTION('center_axis',(0.,-1.,0.));
#761=DIRECTION('ref_axis',(1.,0.,0.));
#762=DIRECTION('',(0.707106781186548,0.707106781186547,8.65956056235494E-17));
#763=DIRECTION('center_axis',(0.,1.,0.));
#764=DIRECTION('ref_axis',(1.,0.,0.));
#765=DIRECTION('center_axis',(0.,-1.,0.));
#766=DIRECTION('ref_axis',(1.,0.,0.));
#767=DIRECTION('',(-1.,0.,0.));
#768=DIRECTION('',(1.,0.,0.));
#769=DIRECTION('center_axis',(0.,-1.,0.));
#770=DIRECTION('ref_axis',(1.,0.,0.));
#771=DIRECTION('center_axis',(0.,-1.,0.));
#772=DIRECTION('ref_axis',(1.,0.,0.));
#773=DIRECTION('center_axis',(0.,-1.,0.));
#774=DIRECTION('ref_axis',(1.,0.,0.));
#775=DIRECTION('',(0.,-1.,0.));
#776=DIRECTION('center_axis',(0.,-1.,0.));
#777=DIRECTION('ref_axis',(1.,0.,0.));
#778=DIRECTION('',(0.707106781186548,0.707106781186547,8.65956056235494E-17));
#779=DIRECTION('center_axis',(0.,1.,0.));
#780=DIRECTION('ref_axis',(1.,0.,0.));
#781=DIRECTION('center_axis',(0.,-1.,0.));
#782=DIRECTION('ref_axis',(1.,0.,0.));
#783=DIRECTION('center_axis',(0.,-1.,0.));
#784=DIRECTION('ref_axis',(1.,0.,0.));
#785=DIRECTION('',(0.,-1.,0.));
#786=DIRECTION('center_axis',(0.,0.,1.));
#787=DIRECTION('ref_axis',(1.,0.,0.));
#788=DIRECTION('',(1.,0.,0.));
#789=DIRECTION('center_axis',(0.,1.,0.));
#790=DIRECTION('ref_axis',(-1.,0.,0.));
#791=DIRECTION('',(-1.,0.,0.));
#792=DIRECTION('center_axis',(0.,0.,-1.));
#793=DIRECTION('ref_axis',(1.,0.,0.));
#794=CARTESIAN_POINT('',(0.,0.,0.));
#795=CARTESIAN_POINT('Origin',(17.5,20.,3.));
#796=CARTESIAN_POINT('',(16.25,20.,3.));
#797=CARTESIAN_POINT('Origin',(17.5,20.,3.));
#798=CARTESIAN_POINT('',(16.25,15.,3.));
#799=CARTESIAN_POINT('',(16.25,20.,3.));
#800=CARTESIAN_POINT('Origin',(17.5,15.,3.));
#801=CARTESIAN_POINT('Origin',(17.5,15.,3.));
#802=CARTESIAN_POINT('Origin',(17.5,20.,13.));
#803=CARTESIAN_POINT('',(16.25,20.,13.));
#804=CARTESIAN_POINT('Origin',(17.5,20.,13.));
#805=CARTESIAN_POINT('',(16.25,15.,13.));
#806=CARTESIAN_POINT('',(16.25,20.,13.));
#807=CARTESIAN_POINT('Origin',(17.5,15.,13.));
#808=CARTESIAN_POINT('Origin',(17.5,15.,13.));
#809=CARTESIAN_POINT('Origin',(-15.,-17.45,15.15));
#810=CARTESIAN_POINT('',(-15.,-14.9,0.));
#811=CARTESIAN_POINT('',(-15.,-20.,0.));
#812=CARTESIAN_POINT('',(-15.,-14.9,0.));
#813=CARTESIAN_POINT('',(-15.,-20.,30.3));
#814=CARTESIAN_POINT('',(-15.,-20.,0.));
#815=CARTESIAN_POINT('',(-15.,-14.9,30.3));
#816=CARTESIAN_POINT('',(-15.,-20.,30.3));
#817=CARTESIAN_POINT('',(-15.,-14.9,30.3));
#818=CARTESIAN_POINT('Origin',(-15.,17.45,15.15));
#819=CARTESIAN_POINT('',(-15.,20.,0.));
#820=CARTESIAN_POINT('',(-15.,14.9,0.));
#821=CARTESIAN_POINT('',(-15.,20.,0.));
#822=CARTESIAN_POINT('',(-15.,14.9,30.3));
#823=CARTESIAN_POINT('',(-15.,14.9,0.));
#824=CARTESIAN_POINT('',(-15.,20.,30.3));
#825=CARTESIAN_POINT('',(-15.,14.9,30.3));
#826=CARTESIAN_POINT('',(-15.,20.,30.3));
#827=CARTESIAN_POINT('Origin',(16.,-10.,5.15));
#828=CARTESIAN_POINT('',(17.,-10.,3.6));
#829=CARTESIAN_POINT('Origin',(17.,-10.,5.15));
#830=CARTESIAN_POINT('',(15.,-10.,1.6));
#831=CARTESIAN_POINT('',(16.,-10.,2.6));
#832=CARTESIAN_POINT('Origin',(15.,-10.,5.15));
#833=CARTESIAN_POINT('Origin',(15.,0.,15.15));
#834=CARTESIAN_POINT('',(15.,-14.9,0.));
#835=CARTESIAN_POINT('',(15.,-14.9,30.3));
#836=CARTESIAN_POINT('',(15.,-14.9,0.));
#837=CARTESIAN_POINT('',(15.,14.9,30.3));
#838=CARTESIAN_POINT('',(15.,20.,30.3));
#839=CARTESIAN_POINT('',(15.,14.9,0.));
#840=CARTESIAN_POINT('',(15.,14.9,30.3));
#841=CARTESIAN_POINT('',(15.,-20.,0.));
#842=CARTESIAN_POINT('',(15.,10.,1.6));
#843=CARTESIAN_POINT('Origin',(15.,10.,5.15));
#844=CARTESIAN_POINT('',(15.,10.,21.6));
#845=CARTESIAN_POINT('Origin',(15.,10.,25.15));
#846=CARTESIAN_POINT('',(15.,-10.,21.6));
#847=CARTESIAN_POINT('Origin',(15.,-10.,25.15));
#848=CARTESIAN_POINT('Origin',(15.,-10.,5.15));
#849=CARTESIAN_POINT('',(20.,-10.,3.6));
#850=CARTESIAN_POINT('Origin',(20.,-10.,5.15));
#851=CARTESIAN_POINT('',(15.,-10.,3.6));
#852=CARTESIAN_POINT('Origin',(16.,10.,5.15));
#853=CARTESIAN_POINT('',(17.,10.,3.6));
#854=CARTESIAN_POINT('Origin',(17.,10.,5.15));
#855=CARTESIAN_POINT('',(16.,10.,2.6));
#856=CARTESIAN_POINT('Origin',(15.,10.,5.15));
#857=CARTESIAN_POINT('',(20.,10.,3.6));
#858=CARTESIAN_POINT('Origin',(20.,10.,5.15));
#859=CARTESIAN_POINT('',(15.,10.,3.6));
#860=CARTESIAN_POINT('Origin',(16.,-10.,25.15));
#861=CARTESIAN_POINT('',(17.,-10.,23.6));
#862=CARTESIAN_POINT('Origin',(17.,-10.,25.15));
#863=CARTESIAN_POINT('',(16.,-10.,22.6));
#864=CARTESIAN_POINT('Origin',(15.,-10.,25.15));
#865=CARTESIAN_POINT('',(20.,-10.,23.6));
#866=CARTESIAN_POINT('Origin',(20.,-10.,25.15));
#867=CARTESIAN_POINT('',(15.,-10.,23.6));
#868=CARTESIAN_POINT('Origin',(16.,10.,25.15));
#869=CARTESIAN_POINT('',(17.,10.,23.6));
#870=CARTESIAN_POINT('Origin',(17.,10.,25.15));
#871=CARTESIAN_POINT('',(16.,10.,22.6));
#872=CARTESIAN_POINT('Origin',(15.,10.,25.15));
#873=CARTESIAN_POINT('',(20.,10.,23.6));
#874=CARTESIAN_POINT('Origin',(20.,10.,25.15));
#875=CARTESIAN_POINT('',(15.,10.,23.6));
#876=CARTESIAN_POINT('Origin',(20.,0.,15.15));
#877=CARTESIAN_POINT('',(20.,-20.,0.));
#878=CARTESIAN_POINT('',(20.,20.,0.));
#879=CARTESIAN_POINT('',(20.,-20.,0.));
#880=CARTESIAN_POINT('',(20.,20.,30.3));
#881=CARTESIAN_POINT('',(20.,20.,0.));
#882=CARTESIAN_POINT('',(20.,-20.,30.3));
#883=CARTESIAN_POINT('',(20.,20.,30.3));
#884=CARTESIAN_POINT('',(20.,-20.,30.3));
#885=CARTESIAN_POINT('Origin',(10.,19.3,25.2));
#886=CARTESIAN_POINT('',(12.95,20.,25.2));
#887=CARTESIAN_POINT('Origin',(10.,20.,25.2));
#888=CARTESIAN_POINT('',(11.55,18.6,25.2));
#889=CARTESIAN_POINT('',(12.25,19.3,25.2));
#890=CARTESIAN_POINT('',(8.45,18.6,25.2));
#891=CARTESIAN_POINT('Origin',(10.,18.6,25.2));
#892=CARTESIAN_POINT('Origin',(10.,18.6,25.2));
#893=CARTESIAN_POINT('Origin',(13.,20.,0.));
#894=CARTESIAN_POINT('',(-13.,20.,30.3));
#895=CARTESIAN_POINT('',(13.,20.,0.));
#896=CARTESIAN_POINT('',(-7.05,20.,25.2));
#897=CARTESIAN_POINT('Origin',(-10.,20.,25.2));
#898=CARTESIAN_POINT('Origin',(10.,20.,25.2));
#899=CARTESIAN_POINT('',(8.45,14.9,25.2));
#900=CARTESIAN_POINT('',(8.45,20.,25.2));
#901=CARTESIAN_POINT('Origin',(10.,14.9,25.2));
#902=CARTESIAN_POINT('Origin',(-10.,19.3,25.2));
#903=CARTESIAN_POINT('',(-8.45,18.6,25.2));
#904=CARTESIAN_POINT('',(-7.75,19.3,25.2));
#905=CARTESIAN_POINT('',(-11.55,18.6,25.2));
#906=CARTESIAN_POINT('Origin',(-10.,18.6,25.2));
#907=CARTESIAN_POINT('Origin',(-10.,18.6,25.2));
#908=CARTESIAN_POINT('Origin',(-10.,20.,25.2));
#909=CARTESIAN_POINT('',(-11.55,14.9,25.2));
#910=CARTESIAN_POINT('',(-11.55,20.,25.2));
#911=CARTESIAN_POINT('Origin',(-10.,14.9,25.2));
#912=CARTESIAN_POINT('Origin',(-13.,14.9,0.));
#913=CARTESIAN_POINT('',(-14.4,14.9,30.3));
#914=CARTESIAN_POINT('',(-15.8,14.9,0.));
#915=CARTESIAN_POINT('Origin',(-10.,-19.3,25.2));
#916=CARTESIAN_POINT('',(-12.95,-20.,25.2));
#917=CARTESIAN_POINT('Origin',(-10.,-20.,25.2));
#918=CARTESIAN_POINT('',(-11.55,-18.6,25.2));
#919=CARTESIAN_POINT('',(-12.25,-19.3,25.2));
#920=CARTESIAN_POINT('Origin',(-10.,-18.6,25.2));
#921=CARTESIAN_POINT('Origin',(-13.,-20.,0.));
#922=CARTESIAN_POINT('',(-14.4,-20.,30.3));
#923=CARTESIAN_POINT('',(-13.,-20.,0.));
#924=CARTESIAN_POINT('',(7.05,-20.,25.2));
#925=CARTESIAN_POINT('Origin',(10.,-20.,25.2));
#926=CARTESIAN_POINT('Origin',(-10.,20.,25.2));
#927=CARTESIAN_POINT('',(-11.55,-14.9,25.2));
#928=CARTESIAN_POINT('Origin',(-10.,-14.9,25.2));
#929=CARTESIAN_POINT('',(-11.55,20.,25.2));
#930=CARTESIAN_POINT('Origin',(10.,-19.3,25.2));
#931=CARTESIAN_POINT('',(8.45,-18.6,25.2));
#932=CARTESIAN_POINT('',(7.75,-19.3,25.2));
#933=CARTESIAN_POINT('Origin',(10.,-18.6,25.2));
#934=CARTESIAN_POINT('Origin',(10.,20.,25.2));
#935=CARTESIAN_POINT('',(8.45,-14.9,25.2));
#936=CARTESIAN_POINT('Origin',(10.,-14.9,25.2));
#937=CARTESIAN_POINT('',(8.45,20.,25.2));
#938=CARTESIAN_POINT('Origin',(0.,-17.45,0.));
#939=CARTESIAN_POINT('',(13.,-14.9,0.));
#940=CARTESIAN_POINT('Origin',(13.,-14.9,0.));
#941=CARTESIAN_POINT('',(-13.,-14.9,30.3));
#942=CARTESIAN_POINT('Origin',(-15.8,20.,30.3));
#943=UNCERTAINTY_MEASURE_WITH_UNIT(LENGTH_MEASURE(0.01),#947,
'DISTANCE_ACCURACY_VALUE',
'Maximum model space distance between geometric entities at asserted c
onnectivities');
#944=UNCERTAINTY_MEASURE_WITH_UNIT(LENGTH_MEASURE(0.01),#947,
'DISTANCE_ACCURACY_VALUE',
'Maximum model space distance between geometric entities at asserted c
onnectivities');
#945=(
GEOMETRIC_REPRESENTATION_CONTEXT(3)
GLOBAL_UNCERTAINTY_ASSIGNED_CONTEXT((#943))
GLOBAL_UNIT_ASSIGNED_CONTEXT((#947,#949,#950))
REPRESENTATION_CONTEXT('','3D')
);
#946=(
GEOMETRIC_REPRESENTATION_CONTEXT(3)
GLOBAL_UNCERTAINTY_ASSIGNED_CONTEXT((#944))
GLOBAL_UNIT_ASSIGNED_CONTEXT((#947,#949,#950))
REPRESENTATION_CONTEXT('','3D')
);
#947=(
LENGTH_UNIT()
NAMED_UNIT(*)
SI_UNIT(.MILLI.,.METRE.)
);
#948=(
LENGTH_UNIT()
NAMED_UNIT(*)
SI_UNIT(.CENTI.,.METRE.)
);
#949=(
NAMED_UNIT(*)
PLANE_ANGLE_UNIT()
SI_UNIT($,.RADIAN.)
);
#950=(
NAMED_UNIT(*)
SI_UNIT($,.STERADIAN.)
SOLID_ANGLE_UNIT()
);
#951=SHAPE_DEFINITION_REPRESENTATION(#952,#953);
#952=PRODUCT_DEFINITION_SHAPE('',$,#955);
#953=SHAPE_REPRESENTATION('',(#569),#945);
#954=PRODUCT_DEFINITION_CONTEXT('part definition',#959,'design');
#955=PRODUCT_DEFINITION('rail to alvium adapter',
'rail to alvium adapter',#956,#954);
#956=PRODUCT_DEFINITION_FORMATION('',$,#961);
#957=PRODUCT_RELATED_PRODUCT_CATEGORY('rail to alvium adapter',
'rail to alvium adapter',(#961));
#958=APPLICATION_PROTOCOL_DEFINITION('international standard',
'automotive_design',2009,#959);
#959=APPLICATION_CONTEXT(
'Core Data for Automotive Mechanical Design Process');
#960=PRODUCT_CONTEXT('part definition',#959,'mechanical');
#961=PRODUCT('rail to alvium adapter','rail to alvium adapter',$,(#960));
#962=PRESENTATION_STYLE_ASSIGNMENT((#963));
#963=SURFACE_STYLE_USAGE(.BOTH.,#966);
#964=SURFACE_STYLE_RENDERING_WITH_PROPERTIES($,#970,(#965));
#965=SURFACE_STYLE_TRANSPARENT(0.);
#966=SURFACE_SIDE_STYLE('',(#967,#964));
#967=SURFACE_STYLE_FILL_AREA(#968);
#968=FILL_AREA_STYLE('',(#969));
#969=FILL_AREA_STYLE_COLOUR('',#970);
#970=COLOUR_RGB('',0.749019607843137,0.749019607843137,0.749019607843137);
ENDSEC;
END-ISO-10303-21;
